<?xml version="1.0" encoding="utf-8"?>
<!-- Generator: Adobe Illustrator 21.0.0, SVG Export Plug-In . SVG Version: 6.00 Build 0)  -->
<svg version="1.1" id="Calque_1" xmlns="http://www.w3.org/2000/svg" xmlns:xlink="http://www.w3.org/1999/xlink" x="0px" y="0px"
	 viewBox="0 0 77.5 77.5" style="enable-background:new 0 0 77.5 77.5;" xml:space="preserve">
<style type="text/css">
	.st0{fill:#38A600;}
</style>
<g>
	<g>
		<g>
			<g>
				<path class="st0" d="M35.2,24.6V60c0,0.7,1.4,1.3,1.4,1.4V23.3C36.6,23.3,35.2,23.9,35.2,24.6z"/>
			</g>
		</g>
		<g>
			<g>
				<path class="st0" d="M36.6,53.1c-4.1-1.3-13.4-7.9-13.4-17s9.5-16.8,14.1-18.8c0.7-0.3,0.8-1.3,0.6-2c-0.3-0.7-1-0.8-1.3-0.7
					C30.7,17,20.5,25.8,20.5,36c0,10.7,11.3,18.4,15.8,19.6l0.3,0.1l0,0V53.1L36.6,53.1z"/>
			</g>
		</g>
		<g>
			<g>
				<g>
					<path class="st0" d="M29.9,39.1c-0.6-0.4-1.4-0.4-1.8,0.1c-0.4,0.6-0.4,1.4,0.3,2l7.8,6.4c0.1,0.1,0.6,0.3,0.6,0.3v-3.2
						L29.9,39.1z"/>
				</g>
			</g>
			<g>
				<g>
					<path class="st0" d="M35.9,45.5c-0.6,0.4-0.7,1.3-0.3,2c0.3,0.3,1,0.6,1,0.6v-3.1L35.9,45.5z"/>
				</g>
			</g>
			<g>
				<g>
					<path class="st0" d="M31.8,31.9c-0.6-0.4-1.4-0.4-1.8,0.1c-0.4,0.6-0.4,1.4,0.3,2l5.9,4.8c0.1,0.1,0.7,0.3,0.7,0.3v-3.2
						L31.8,31.9z"/>
				</g>
			</g>
			<g>
				<g>
					<path class="st0" d="M35.9,36.6c-0.6,0.4-0.7,1.3-0.3,2c0.3,0.3,1,0.4,1,0.6V36L35.9,36.6z"/>
				</g>
			</g>
			<g>
				<g>
					<path class="st0" d="M33.9,26.1c-0.6-0.4-1.4-0.4-1.8,0.1c-0.4,0.6-0.4,1.4,0.3,2l3.7,3c0.3,0.1,0.7,0.3,0.7,0.3v-3.2
						L33.9,26.1z"/>
				</g>
			</g>
			<g>
				<g>
					<path class="st0" d="M35.9,29.1c-0.6,0.4-0.7,1.3-0.3,2c0.3,0.3,1,0.4,1,0.6v-3.1L35.9,29.1z"/>
				</g>
			</g>
		</g>
	</g>
	<g>
		<path class="st0" d="M36.6,62.9c-0.8,0-1.4-0.7-1.4-1.4V22.9c0-0.8,0.6-1.4,1.4-1.4s1.4,0.7,1.4,1.4v38.4
			C38,62.2,37.5,62.9,36.6,62.9z"/>
	</g>
	<g>
		<g>
			<path class="st0" d="M41.6,23.2h-0.7v38.1h0.7c0.7,0,2.1-0.6,2.1-1.4V24.6C43.7,23.9,42.4,23.2,41.6,23.2z"/>
		</g>
		<g>
			<path class="st0" d="M40.4,15.5c-0.4,0.7,0.1,1.7,0.6,2c4.4,2.1,13.4,10,13.4,18.8c0,9-8.1,15.4-13.7,16.8v2.8l0.3-0.1
				c5.4-1.4,16-9,16-19.6c0-9.9-9.6-18.6-15.1-21.2C41.6,14.8,40.9,15,40.4,15.5z"/>
		</g>
		<g>
			<path class="st0" d="M49.8,39.4c-0.4-0.6-1.3-0.7-1.8-0.1l-7.1,5.7V48l0,0c0.3,0,0.6-0.1,0.8-0.3l7.9-6.4
				C50.2,40.8,50.2,40,49.8,39.4z"/>
		</g>
		<g>
			<path class="st0" d="M47.8,32.1c-0.4-0.6-1.3-0.7-1.8-0.1L40.9,36v3.1l0,0c0.3,0,0.6-0.1,0.8-0.3l5.9-4.8
				C48.2,33.5,48.4,32.6,47.8,32.1z"/>
		</g>
		<g>
			<path class="st0" d="M45.7,26.4c-0.4-0.6-1.3-0.7-1.8-0.1L41,28.5v3.1l0,0c0.3,0,0.6-0.1,0.8-0.3l3.7-3
				C46,27.8,46.1,27,45.7,26.4z"/>
		</g>
		<g>
			<path class="st0" d="M42.3,62.9c-0.8,0-1.4-0.7-1.4-1.4V22.9c0-0.8,0.6-1.4,1.4-1.4s1.4,0.7,1.4,1.4v38.4
				C43.7,62.2,43.1,62.9,42.3,62.9z"/>
		</g>
	</g>
</g>
</svg>
