<?xml version="1.0" encoding="utf-8"?>
<!-- Generator: Adobe Illustrator 21.0.0, SVG Export Plug-In . SVG Version: 6.00 Build 0)  -->
<svg version="1.1" id="Calque_1" xmlns="http://www.w3.org/2000/svg" xmlns:xlink="http://www.w3.org/1999/xlink" x="0px" y="0px"
	 viewBox="0 0 76.5 76.5" style="enable-background:new 0 0 76.5 76.5;" xml:space="preserve">
<style type="text/css">
	.st0{fill:#DA7100;}
</style>
<g>
	<g>
		<path class="st0" d="M38.1,55.7c-3.3-0.3-5.4-1.9-5.9-2.4c-0.4-0.3-0.8-0.7-1.1-1l-0.6-0.6c-2.9-3.1-3.8-6.3-3.1-10.7
			c0.3-1.9,1-3.6,1.7-5.5c0.2-0.5,0.4-1,0.6-1.5c0.2,1.4,0.3,2.7,0.4,3.6l0.2,4.4l2.4-3.7c2.9-4.4,5.3-13.6,5.7-20.3
			c0.1-1.6-0.1-3.1-0.7-5.1c-0.6-1.9-2.5-1.6-2.5-1.6l0.4,3c0.5,4.5-1,12.6-3.2,18.2c-0.3-1.9-0.6-3.1-1-4.8
			c-0.6-2.7-2.5-4.4-2.5-4.4s0,1.7-0.4,4.4c-0.5,2.7-1.2,4.4-2.1,6.6c-0.8,1.9-1.5,3.9-1.9,6.1c-0.9,5.4,0.3,9.4,3.8,13.2l0.7,0.7
			c0.4,0.4,0.8,0.8,1.3,1.1c0.9,0.7,3.5,2.7,7.5,3.1c0,0,0.1,0,0.1,0c0.7,0,1.4-0.6,1.4-1.3C39.5,56.4,38.9,55.7,38.1,55.7z"/>
	</g>
	<g>
		<path class="st0" d="M57.2,33.9c-1.3-5.8-4.5-10.3-5.4-11.4C50,20.4,48.5,20,48.5,20s0.8,1.9,1,4.1c0.1,2.2-0.2,2.9-1,4.8
			c-0.6-2.1-3.7-8.6-5.8-11.9c-2-3.1-4.9-6.4-7.9-8.2c0.1,0.7,0.5,2.7,0.5,3.4c4.9,5,10.3,16.4,11.2,20.9l0.6,2.8l1.9-2.1
			c0.9-1.1,2.2-3.6,2.8-6c0.9,1.7,1.9,4,2.5,6.8c1,4.5,1.1,11.1-4,16.8c-0.9,1-2.8,4-6.8,4.3c-0.8,0-1.4,0.7-1.3,1.5
			c0,0.8,0.7,1.4,1.4,1.4c0,0,0.1,0,0.1,0c3.4-0.2,5.9-1.9,8.8-5.2C58.5,46.6,58.4,39.1,57.2,33.9z"/>
	</g>
</g>
</svg>
