<?xml version="1.0" encoding="utf-8"?>
<!-- Generator: Adobe Illustrator 21.0.0, SVG Export Plug-In . SVG Version: 6.00 Build 0)  -->
<svg version="1.1" id="Capa_1" xmlns="http://www.w3.org/2000/svg" xmlns:xlink="http://www.w3.org/1999/xlink" x="0px" y="0px"
	 viewBox="0 0 495 495" style="enable-background:new 0 0 495 495;" xml:space="preserve">
<style type="text/css">
	.st0{fill:#FF4100;}
</style>
<g>
	<g>
		<g>
			<path class="st0" d="M404.2,156.1c-15.3-34.7-48.7-57.3-84-57.3c-36,0-59.4,16-72.7,33.3c-13.3-17.3-36.7-33.3-72.7-33.3
				c-35.3,0-68.7,22.7-84,57.3c-16,36-8.7,75.3,19.4,106.7c67.4,75.3,126.7,128.7,127.4,129.4c2.7,2.7,6.7,4,10,4
				c3.4,0,6.7-1.4,9.3-4c0.6-0.6,60.7-54.1,128-129.4C412.9,231.5,420.2,192.1,404.2,156.1z M363.6,243.4
				c-50.7,56-96.7,100.7-116.1,118.7c-19.4-18-65.4-62.6-116.1-118.7c-20-22.7-25.4-50-14-75.3c10.7-24,33.3-40,57.3-40
				c46.7,0,57.3,34.7,58.7,38.7c1.4,6.7,7.3,10.7,14,10.7c6.7,0,12.7-4,14-10.7c0.6-1.4,10.7-38.7,58.7-38.7c24,0,46.7,16,57.3,40
				C388.9,193.5,383.6,220.8,363.6,243.4z"/>
			<path class="st0" d="M319.5,143.4c-8-1.4-14.7,4.7-16,12.7c-1.3,8,4,14.7,12,16c0.6,0,18.6,3.4,20.6,28.7
				c0.6,8,7.3,13.3,14.7,13.3c8.7,0,14.7-7.3,14-15.3C362.2,159.4,334.2,145.5,319.5,143.4z"/>
			<path class="st0" d="M332.9,220.8c-8,0-14,6.7-14,14.7s6,14,14,14c8,0,14.7-6,14.7-14S340.8,220.8,332.9,220.8z"/>
		</g>
	</g>
</g>
</svg>
