<?xml version="1.0" encoding="utf-8"?>
<!-- Generator: Adobe Illustrator 21.0.0, SVG Export Plug-In . SVG Version: 6.00 Build 0)  -->
<svg version="1.1" id="Calque_1" xmlns="http://www.w3.org/2000/svg" xmlns:xlink="http://www.w3.org/1999/xlink" x="0px" y="0px"
	 viewBox="0 0 75 75" style="enable-background:new 0 0 75 75;" xml:space="preserve">
<style type="text/css">
	.st0{fill:none;stroke:#6F9CA4;stroke-width:2;stroke-linecap:round;stroke-miterlimit:10;}
</style>
<g>
	<path id="cloud-wind" class="st0" d="M13.9,41.2h40.8c5.1,0,9.2-4.1,9.2-9.2l0,0c0-5.1-4.1-9.2-9.2-9.2c-5.1,0-9.2,4.1-9.2,9.2
		 M31.8,32c0-2.5,2-4.6,4.6-4.6c2.5,0,4.6,2,4.6,4.6c0,2.5-2.1,4.6-4.6,4.6H18.4 M45.6,48c0,1.3,1,2.3,2.3,2.3l0,0
		c1.3,0,2.3-1,2.3-2.3l0,0c0-1.3-1-2.3-2.3-2.3H23.5"/>
</g>
</svg>
