<?xml version="1.0" encoding="utf-8" standalone="no"?>
<!DOCTYPE svg PUBLIC "-//W3C//DTD SVG 1.1//EN"
  "http://www.w3.org/Graphics/SVG/1.1/DTD/svg11.dtd">
<!-- Created with matplotlib (https://matplotlib.org/) -->
<svg height="432pt" version="1.1" viewBox="0 0 720 432" width="720pt" xmlns="http://www.w3.org/2000/svg" xmlns:xlink="http://www.w3.org/1999/xlink">
 <defs>
  <style type="text/css">
*{stroke-linecap:butt;stroke-linejoin:round;}
  </style>
 </defs>
 <g id="figure_1">
  <g id="patch_1">
   <path d="M 0 432 
L 720 432 
L 720 0 
L 0 0 
z
" style="fill:#ffffff;"/>
  </g>
  <g id="axes_1">
   <g id="patch_2">
    <path d="M 90 378 
L 648 378 
L 648 51.84 
L 90 51.84 
z
" style="fill:#ffffff;"/>
   </g>
   <g id="matplotlib.axis_1">
    <g id="xtick_1">
     <g id="line2d_1">
      <defs>
       <path d="M 0 0 
L 0 6 
" id="m8fae68775f" style="stroke:#262626;stroke-width:1.25;"/>
      </defs>
      <g>
       <use style="fill:#262626;stroke:#262626;stroke-width:1.25;" x="90" xlink:href="#m8fae68775f" y="378"/>
      </g>
     </g>
     <g id="text_1">
      <!-- 0 -->
      <defs>
       <path d="M 4.15625 35.296875 
Q 4.15625 48 6.765625 55.734375 
Q 9.375 63.484375 14.515625 67.671875 
Q 19.671875 71.875 27.484375 71.875 
Q 33.25 71.875 37.59375 69.546875 
Q 41.9375 67.234375 44.765625 62.859375 
Q 47.609375 58.5 49.21875 52.21875 
Q 50.828125 45.953125 50.828125 35.296875 
Q 50.828125 22.703125 48.234375 14.96875 
Q 45.65625 7.234375 40.5 3 
Q 35.359375 -1.21875 27.484375 -1.21875 
Q 17.140625 -1.21875 11.234375 6.203125 
Q 4.15625 15.140625 4.15625 35.296875 
z
M 13.1875 35.296875 
Q 13.1875 17.671875 17.3125 11.828125 
Q 21.4375 6 27.484375 6 
Q 33.546875 6 37.671875 11.859375 
Q 41.796875 17.71875 41.796875 35.296875 
Q 41.796875 52.984375 37.671875 58.78125 
Q 33.546875 64.59375 27.390625 64.59375 
Q 21.34375 64.59375 17.71875 59.46875 
Q 13.1875 52.9375 13.1875 35.296875 
z
" id="ArialMT-48"/>
      </defs>
      <g style="fill:#262626;" transform="translate(86.663438 396.089375)scale(0.12 -0.12)">
       <use xlink:href="#ArialMT-48"/>
      </g>
     </g>
    </g>
    <g id="xtick_2">
     <g id="line2d_2">
      <g>
       <use style="fill:#262626;stroke:#262626;stroke-width:1.25;" x="229.5" xlink:href="#m8fae68775f" y="378"/>
      </g>
     </g>
     <g id="text_2">
      <!-- 20 -->
      <defs>
       <path d="M 50.34375 8.453125 
L 50.34375 0 
L 3.03125 0 
Q 2.9375 3.171875 4.046875 6.109375 
Q 5.859375 10.9375 9.828125 15.625 
Q 13.8125 20.3125 21.34375 26.46875 
Q 33.015625 36.03125 37.109375 41.625 
Q 41.21875 47.21875 41.21875 52.203125 
Q 41.21875 57.421875 37.46875 61 
Q 33.734375 64.59375 27.734375 64.59375 
Q 21.390625 64.59375 17.578125 60.78125 
Q 13.765625 56.984375 13.71875 50.25 
L 4.6875 51.171875 
Q 5.609375 61.28125 11.65625 66.578125 
Q 17.71875 71.875 27.9375 71.875 
Q 38.234375 71.875 44.234375 66.15625 
Q 50.25 60.453125 50.25 52 
Q 50.25 47.703125 48.484375 43.546875 
Q 46.734375 39.40625 42.65625 34.8125 
Q 38.578125 30.21875 29.109375 22.21875 
Q 21.1875 15.578125 18.9375 13.203125 
Q 16.703125 10.84375 15.234375 8.453125 
z
" id="ArialMT-50"/>
      </defs>
      <g style="fill:#262626;" transform="translate(222.826875 396.089375)scale(0.12 -0.12)">
       <use xlink:href="#ArialMT-50"/>
       <use x="55.615234" xlink:href="#ArialMT-48"/>
      </g>
     </g>
    </g>
    <g id="xtick_3">
     <g id="line2d_3">
      <g>
       <use style="fill:#262626;stroke:#262626;stroke-width:1.25;" x="369" xlink:href="#m8fae68775f" y="378"/>
      </g>
     </g>
     <g id="text_3">
      <!-- 40 -->
      <defs>
       <path d="M 32.328125 0 
L 32.328125 17.140625 
L 1.265625 17.140625 
L 1.265625 25.203125 
L 33.9375 71.578125 
L 41.109375 71.578125 
L 41.109375 25.203125 
L 50.78125 25.203125 
L 50.78125 17.140625 
L 41.109375 17.140625 
L 41.109375 0 
z
M 32.328125 25.203125 
L 32.328125 57.46875 
L 9.90625 25.203125 
z
" id="ArialMT-52"/>
      </defs>
      <g style="fill:#262626;" transform="translate(362.326875 396.089375)scale(0.12 -0.12)">
       <use xlink:href="#ArialMT-52"/>
       <use x="55.615234" xlink:href="#ArialMT-48"/>
      </g>
     </g>
    </g>
    <g id="xtick_4">
     <g id="line2d_4">
      <g>
       <use style="fill:#262626;stroke:#262626;stroke-width:1.25;" x="508.5" xlink:href="#m8fae68775f" y="378"/>
      </g>
     </g>
     <g id="text_4">
      <!-- 60 -->
      <defs>
       <path d="M 49.75 54.046875 
L 41.015625 53.375 
Q 39.84375 58.546875 37.703125 60.890625 
Q 34.125 64.65625 28.90625 64.65625 
Q 24.703125 64.65625 21.53125 62.3125 
Q 17.390625 59.28125 14.984375 53.46875 
Q 12.59375 47.65625 12.5 36.921875 
Q 15.671875 41.75 20.265625 44.09375 
Q 24.859375 46.4375 29.890625 46.4375 
Q 38.671875 46.4375 44.84375 39.96875 
Q 51.03125 33.5 51.03125 23.25 
Q 51.03125 16.5 48.125 10.71875 
Q 45.21875 4.9375 40.140625 1.859375 
Q 35.0625 -1.21875 28.609375 -1.21875 
Q 17.625 -1.21875 10.6875 6.859375 
Q 3.765625 14.9375 3.765625 33.5 
Q 3.765625 54.25 11.421875 63.671875 
Q 18.109375 71.875 29.4375 71.875 
Q 37.890625 71.875 43.28125 67.140625 
Q 48.6875 62.40625 49.75 54.046875 
z
M 13.875 23.1875 
Q 13.875 18.65625 15.796875 14.5 
Q 17.71875 10.359375 21.1875 8.171875 
Q 24.65625 6 28.46875 6 
Q 34.03125 6 38.03125 10.484375 
Q 42.046875 14.984375 42.046875 22.703125 
Q 42.046875 30.125 38.078125 34.390625 
Q 34.125 38.671875 28.125 38.671875 
Q 22.171875 38.671875 18.015625 34.390625 
Q 13.875 30.125 13.875 23.1875 
z
" id="ArialMT-54"/>
      </defs>
      <g style="fill:#262626;" transform="translate(501.826875 396.089375)scale(0.12 -0.12)">
       <use xlink:href="#ArialMT-54"/>
       <use x="55.615234" xlink:href="#ArialMT-48"/>
      </g>
     </g>
    </g>
    <g id="xtick_5">
     <g id="line2d_5">
      <g>
       <use style="fill:#262626;stroke:#262626;stroke-width:1.25;" x="648" xlink:href="#m8fae68775f" y="378"/>
      </g>
     </g>
     <g id="text_5">
      <!-- 80 -->
      <defs>
       <path d="M 17.671875 38.8125 
Q 12.203125 40.828125 9.5625 44.53125 
Q 6.9375 48.25 6.9375 53.421875 
Q 6.9375 61.234375 12.546875 66.546875 
Q 18.171875 71.875 27.484375 71.875 
Q 36.859375 71.875 42.578125 66.421875 
Q 48.296875 60.984375 48.296875 53.171875 
Q 48.296875 48.1875 45.671875 44.5 
Q 43.0625 40.828125 37.75 38.8125 
Q 44.34375 36.671875 47.78125 31.875 
Q 51.21875 27.09375 51.21875 20.453125 
Q 51.21875 11.28125 44.71875 5.03125 
Q 38.234375 -1.21875 27.640625 -1.21875 
Q 17.046875 -1.21875 10.546875 5.046875 
Q 4.046875 11.328125 4.046875 20.703125 
Q 4.046875 27.6875 7.59375 32.390625 
Q 11.140625 37.109375 17.671875 38.8125 
z
M 15.921875 53.71875 
Q 15.921875 48.640625 19.1875 45.40625 
Q 22.46875 42.1875 27.6875 42.1875 
Q 32.765625 42.1875 36.015625 45.375 
Q 39.265625 48.578125 39.265625 53.21875 
Q 39.265625 58.0625 35.90625 61.359375 
Q 32.5625 64.65625 27.59375 64.65625 
Q 22.5625 64.65625 19.234375 61.421875 
Q 15.921875 58.203125 15.921875 53.71875 
z
M 13.09375 20.65625 
Q 13.09375 16.890625 14.875 13.375 
Q 16.65625 9.859375 20.171875 7.921875 
Q 23.6875 6 27.734375 6 
Q 34.03125 6 38.125 10.046875 
Q 42.234375 14.109375 42.234375 20.359375 
Q 42.234375 26.703125 38.015625 30.859375 
Q 33.796875 35.015625 27.4375 35.015625 
Q 21.234375 35.015625 17.15625 30.90625 
Q 13.09375 26.8125 13.09375 20.65625 
z
" id="ArialMT-56"/>
      </defs>
      <g style="fill:#262626;" transform="translate(641.326875 396.089375)scale(0.12 -0.12)">
       <use xlink:href="#ArialMT-56"/>
       <use x="55.615234" xlink:href="#ArialMT-48"/>
      </g>
     </g>
    </g>
    <g id="text_6">
     <!-- Trial Number -->
     <defs>
      <path d="M 25.921875 0 
L 25.921875 63.140625 
L 2.34375 63.140625 
L 2.34375 71.578125 
L 59.078125 71.578125 
L 59.078125 63.140625 
L 35.40625 63.140625 
L 35.40625 0 
z
" id="ArialMT-84"/>
      <path d="M 6.5 0 
L 6.5 51.859375 
L 14.40625 51.859375 
L 14.40625 44 
Q 17.4375 49.515625 20 51.265625 
Q 22.5625 53.03125 25.640625 53.03125 
Q 30.078125 53.03125 34.671875 50.203125 
L 31.640625 42.046875 
Q 28.421875 43.953125 25.203125 43.953125 
Q 22.3125 43.953125 20.015625 42.21875 
Q 17.71875 40.484375 16.75 37.40625 
Q 15.28125 32.71875 15.28125 27.15625 
L 15.28125 0 
z
" id="ArialMT-114"/>
      <path d="M 6.640625 61.46875 
L 6.640625 71.578125 
L 15.4375 71.578125 
L 15.4375 61.46875 
z
M 6.640625 0 
L 6.640625 51.859375 
L 15.4375 51.859375 
L 15.4375 0 
z
" id="ArialMT-105"/>
      <path d="M 40.4375 6.390625 
Q 35.546875 2.25 31.03125 0.53125 
Q 26.515625 -1.171875 21.34375 -1.171875 
Q 12.796875 -1.171875 8.203125 3 
Q 3.609375 7.171875 3.609375 13.671875 
Q 3.609375 17.484375 5.34375 20.625 
Q 7.078125 23.78125 9.890625 25.6875 
Q 12.703125 27.59375 16.21875 28.5625 
Q 18.796875 29.25 24.03125 29.890625 
Q 34.671875 31.15625 39.703125 32.90625 
Q 39.75 34.71875 39.75 35.203125 
Q 39.75 40.578125 37.25 42.78125 
Q 33.890625 45.75 27.25 45.75 
Q 21.046875 45.75 18.09375 43.578125 
Q 15.140625 41.40625 13.71875 35.890625 
L 5.125 37.0625 
Q 6.296875 42.578125 8.984375 45.96875 
Q 11.671875 49.359375 16.75 51.1875 
Q 21.828125 53.03125 28.515625 53.03125 
Q 35.15625 53.03125 39.296875 51.46875 
Q 43.453125 49.90625 45.40625 47.53125 
Q 47.359375 45.171875 48.140625 41.546875 
Q 48.578125 39.3125 48.578125 33.453125 
L 48.578125 21.734375 
Q 48.578125 9.46875 49.140625 6.21875 
Q 49.703125 2.984375 51.375 0 
L 42.1875 0 
Q 40.828125 2.734375 40.4375 6.390625 
z
M 39.703125 26.03125 
Q 34.90625 24.078125 25.34375 22.703125 
Q 19.921875 21.921875 17.671875 20.9375 
Q 15.4375 19.96875 14.203125 18.09375 
Q 12.984375 16.21875 12.984375 13.921875 
Q 12.984375 10.40625 15.640625 8.0625 
Q 18.3125 5.71875 23.4375 5.71875 
Q 28.515625 5.71875 32.46875 7.9375 
Q 36.421875 10.15625 38.28125 14.015625 
Q 39.703125 17 39.703125 22.796875 
z
" id="ArialMT-97"/>
      <path d="M 6.390625 0 
L 6.390625 71.578125 
L 15.1875 71.578125 
L 15.1875 0 
z
" id="ArialMT-108"/>
      <path id="ArialMT-32"/>
      <path d="M 7.625 0 
L 7.625 71.578125 
L 17.328125 71.578125 
L 54.9375 15.375 
L 54.9375 71.578125 
L 64.015625 71.578125 
L 64.015625 0 
L 54.296875 0 
L 16.703125 56.25 
L 16.703125 0 
z
" id="ArialMT-78"/>
      <path d="M 40.578125 0 
L 40.578125 7.625 
Q 34.515625 -1.171875 24.125 -1.171875 
Q 19.53125 -1.171875 15.546875 0.578125 
Q 11.578125 2.34375 9.640625 5 
Q 7.71875 7.671875 6.9375 11.53125 
Q 6.390625 14.109375 6.390625 19.734375 
L 6.390625 51.859375 
L 15.1875 51.859375 
L 15.1875 23.09375 
Q 15.1875 16.21875 15.71875 13.8125 
Q 16.546875 10.359375 19.234375 8.375 
Q 21.921875 6.390625 25.875 6.390625 
Q 29.828125 6.390625 33.296875 8.421875 
Q 36.765625 10.453125 38.203125 13.9375 
Q 39.65625 17.4375 39.65625 24.078125 
L 39.65625 51.859375 
L 48.4375 51.859375 
L 48.4375 0 
z
" id="ArialMT-117"/>
      <path d="M 6.59375 0 
L 6.59375 51.859375 
L 14.453125 51.859375 
L 14.453125 44.578125 
Q 16.890625 48.390625 20.9375 50.703125 
Q 25 53.03125 30.171875 53.03125 
Q 35.9375 53.03125 39.625 50.640625 
Q 43.3125 48.25 44.828125 43.953125 
Q 50.984375 53.03125 60.84375 53.03125 
Q 68.5625 53.03125 72.703125 48.75 
Q 76.859375 44.484375 76.859375 35.59375 
L 76.859375 0 
L 68.109375 0 
L 68.109375 32.671875 
Q 68.109375 37.9375 67.25 40.25 
Q 66.40625 42.578125 64.15625 43.984375 
Q 61.921875 45.40625 58.890625 45.40625 
Q 53.421875 45.40625 49.796875 41.765625 
Q 46.1875 38.140625 46.1875 30.125 
L 46.1875 0 
L 37.40625 0 
L 37.40625 33.6875 
Q 37.40625 39.546875 35.25 42.46875 
Q 33.109375 45.40625 28.21875 45.40625 
Q 24.515625 45.40625 21.359375 43.453125 
Q 18.21875 41.5 16.796875 37.734375 
Q 15.375 33.984375 15.375 26.90625 
L 15.375 0 
z
" id="ArialMT-109"/>
      <path d="M 14.703125 0 
L 6.546875 0 
L 6.546875 71.578125 
L 15.328125 71.578125 
L 15.328125 46.046875 
Q 20.90625 53.03125 29.546875 53.03125 
Q 34.328125 53.03125 38.59375 51.09375 
Q 42.875 49.171875 45.625 45.671875 
Q 48.390625 42.1875 49.953125 37.25 
Q 51.515625 32.328125 51.515625 26.703125 
Q 51.515625 13.375 44.921875 6.09375 
Q 38.328125 -1.171875 29.109375 -1.171875 
Q 19.921875 -1.171875 14.703125 6.5 
z
M 14.59375 26.3125 
Q 14.59375 17 17.140625 12.84375 
Q 21.296875 6.0625 28.375 6.0625 
Q 34.125 6.0625 38.328125 11.0625 
Q 42.53125 16.0625 42.53125 25.984375 
Q 42.53125 36.140625 38.5 40.96875 
Q 34.46875 45.796875 28.765625 45.796875 
Q 23 45.796875 18.796875 40.796875 
Q 14.59375 35.796875 14.59375 26.3125 
z
" id="ArialMT-98"/>
      <path d="M 42.09375 16.703125 
L 51.171875 15.578125 
Q 49.03125 7.625 43.21875 3.21875 
Q 37.40625 -1.171875 28.375 -1.171875 
Q 17 -1.171875 10.328125 5.828125 
Q 3.65625 12.84375 3.65625 25.484375 
Q 3.65625 38.578125 10.390625 45.796875 
Q 17.140625 53.03125 27.875 53.03125 
Q 38.28125 53.03125 44.875 45.953125 
Q 51.46875 38.875 51.46875 26.03125 
Q 51.46875 25.25 51.421875 23.6875 
L 12.75 23.6875 
Q 13.234375 15.140625 17.578125 10.59375 
Q 21.921875 6.0625 28.421875 6.0625 
Q 33.25 6.0625 36.671875 8.59375 
Q 40.09375 11.140625 42.09375 16.703125 
z
M 13.234375 30.90625 
L 42.1875 30.90625 
Q 41.609375 37.453125 38.875 40.71875 
Q 34.671875 45.796875 27.984375 45.796875 
Q 21.921875 45.796875 17.796875 41.75 
Q 13.671875 37.703125 13.234375 30.90625 
z
" id="ArialMT-101"/>
     </defs>
     <g style="fill:#262626;" transform="translate(322.77625 413.926875)scale(0.16 -0.16)">
      <use xlink:href="#ArialMT-84"/>
      <use x="61.037109" xlink:href="#ArialMT-114"/>
      <use x="94.337891" xlink:href="#ArialMT-105"/>
      <use x="116.554688" xlink:href="#ArialMT-97"/>
      <use x="172.169922" xlink:href="#ArialMT-108"/>
      <use x="194.386719" xlink:href="#ArialMT-32"/>
      <use x="222.169922" xlink:href="#ArialMT-78"/>
      <use x="294.386719" xlink:href="#ArialMT-117"/>
      <use x="350.001953" xlink:href="#ArialMT-109"/>
      <use x="433.302734" xlink:href="#ArialMT-98"/>
      <use x="488.917969" xlink:href="#ArialMT-101"/>
      <use x="544.533203" xlink:href="#ArialMT-114"/>
     </g>
    </g>
   </g>
   <g id="matplotlib.axis_2">
    <g id="ytick_1">
     <g id="line2d_6">
      <defs>
       <path d="M 0 0 
L -6 0 
" id="m8ffa4236c4" style="stroke:#262626;stroke-width:1.25;"/>
      </defs>
      <g>
       <use style="fill:#262626;stroke:#262626;stroke-width:1.25;" x="90" xlink:href="#m8ffa4236c4" y="378"/>
      </g>
     </g>
     <g id="text_7">
      <!-- −0.2 -->
      <defs>
       <path d="M 52.828125 31.203125 
L 5.5625 31.203125 
L 5.5625 39.40625 
L 52.828125 39.40625 
z
" id="ArialMT-8722"/>
       <path d="M 9.078125 0 
L 9.078125 10.015625 
L 19.09375 10.015625 
L 19.09375 0 
z
" id="ArialMT-46"/>
      </defs>
      <g style="fill:#262626;" transform="translate(56.81125 382.294688)scale(0.12 -0.12)">
       <use xlink:href="#ArialMT-8722"/>
       <use x="58.398438" xlink:href="#ArialMT-48"/>
       <use x="114.013672" xlink:href="#ArialMT-46"/>
       <use x="141.796875" xlink:href="#ArialMT-50"/>
      </g>
     </g>
    </g>
    <g id="ytick_2">
     <g id="line2d_7">
      <g>
       <use style="fill:#262626;stroke:#262626;stroke-width:1.25;" x="90" xlink:href="#m8ffa4236c4" y="312.768"/>
      </g>
     </g>
     <g id="text_8">
      <!-- 0.0 -->
      <g style="fill:#262626;" transform="translate(63.82 317.062687)scale(0.12 -0.12)">
       <use xlink:href="#ArialMT-48"/>
       <use x="55.615234" xlink:href="#ArialMT-46"/>
       <use x="83.398438" xlink:href="#ArialMT-48"/>
      </g>
     </g>
    </g>
    <g id="ytick_3">
     <g id="line2d_8">
      <g>
       <use style="fill:#262626;stroke:#262626;stroke-width:1.25;" x="90" xlink:href="#m8ffa4236c4" y="247.536"/>
      </g>
     </g>
     <g id="text_9">
      <!-- 0.2 -->
      <g style="fill:#262626;" transform="translate(63.82 251.830687)scale(0.12 -0.12)">
       <use xlink:href="#ArialMT-48"/>
       <use x="55.615234" xlink:href="#ArialMT-46"/>
       <use x="83.398438" xlink:href="#ArialMT-50"/>
      </g>
     </g>
    </g>
    <g id="ytick_4">
     <g id="line2d_9">
      <g>
       <use style="fill:#262626;stroke:#262626;stroke-width:1.25;" x="90" xlink:href="#m8ffa4236c4" y="182.304"/>
      </g>
     </g>
     <g id="text_10">
      <!-- 0.4 -->
      <g style="fill:#262626;" transform="translate(63.82 186.598687)scale(0.12 -0.12)">
       <use xlink:href="#ArialMT-48"/>
       <use x="55.615234" xlink:href="#ArialMT-46"/>
       <use x="83.398438" xlink:href="#ArialMT-52"/>
      </g>
     </g>
    </g>
    <g id="ytick_5">
     <g id="line2d_10">
      <g>
       <use style="fill:#262626;stroke:#262626;stroke-width:1.25;" x="90" xlink:href="#m8ffa4236c4" y="117.072"/>
      </g>
     </g>
     <g id="text_11">
      <!-- 0.6 -->
      <g style="fill:#262626;" transform="translate(63.82 121.366687)scale(0.12 -0.12)">
       <use xlink:href="#ArialMT-48"/>
       <use x="55.615234" xlink:href="#ArialMT-46"/>
       <use x="83.398438" xlink:href="#ArialMT-54"/>
      </g>
     </g>
    </g>
    <g id="ytick_6">
     <g id="line2d_11">
      <g>
       <use style="fill:#262626;stroke:#262626;stroke-width:1.25;" x="90" xlink:href="#m8ffa4236c4" y="51.84"/>
      </g>
     </g>
     <g id="text_12">
      <!-- 0.8 -->
      <g style="fill:#262626;" transform="translate(63.82 56.134687)scale(0.12 -0.12)">
       <use xlink:href="#ArialMT-48"/>
       <use x="55.615234" xlink:href="#ArialMT-46"/>
       <use x="83.398438" xlink:href="#ArialMT-56"/>
      </g>
     </g>
    </g>
    <g id="text_13">
     <!-- Weight -->
     <defs>
      <path d="M 20.21875 0 
L 1.21875 71.578125 
L 10.9375 71.578125 
L 21.828125 24.65625 
Q 23.578125 17.28125 24.859375 10.015625 
Q 27.59375 21.484375 28.078125 23.25 
L 41.703125 71.578125 
L 53.125 71.578125 
L 63.375 35.359375 
Q 67.234375 21.875 68.953125 10.015625 
Q 70.3125 16.796875 72.515625 25.59375 
L 83.734375 71.578125 
L 93.265625 71.578125 
L 73.640625 0 
L 64.5 0 
L 49.421875 54.546875 
Q 47.515625 61.375 47.171875 62.9375 
Q 46.046875 58.015625 45.0625 54.546875 
L 29.890625 0 
z
" id="ArialMT-87"/>
      <path d="M 4.984375 -4.296875 
L 13.53125 -5.5625 
Q 14.0625 -9.515625 16.5 -11.328125 
Q 19.78125 -13.765625 25.4375 -13.765625 
Q 31.546875 -13.765625 34.859375 -11.328125 
Q 38.1875 -8.890625 39.359375 -4.5 
Q 40.046875 -1.8125 39.984375 6.78125 
Q 34.234375 0 25.640625 0 
Q 14.9375 0 9.078125 7.71875 
Q 3.21875 15.4375 3.21875 26.21875 
Q 3.21875 33.640625 5.90625 39.90625 
Q 8.59375 46.1875 13.6875 49.609375 
Q 18.796875 53.03125 25.6875 53.03125 
Q 34.859375 53.03125 40.828125 45.609375 
L 40.828125 51.859375 
L 48.921875 51.859375 
L 48.921875 7.03125 
Q 48.921875 -5.078125 46.453125 -10.125 
Q 44 -15.1875 38.640625 -18.109375 
Q 33.296875 -21.046875 25.484375 -21.046875 
Q 16.21875 -21.046875 10.5 -16.875 
Q 4.78125 -12.703125 4.984375 -4.296875 
z
M 12.25 26.859375 
Q 12.25 16.65625 16.296875 11.96875 
Q 20.359375 7.28125 26.46875 7.28125 
Q 32.515625 7.28125 36.609375 11.9375 
Q 40.71875 16.609375 40.71875 26.5625 
Q 40.71875 36.078125 36.5 40.90625 
Q 32.28125 45.75 26.3125 45.75 
Q 20.453125 45.75 16.34375 40.984375 
Q 12.25 36.234375 12.25 26.859375 
z
" id="ArialMT-103"/>
      <path d="M 6.59375 0 
L 6.59375 71.578125 
L 15.375 71.578125 
L 15.375 45.90625 
Q 21.53125 53.03125 30.90625 53.03125 
Q 36.671875 53.03125 40.921875 50.75 
Q 45.171875 48.484375 47 44.484375 
Q 48.828125 40.484375 48.828125 32.859375 
L 48.828125 0 
L 40.046875 0 
L 40.046875 32.859375 
Q 40.046875 39.453125 37.1875 42.453125 
Q 34.328125 45.453125 29.109375 45.453125 
Q 25.203125 45.453125 21.75 43.421875 
Q 18.3125 41.40625 16.84375 37.9375 
Q 15.375 34.46875 15.375 28.375 
L 15.375 0 
z
" id="ArialMT-104"/>
      <path d="M 25.78125 7.859375 
L 27.046875 0.09375 
Q 23.34375 -0.6875 20.40625 -0.6875 
Q 15.625 -0.6875 12.984375 0.828125 
Q 10.359375 2.34375 9.28125 4.8125 
Q 8.203125 7.28125 8.203125 15.1875 
L 8.203125 45.015625 
L 1.765625 45.015625 
L 1.765625 51.859375 
L 8.203125 51.859375 
L 8.203125 64.703125 
L 16.9375 69.96875 
L 16.9375 51.859375 
L 25.78125 51.859375 
L 25.78125 45.015625 
L 16.9375 45.015625 
L 16.9375 14.703125 
Q 16.9375 10.9375 17.40625 9.859375 
Q 17.875 8.796875 18.921875 8.15625 
Q 19.96875 7.515625 21.921875 7.515625 
Q 23.390625 7.515625 25.78125 7.859375 
z
" id="ArialMT-116"/>
     </defs>
     <g style="fill:#262626;" transform="translate(49.44375 239.81625)rotate(-90)scale(0.16 -0.16)">
      <use xlink:href="#ArialMT-87"/>
      <use x="94.369141" xlink:href="#ArialMT-101"/>
      <use x="149.984375" xlink:href="#ArialMT-105"/>
      <use x="172.201172" xlink:href="#ArialMT-103"/>
      <use x="227.816406" xlink:href="#ArialMT-104"/>
      <use x="283.431641" xlink:href="#ArialMT-116"/>
     </g>
    </g>
   </g>
   <g id="PolyCollection_1">
    <defs>
     <path d="M 90 -205.153948 
L 90 -156.933481 
L 96.975 -160.479209 
L 103.95 -133.267236 
L 110.925 -134.717536 
L 117.9 -127.819163 
L 124.875 -125.919064 
L 131.85 -123.425567 
L 138.825 -116.75387 
L 145.8 -113.429901 
L 152.775 -122.447058 
L 159.75 -108.747151 
L 166.725 -110.637668 
L 173.7 -115.03702 
L 180.675 -115.593724 
L 187.65 -113.058351 
L 194.625 -113.478875 
L 201.6 -115.954362 
L 208.575 -123.065385 
L 215.55 -127.456341 
L 222.525 -126.637326 
L 229.5 -114.177085 
L 236.475 -111.842604 
L 243.45 -134.339383 
L 250.425 -130.724027 
L 257.4 -127.984121 
L 264.375 -136.96564 
L 271.35 -141.23521 
L 278.325 -136.497505 
L 285.3 -131.948175 
L 292.275 -124.380455 
L 299.25 -110.581007 
L 306.225 -110.428378 
L 313.2 -114.050691 
L 320.175 -114.901934 
L 327.15 -119.929548 
L 334.125 -118.86284 
L 341.1 -127.004465 
L 348.075 -113.270188 
L 355.05 -115.751569 
L 362.025 -122.139082 
L 369 -120.248977 
L 375.975 -117.568468 
L 382.95 -117.902744 
L 389.925 -104.51121 
L 396.9 -118.295986 
L 403.875 -112.144953 
L 410.85 -117.642837 
L 417.825 -113.348246 
L 424.8 -106.921263 
L 431.775 -110.149551 
L 438.75 -111.356202 
L 445.725 -110.874681 
L 452.7 -114.364313 
L 459.675 -99.370108 
L 466.65 -104.000584 
L 473.625 -98.498041 
L 480.6 -97.982468 
L 487.575 -114.400429 
L 494.55 -114.038213 
L 501.525 -112.422718 
L 508.5 -113.207121 
L 515.475 -115.338648 
L 522.45 -107.458755 
L 529.425 -120.081998 
L 536.4 -117.291308 
L 543.375 -122.390032 
L 550.35 -109.960091 
L 557.325 -123.036535 
L 564.3 -124.443015 
L 571.275 -120.663929 
L 578.25 -119.643748 
L 585.225 -122.971968 
L 592.2 -123.827841 
L 599.175 -123.607446 
L 606.15 -123.125222 
L 613.125 -121.397631 
L 620.1 -122.42238 
L 627.075 -121.574925 
L 634.05 -122.579033 
L 641.025 -119.927622 
L 641.025 -139.910249 
L 641.025 -139.910249 
L 634.05 -135.374708 
L 627.075 -129.199181 
L 620.1 -138.877514 
L 613.125 -140.14693 
L 606.15 -144.214453 
L 599.175 -139.199028 
L 592.2 -138.801136 
L 585.225 -144.198746 
L 578.25 -128.800942 
L 571.275 -125.478862 
L 564.3 -135.492089 
L 557.325 -137.621766 
L 550.35 -138.641651 
L 543.375 -140.588815 
L 536.4 -138.484701 
L 529.425 -138.015469 
L 522.45 -137.598122 
L 515.475 -125.354464 
L 508.5 -126.892362 
L 501.525 -127.479793 
L 494.55 -127.664003 
L 487.575 -137.054294 
L 480.6 -131.812804 
L 473.625 -140.219507 
L 466.65 -137.21497 
L 459.675 -137.497895 
L 452.7 -134.853775 
L 445.725 -133.856343 
L 438.75 -153.2637 
L 431.775 -150.76529 
L 424.8 -138.546155 
L 417.825 -133.61565 
L 410.85 -130.288097 
L 403.875 -134.403557 
L 396.9 -128.224961 
L 389.925 -132.84384 
L 382.95 -136.704054 
L 375.975 -137.008801 
L 369 -140.782423 
L 362.025 -140.270554 
L 355.05 -140.399038 
L 348.075 -139.430429 
L 341.1 -148.812032 
L 334.125 -144.456651 
L 327.15 -136.200403 
L 320.175 -146.401596 
L 313.2 -150.414213 
L 306.225 -163.215916 
L 299.25 -158.513597 
L 292.275 -171.99062 
L 285.3 -182.130671 
L 278.325 -175.805316 
L 271.35 -175.651937 
L 264.375 -168.481853 
L 257.4 -143.137089 
L 250.425 -151.628187 
L 243.45 -148.832035 
L 236.475 -154.640305 
L 229.5 -165.800386 
L 222.525 -168.652445 
L 215.55 -165.360207 
L 208.575 -172.291059 
L 201.6 -169.125592 
L 194.625 -172.634184 
L 187.65 -169.546438 
L 180.675 -196.754381 
L 173.7 -185.832302 
L 166.725 -187.504159 
L 159.75 -187.341346 
L 152.775 -182.147241 
L 145.8 -174.301141 
L 138.825 -181.267574 
L 131.85 -175.243529 
L 124.875 -179.138274 
L 117.9 -182.841753 
L 110.925 -187.938127 
L 103.95 -203.425846 
L 96.975 -191.962368 
L 90 -205.153948 
z
" id="m48566e5bc8" style="stroke:#a0a0a0;stroke-opacity:0.2;"/>
    </defs>
    <g clip-path="url(#p7db59ca45a)">
     <use style="fill:#a0a0a0;fill-opacity:0.2;stroke:#a0a0a0;stroke-opacity:0.2;" x="0" xlink:href="#m48566e5bc8" y="432"/>
    </g>
   </g>
   <g id="PolyCollection_2">
    <defs>
     <path d="M 90 -152.110339 
L 90 -107.66932 
L 96.975 -121.602576 
L 103.95 -139.460924 
L 110.925 -125.902802 
L 117.9 -119.069181 
L 124.875 -106.950536 
L 131.85 -105.28432 
L 138.825 -101.517023 
L 145.8 -88.245944 
L 152.775 -100.87256 
L 159.75 -90.542906 
L 166.725 -98.749542 
L 173.7 -115.820318 
L 180.675 -108.919043 
L 187.65 -135.816808 
L 194.625 -124.324925 
L 201.6 -123.906223 
L 208.575 -123.949153 
L 215.55 -124.12479 
L 222.525 -128.676365 
L 229.5 -133.641739 
L 236.475 -119.413583 
L 243.45 -128.218887 
L 250.425 -124.061262 
L 257.4 -131.730643 
L 264.375 -134.058969 
L 271.35 -130.721044 
L 278.325 -133.187176 
L 285.3 -126.086453 
L 292.275 -131.096111 
L 299.25 -131.484257 
L 306.225 -140.292684 
L 313.2 -144.210105 
L 320.175 -138.834416 
L 327.15 -126.083155 
L 334.125 -120.624124 
L 341.1 -125.897756 
L 348.075 -135.142201 
L 355.05 -141.282753 
L 362.025 -146.279442 
L 369 -138.553753 
L 375.975 -136.3367 
L 382.95 -115.460382 
L 389.925 -112.820829 
L 396.9 -126.07404 
L 403.875 -137.583134 
L 410.85 -135.017489 
L 417.825 -133.64874 
L 424.8 -137.786715 
L 431.775 -131.616708 
L 438.75 -123.296462 
L 445.725 -116.056261 
L 452.7 -122.96901 
L 459.675 -123.475463 
L 466.65 -121.641927 
L 473.625 -116.479696 
L 480.6 -117.929924 
L 487.575 -118.915651 
L 494.55 -108.417945 
L 501.525 -103.976191 
L 508.5 -105.664476 
L 515.475 -111.800742 
L 522.45 -107.506718 
L 529.425 -106.848442 
L 536.4 -117.521486 
L 543.375 -113.383203 
L 550.35 -111.632403 
L 557.325 -111.598288 
L 564.3 -110.718411 
L 571.275 -112.968714 
L 578.25 -114.010163 
L 585.225 -100.225372 
L 592.2 -95.074704 
L 599.175 -97.058976 
L 606.15 -102.867224 
L 613.125 -94.857572 
L 620.1 -95.784679 
L 627.075 -98.179806 
L 634.05 -106.057801 
L 641.025 -108.223825 
L 641.025 -150.430691 
L 641.025 -150.430691 
L 634.05 -145.953972 
L 627.075 -132.689129 
L 620.1 -132.174448 
L 613.125 -132.624921 
L 606.15 -133.379349 
L 599.175 -130.760721 
L 592.2 -132.42997 
L 585.225 -132.411831 
L 578.25 -134.340722 
L 571.275 -133.471012 
L 564.3 -132.263453 
L 557.325 -130.142484 
L 550.35 -146.995979 
L 543.375 -149.796775 
L 536.4 -150.698196 
L 529.425 -147.979454 
L 522.45 -143.794882 
L 515.475 -146.925885 
L 508.5 -149.437018 
L 501.525 -147.729322 
L 494.55 -149.283078 
L 487.575 -149.618452 
L 480.6 -149.483988 
L 473.625 -150.625518 
L 466.65 -150.003189 
L 459.675 -150.611576 
L 452.7 -146.121807 
L 445.725 -142.581011 
L 438.75 -142.860388 
L 431.775 -148.35024 
L 424.8 -154.560167 
L 417.825 -151.914118 
L 410.85 -149.84488 
L 403.875 -152.141673 
L 396.9 -151.336635 
L 389.925 -166.178232 
L 382.95 -170.33051 
L 375.975 -160.166724 
L 369 -160.144016 
L 362.025 -160.971132 
L 355.05 -155.564608 
L 348.075 -162.076837 
L 341.1 -159.204721 
L 334.125 -146.456267 
L 327.15 -153.273514 
L 320.175 -159.68712 
L 313.2 -170.843063 
L 306.225 -185.333993 
L 299.25 -190.689519 
L 292.275 -168.659149 
L 285.3 -170.366533 
L 278.325 -172.33886 
L 271.35 -169.138806 
L 264.375 -177.375858 
L 257.4 -174.409454 
L 250.425 -175.36515 
L 243.45 -178.461757 
L 236.475 -170.456546 
L 229.5 -176.121479 
L 222.525 -175.061009 
L 215.55 -181.374539 
L 208.575 -182.219941 
L 201.6 -181.94908 
L 194.625 -188.668654 
L 187.65 -178.579085 
L 180.675 -170.76046 
L 173.7 -168.256695 
L 166.725 -157.489924 
L 159.75 -152.489364 
L 152.775 -159.959862 
L 145.8 -154.240705 
L 138.825 -139.563124 
L 131.85 -152.838035 
L 124.875 -140.568896 
L 117.9 -131.495559 
L 110.925 -144.374521 
L 103.95 -152.122902 
L 96.975 -154.131787 
L 90 -152.110339 
z
" id="maf284e4462" style="stroke:#a0a0a0;stroke-opacity:0.2;"/>
    </defs>
    <g clip-path="url(#p7db59ca45a)">
     <use style="fill:#a0a0a0;fill-opacity:0.2;stroke:#a0a0a0;stroke-opacity:0.2;" x="0" xlink:href="#maf284e4462" y="432"/>
    </g>
   </g>
   <g id="PolyCollection_3">
    <defs>
     <path d="M 90 -210.218651 
L 90 -176.526002 
L 96.975 -178.372395 
L 103.95 -169.625092 
L 110.925 -188.356275 
L 117.9 -193.337115 
L 124.875 -174.004704 
L 131.85 -182.999034 
L 138.825 -192.664875 
L 145.8 -180.451797 
L 152.775 -186.837111 
L 159.75 -201.495922 
L 166.725 -205.395377 
L 173.7 -198.917686 
L 180.675 -195.168678 
L 187.65 -202.031668 
L 194.625 -213.287548 
L 201.6 -211.249446 
L 208.575 -208.368648 
L 215.55 -207.659951 
L 222.525 -211.225971 
L 229.5 -204.436237 
L 236.475 -204.234794 
L 243.45 -199.690584 
L 250.425 -195.783777 
L 257.4 -205.558634 
L 264.375 -209.225979 
L 271.35 -212.893738 
L 278.325 -218.13559 
L 285.3 -212.119985 
L 292.275 -209.660365 
L 299.25 -190.938588 
L 306.225 -191.510381 
L 313.2 -186.468844 
L 320.175 -189.355795 
L 327.15 -201.376227 
L 334.125 -204.37818 
L 341.1 -207.821091 
L 348.075 -215.586417 
L 355.05 -216.391912 
L 362.025 -215.883472 
L 369 -213.99456 
L 375.975 -214.751163 
L 382.95 -207.716635 
L 389.925 -210.089735 
L 396.9 -197.843064 
L 403.875 -191.93004 
L 410.85 -195.588664 
L 417.825 -186.008622 
L 424.8 -190.359791 
L 431.775 -183.743682 
L 438.75 -180.638219 
L 445.725 -183.546624 
L 452.7 -190.347256 
L 459.675 -194.726863 
L 466.65 -188.513767 
L 473.625 -188.55952 
L 480.6 -188.375924 
L 487.575 -186.082061 
L 494.55 -191.38469 
L 501.525 -189.787744 
L 508.5 -191.944384 
L 515.475 -194.789386 
L 522.45 -212.580212 
L 529.425 -213.591918 
L 536.4 -220.07979 
L 543.375 -220.050798 
L 550.35 -215.601114 
L 557.325 -211.291732 
L 564.3 -210.185336 
L 571.275 -212.921676 
L 578.25 -211.456349 
L 585.225 -211.982841 
L 592.2 -202.655493 
L 599.175 -198.628511 
L 606.15 -199.602651 
L 613.125 -208.095115 
L 620.1 -211.314791 
L 627.075 -214.259568 
L 634.05 -224.145873 
L 641.025 -224.767238 
L 641.025 -244.450351 
L 641.025 -244.450351 
L 634.05 -235.517667 
L 627.075 -233.398951 
L 620.1 -231.727224 
L 613.125 -228.965031 
L 606.15 -236.72847 
L 599.175 -233.041407 
L 592.2 -228.394326 
L 585.225 -224.852207 
L 578.25 -225.373599 
L 571.275 -224.247117 
L 564.3 -229.510889 
L 557.325 -241.626288 
L 550.35 -228.115666 
L 543.375 -230.097333 
L 536.4 -235.01681 
L 529.425 -223.290573 
L 522.45 -225.669957 
L 515.475 -228.81813 
L 508.5 -230.709892 
L 501.525 -226.919854 
L 494.55 -229.581126 
L 487.575 -233.183263 
L 480.6 -233.668647 
L 473.625 -238.264101 
L 466.65 -237.249841 
L 459.675 -236.263218 
L 452.7 -241.604309 
L 445.725 -238.934997 
L 438.75 -241.284047 
L 431.775 -238.680639 
L 424.8 -235.913716 
L 417.825 -240.930987 
L 410.85 -242.373505 
L 403.875 -240.712595 
L 396.9 -238.250702 
L 389.925 -238.303646 
L 382.95 -227.746315 
L 375.975 -233.282344 
L 369 -233.709519 
L 362.025 -232.190027 
L 355.05 -233.204054 
L 348.075 -243.080105 
L 341.1 -244.238943 
L 334.125 -233.947849 
L 327.15 -233.025992 
L 320.175 -235.912188 
L 313.2 -240.817347 
L 306.225 -233.275085 
L 299.25 -234.093246 
L 292.275 -237.887484 
L 285.3 -243.236477 
L 278.325 -244.819231 
L 271.35 -246.081473 
L 264.375 -252.173656 
L 257.4 -246.156405 
L 250.425 -238.453005 
L 243.45 -246.345616 
L 236.475 -245.32545 
L 229.5 -239.931391 
L 222.525 -242.801042 
L 215.55 -241.722921 
L 208.575 -242.871627 
L 201.6 -250.820654 
L 194.625 -249.031687 
L 187.65 -240.904474 
L 180.675 -257.263001 
L 173.7 -263.417917 
L 166.725 -276.171988 
L 159.75 -277.521346 
L 152.775 -264.954767 
L 145.8 -274.986025 
L 138.825 -266.143187 
L 131.85 -252.67969 
L 124.875 -264.792872 
L 117.9 -264.145065 
L 110.925 -257.614051 
L 103.95 -251.438415 
L 96.975 -216.153384 
L 90 -210.218651 
z
" id="m70f6e7d66b" style="stroke:#4c72b0;stroke-opacity:0.2;"/>
    </defs>
    <g clip-path="url(#p7db59ca45a)">
     <use style="fill:#4c72b0;fill-opacity:0.2;stroke:#4c72b0;stroke-opacity:0.2;" x="0" xlink:href="#m70f6e7d66b" y="432"/>
    </g>
   </g>
   <g id="PolyCollection_4">
    <defs>
     <path d="M 90 -272.269972 
L 90 -174.154722 
L 96.975 -171.12607 
L 103.95 -187.463733 
L 110.925 -204.424422 
L 117.9 -215.393732 
L 124.875 -206.703732 
L 131.85 -215.106485 
L 138.825 -226.742033 
L 145.8 -212.872537 
L 152.775 -210.34331 
L 159.75 -211.974667 
L 166.725 -208.84518 
L 173.7 -185.669821 
L 180.675 -176.322456 
L 187.65 -185.565293 
L 194.625 -194.739773 
L 201.6 -198.820432 
L 208.575 -206.461967 
L 215.55 -209.104753 
L 222.525 -213.035729 
L 229.5 -204.661212 
L 236.475 -203.559984 
L 243.45 -187.104296 
L 250.425 -174.935255 
L 257.4 -153.036046 
L 264.375 -153.488932 
L 271.35 -153.116655 
L 278.325 -156.591658 
L 285.3 -158.961841 
L 292.275 -151.392984 
L 299.25 -158.281601 
L 306.225 -160.397503 
L 313.2 -166.925023 
L 320.175 -168.0714 
L 327.15 -170.558401 
L 334.125 -179.362203 
L 341.1 -177.82358 
L 348.075 -160.155774 
L 355.05 -164.945069 
L 362.025 -149.35211 
L 369 -167.231275 
L 375.975 -171.925777 
L 382.95 -190.321523 
L 389.925 -201.73651 
L 396.9 -190.737213 
L 403.875 -189.260727 
L 410.85 -192.404448 
L 417.825 -190.055249 
L 424.8 -178.481148 
L 431.775 -174.645161 
L 438.75 -176.707569 
L 445.725 -178.659343 
L 452.7 -183.604954 
L 459.675 -186.186243 
L 466.65 -192.157844 
L 473.625 -189.183701 
L 480.6 -183.459686 
L 487.575 -184.926208 
L 494.55 -178.56452 
L 501.525 -178.717424 
L 508.5 -181.258122 
L 515.475 -179.825978 
L 522.45 -191.029851 
L 529.425 -199.553951 
L 536.4 -208.911131 
L 543.375 -206.66032 
L 550.35 -209.102171 
L 557.325 -211.200617 
L 564.3 -213.730126 
L 571.275 -211.73222 
L 578.25 -219.144507 
L 585.225 -217.277098 
L 592.2 -215.577496 
L 599.175 -216.155648 
L 606.15 -213.364905 
L 613.125 -205.964859 
L 620.1 -205.671867 
L 627.075 -197.069889 
L 634.05 -195.905585 
L 641.025 -194.284331 
L 641.025 -257.639484 
L 641.025 -257.639484 
L 634.05 -255.094652 
L 627.075 -261.401883 
L 620.1 -259.362828 
L 613.125 -260.824493 
L 606.15 -271.017942 
L 599.175 -266.233426 
L 592.2 -269.675864 
L 585.225 -263.516844 
L 578.25 -258.993799 
L 571.275 -263.197118 
L 564.3 -265.973176 
L 557.325 -259.907024 
L 550.35 -251.402992 
L 543.375 -256.916039 
L 536.4 -260.976964 
L 529.425 -262.218102 
L 522.45 -262.749957 
L 515.475 -258.123468 
L 508.5 -245.154873 
L 501.525 -244.214639 
L 494.55 -245.491417 
L 487.575 -262.427422 
L 480.6 -251.247334 
L 473.625 -257.784245 
L 466.65 -265.245124 
L 459.675 -265.816503 
L 452.7 -252.590293 
L 445.725 -265.562994 
L 438.75 -261.420841 
L 431.775 -263.576482 
L 424.8 -272.46184 
L 417.825 -267.539291 
L 410.85 -280.055667 
L 403.875 -277.647245 
L 396.9 -259.022516 
L 389.925 -263.446201 
L 382.95 -253.233405 
L 375.975 -262.008712 
L 369 -259.988973 
L 362.025 -261.307036 
L 355.05 -260.755854 
L 348.075 -250.056885 
L 341.1 -246.25079 
L 334.125 -249.219897 
L 327.15 -244.930928 
L 320.175 -255.776193 
L 313.2 -247.915848 
L 306.225 -245.606772 
L 299.25 -242.885306 
L 292.275 -241.87909 
L 285.3 -242.688929 
L 278.325 -237.751849 
L 271.35 -235.406881 
L 264.375 -242.187312 
L 257.4 -255.063027 
L 250.425 -251.637262 
L 243.45 -252.400426 
L 236.475 -266.151731 
L 229.5 -234.197045 
L 222.525 -237.865517 
L 215.55 -255.737652 
L 208.575 -262.306378 
L 201.6 -259.970734 
L 194.625 -264.939884 
L 187.65 -265.256678 
L 180.675 -255.998802 
L 173.7 -257.163591 
L 166.725 -253.783161 
L 159.75 -254.995814 
L 152.775 -260.632137 
L 145.8 -254.564323 
L 138.825 -273.924228 
L 131.85 -269.209111 
L 124.875 -268.441121 
L 117.9 -277.394067 
L 110.925 -278.826945 
L 103.95 -276.140444 
L 96.975 -260.25822 
L 90 -272.269972 
z
" id="m33d9377356" style="stroke:#dd8452;stroke-opacity:0.2;"/>
    </defs>
    <g clip-path="url(#p7db59ca45a)">
     <use style="fill:#dd8452;fill-opacity:0.2;stroke:#dd8452;stroke-opacity:0.2;" x="0" xlink:href="#m33d9377356" y="432"/>
    </g>
   </g>
   <g id="PolyCollection_5">
    <defs>
     <path d="M 90 -215.274962 
L 90 -149.162051 
L 96.975 -164.258194 
L 103.95 -163.443678 
L 110.925 -162.42272 
L 117.9 -164.25111 
L 124.875 -168.845965 
L 131.85 -169.138589 
L 138.825 -167.794165 
L 145.8 -175.039559 
L 152.775 -174.670192 
L 159.75 -165.856629 
L 166.725 -168.585615 
L 173.7 -158.88851 
L 180.675 -160.24066 
L 187.65 -154.246632 
L 194.625 -143.760507 
L 201.6 -139.251174 
L 208.575 -136.912089 
L 215.55 -133.058443 
L 222.525 -135.195243 
L 229.5 -132.805712 
L 236.475 -134.698422 
L 243.45 -137.970971 
L 250.425 -141.139953 
L 257.4 -141.669969 
L 264.375 -140.117603 
L 271.35 -142.825646 
L 278.325 -142.886588 
L 285.3 -143.626169 
L 292.275 -142.706673 
L 299.25 -150.590052 
L 306.225 -146.472328 
L 313.2 -155.130406 
L 320.175 -162.094778 
L 327.15 -163.977687 
L 334.125 -174.385271 
L 341.1 -165.232774 
L 348.075 -163.535948 
L 355.05 -184.525589 
L 362.025 -178.061477 
L 369 -184.795568 
L 375.975 -185.782806 
L 382.95 -183.221607 
L 389.925 -175.302057 
L 396.9 -178.385736 
L 403.875 -170.289399 
L 410.85 -176.358872 
L 417.825 -188.510261 
L 424.8 -188.903774 
L 431.775 -184.356506 
L 438.75 -180.52888 
L 445.725 -189.431424 
L 452.7 -186.262217 
L 459.675 -190.336369 
L 466.65 -181.877367 
L 473.625 -176.425487 
L 480.6 -169.020469 
L 487.575 -177.056868 
L 494.55 -177.789257 
L 501.525 -178.640654 
L 508.5 -178.175102 
L 515.475 -171.950685 
L 522.45 -170.374324 
L 529.425 -179.384899 
L 536.4 -179.925591 
L 543.375 -189.433507 
L 550.35 -193.253139 
L 557.325 -186.054443 
L 564.3 -188.398079 
L 571.275 -187.284922 
L 578.25 -180.885196 
L 585.225 -172.189289 
L 592.2 -179.078898 
L 599.175 -178.234107 
L 606.15 -177.347142 
L 613.125 -184.608871 
L 620.1 -186.2086 
L 627.075 -193.20014 
L 634.05 -187.714528 
L 641.025 -189.079263 
L 641.025 -224.870649 
L 641.025 -224.870649 
L 634.05 -226.827207 
L 627.075 -233.259188 
L 620.1 -237.671139 
L 613.125 -238.255344 
L 606.15 -239.293771 
L 599.175 -240.218477 
L 592.2 -238.011606 
L 585.225 -240.55073 
L 578.25 -236.021735 
L 571.275 -238.783013 
L 564.3 -231.168293 
L 557.325 -241.397531 
L 550.35 -229.007649 
L 543.375 -232.729768 
L 536.4 -235.639632 
L 529.425 -235.48037 
L 522.45 -234.893105 
L 515.475 -248.959381 
L 508.5 -249.377363 
L 501.525 -247.581907 
L 494.55 -253.046534 
L 487.575 -255.440683 
L 480.6 -254.760798 
L 473.625 -261.779109 
L 466.65 -263.409315 
L 459.675 -262.549035 
L 452.7 -267.795828 
L 445.725 -270.302839 
L 438.75 -262.252175 
L 431.775 -255.990766 
L 424.8 -261.494118 
L 417.825 -249.839062 
L 410.85 -250.258703 
L 403.875 -245.377677 
L 396.9 -254.102488 
L 389.925 -257.789375 
L 382.95 -254.030907 
L 375.975 -236.968736 
L 369 -228.40072 
L 362.025 -228.548975 
L 355.05 -225.968626 
L 348.075 -215.87783 
L 341.1 -219.596471 
L 334.125 -220.658253 
L 327.15 -213.748374 
L 320.175 -220.82442 
L 313.2 -212.188353 
L 306.225 -207.74234 
L 299.25 -204.515574 
L 292.275 -196.160441 
L 285.3 -199.745382 
L 278.325 -214.61396 
L 271.35 -207.285764 
L 264.375 -191.409148 
L 257.4 -196.981999 
L 250.425 -217.90873 
L 243.45 -218.455421 
L 236.475 -212.391578 
L 229.5 -212.575788 
L 222.525 -215.445885 
L 215.55 -212.105353 
L 208.575 -223.861544 
L 201.6 -232.131295 
L 194.625 -227.881662 
L 187.65 -228.22011 
L 180.675 -211.978564 
L 173.7 -215.348775 
L 166.725 -210.276025 
L 159.75 -206.003366 
L 152.775 -210.524432 
L 145.8 -200.02557 
L 138.825 -192.818242 
L 131.85 -194.479195 
L 124.875 -203.39272 
L 117.9 -200.928884 
L 110.925 -192.397081 
L 103.95 -204.52859 
L 96.975 -214.821715 
L 90 -215.274962 
z
" id="m95575954ef" style="stroke:#55a868;stroke-opacity:0.2;"/>
    </defs>
    <g clip-path="url(#p7db59ca45a)">
     <use style="fill:#55a868;fill-opacity:0.2;stroke:#55a868;stroke-opacity:0.2;" x="0" xlink:href="#m95575954ef" y="432"/>
    </g>
   </g>
   <g id="line2d_12">
    <path clip-path="url(#p7db59ca45a)" d="M 90 255.097089 
L 96.975 256.153978 
L 103.95 258.033119 
L 110.925 262.577157 
L 117.9 272.544314 
L 124.875 279.471331 
L 131.85 279.759942 
L 138.825 280.185757 
L 145.8 289.210077 
L 152.775 281.896703 
L 159.75 285.945468 
L 166.725 285.503977 
L 173.7 284.989877 
L 180.675 283.131981 
L 187.65 293.444295 
L 194.625 283.876077 
L 201.6 283.072283 
L 208.575 278.890171 
L 215.55 281.702317 
L 222.525 281.380071 
L 229.5 287.494898 
L 236.475 293.465788 
L 243.45 288.512286 
L 250.425 291.926774 
L 257.4 295.821958 
L 264.375 280.936244 
L 271.35 273.688868 
L 278.325 275.598991 
L 285.3 277.191881 
L 292.275 287.38872 
L 299.25 296.009433 
L 306.225 297.150614 
L 313.2 303.973397 
L 320.175 299.537473 
L 327.15 301.364231 
L 334.125 297.93886 
L 341.1 292.099252 
L 348.075 303.272627 
L 355.05 301.205606 
L 362.025 300.847145 
L 369 300.531857 
L 375.975 302.075673 
L 382.95 304.468891 
L 389.925 311.612613 
L 396.9 309.265977 
L 403.875 308.32506 
L 410.85 308.892072 
L 417.825 308.580773 
L 424.8 309.526218 
L 431.775 301.575592 
L 438.75 299.690049 
L 445.725 311.905659 
L 452.7 309.75802 
L 459.675 312.967944 
L 466.65 313.015645 
L 473.625 316.332186 
L 480.6 317.102364 
L 487.575 307.189967 
L 494.55 311.148892 
L 501.525 312.26895 
L 508.5 311.950258 
L 515.475 312.004071 
L 522.45 310.271611 
L 529.425 305.301307 
L 536.4 305.259617 
L 543.375 302.041664 
L 550.35 305.432356 
L 557.325 303.452619 
L 564.3 303.094188 
L 571.275 308.760206 
L 578.25 308.146427 
L 585.225 298.06449 
L 592.2 301.094061 
L 599.175 300.611222 
L 606.15 300.659309 
L 613.125 300.010837 
L 620.1 301.350053 
L 627.075 307.372694 
L 634.05 303.150677 
L 641.025 302.549113 
" style="fill:none;stroke:#a0a0a0;stroke-linecap:round;stroke-width:2.5;"/>
   </g>
   <g id="line2d_13">
    <path clip-path="url(#p7db59ca45a)" d="M 90 303.37087 
L 96.975 296.001065 
L 103.95 284.617144 
L 110.925 297.330933 
L 117.9 306.71763 
L 124.875 308.293281 
L 131.85 302.934298 
L 138.825 311.459927 
L 145.8 311.248317 
L 152.775 301.583789 
L 159.75 309.492159 
L 166.725 305.054621 
L 173.7 289.961494 
L 180.675 292.160249 
L 187.65 274.802053 
L 194.625 278.55716 
L 201.6 282.50563 
L 208.575 279.754766 
L 215.55 280.873786 
L 222.525 280.131313 
L 229.5 277.926586 
L 236.475 284.497886 
L 243.45 273.144686 
L 250.425 275.297108 
L 257.4 275.97928 
L 264.375 275.447951 
L 271.35 281.593502 
L 278.325 279.272577 
L 285.3 279.038943 
L 292.275 277.798983 
L 299.25 269.278206 
L 306.225 268.214358 
L 313.2 274.913459 
L 320.175 282.280674 
L 327.15 293.414641 
L 334.125 298.459804 
L 341.1 291.525682 
L 348.075 283.650065 
L 355.05 283.576319 
L 362.025 277.137778 
L 369 282.651115 
L 375.975 283.748288 
L 382.95 289.612652 
L 389.925 291.321609 
L 396.9 293.294663 
L 403.875 287.137597 
L 410.85 288.506686 
L 417.825 288.14533 
L 424.8 285.826559 
L 431.775 292.139205 
L 438.75 296.676976 
L 445.725 299.52978 
L 452.7 297.454592 
L 459.675 291.86544 
L 466.65 295.438015 
L 473.625 293.802857 
L 480.6 294.803532 
L 487.575 297.732949 
L 494.55 303.149488 
L 501.525 306.147244 
L 508.5 305.454043 
L 515.475 302.636687 
L 522.45 306.3492 
L 529.425 304.586052 
L 536.4 297.890159 
L 543.375 300.392619 
L 550.35 302.685809 
L 557.325 311.719024 
L 564.3 310.702239 
L 571.275 308.780137 
L 578.25 308.706009 
L 585.225 314.731469 
L 592.2 317.048839 
L 599.175 319.129458 
L 606.15 313.188668 
L 613.125 318.258754 
L 620.1 318.020437 
L 627.075 314.726549 
L 634.05 302.71726 
L 641.025 300.858221 
" style="fill:none;stroke:#a0a0a0;stroke-linecap:round;stroke-width:2.5;"/>
   </g>
   <g id="line2d_14">
    <path clip-path="url(#p7db59ca45a)" d="M 90 236.475692 
L 96.975 232.581654 
L 103.95 218.305373 
L 110.925 203.854392 
L 117.9 200.504926 
L 124.875 215.413004 
L 131.85 214.160638 
L 138.825 202.595969 
L 145.8 207.84809 
L 152.775 206.104061 
L 159.75 194.738008 
L 166.725 191.216318 
L 173.7 197.098045 
L 180.675 203.883782 
L 187.65 205.522459 
L 194.625 199.120716 
L 201.6 201.540887 
L 208.575 206.379862 
L 215.55 207.308564 
L 222.525 204.992204 
L 229.5 206.758395 
L 236.475 204.890921 
L 243.45 208.998442 
L 250.425 215.850236 
L 257.4 207.196058 
L 264.375 203.269232 
L 271.35 205.496428 
L 278.325 204.429138 
L 285.3 207.456954 
L 292.275 208.146619 
L 299.25 219.43127 
L 306.225 219.534964 
L 313.2 219.775424 
L 320.175 215.530204 
L 327.15 215.591478 
L 334.125 212.836986 
L 341.1 205.013603 
L 348.075 202.666739 
L 355.05 208.632944 
L 362.025 210.161721 
L 369 209.54252 
L 375.975 207.983246 
L 382.95 214.865582 
L 389.925 207.784424 
L 396.9 216.823306 
L 403.875 221.007948 
L 410.85 218.844718 
L 417.825 220.23476 
L 424.8 217.729281 
L 431.775 217.73948 
L 438.75 217.246633 
L 445.725 215.858601 
L 452.7 208.644894 
L 459.675 211.325005 
L 466.65 213.380759 
L 473.625 214.293281 
L 480.6 215.465097 
L 487.575 218.764864 
L 494.55 221.517092 
L 501.525 223.987656 
L 508.5 223.094495 
L 515.475 220.196242 
L 522.45 212.869523 
L 529.425 212.810047 
L 536.4 205.677957 
L 543.375 207.096819 
L 550.35 210.14161 
L 557.325 205.578835 
L 564.3 210.967249 
L 571.275 212.118436 
L 578.25 212.717391 
L 585.225 213.582476 
L 592.2 216.09598 
L 599.175 216.165041 
L 606.15 214.621969 
L 613.125 213.469927 
L 620.1 210.42982 
L 627.075 208.975356 
L 634.05 202.540396 
L 641.025 197.391206 
" style="fill:none;stroke:#4c72b0;stroke-linecap:round;stroke-width:2.5;"/>
   </g>
   <g id="line2d_15">
    <path clip-path="url(#p7db59ca45a)" d="M 90 208.787653 
L 96.975 216.307855 
L 103.95 200.197912 
L 110.925 190.374316 
L 117.9 185.606101 
L 124.875 194.427573 
L 131.85 189.842202 
L 138.825 181.66687 
L 145.8 198.28157 
L 152.775 196.512276 
L 159.75 201.09677 
L 166.725 205.054238 
L 173.7 219.019758 
L 180.675 219.895378 
L 187.65 214.658845 
L 194.625 210.054879 
L 201.6 211.772362 
L 208.575 204.44945 
L 215.55 205.508879 
L 222.525 209.03069 
L 229.5 214.227859 
L 236.475 206.919378 
L 243.45 218.766584 
L 250.425 225.108695 
L 257.4 234.107638 
L 264.375 239.313557 
L 271.35 240.289275 
L 278.325 236.98203 
L 285.3 233.729454 
L 292.275 235.363963 
L 299.25 231.416547 
L 306.225 228.997863 
L 313.2 224.653498 
L 320.175 220.076203 
L 327.15 224.255336 
L 334.125 217.70895 
L 341.1 219.962815 
L 348.075 225.13596 
L 355.05 219.273149 
L 362.025 222.946998 
L 369 217.950298 
L 375.975 219.087423 
L 382.95 210.408252 
L 389.925 204.460869 
L 396.9 207.446021 
L 403.875 198.176203 
L 410.85 198.936805 
L 417.825 204.595227 
L 424.8 210.785793 
L 431.775 212.889179 
L 438.75 212.935795 
L 445.725 214.246107 
L 452.7 213.932305 
L 459.675 210.359338 
L 466.65 207.538853 
L 473.625 212.887883 
L 480.6 216.604309 
L 487.575 213.836935 
L 494.55 219.972032 
L 501.525 221.113067 
L 508.5 219.241895 
L 515.475 215.565429 
L 522.45 207.652055 
L 529.425 205.061136 
L 536.4 201.574837 
L 543.375 204.52141 
L 550.35 199.082138 
L 557.325 199.256585 
L 564.3 191.351598 
L 571.275 197.85571 
L 578.25 195.61943 
L 585.225 195.612063 
L 592.2 194.856632 
L 599.175 194.079542 
L 606.15 193.465853 
L 613.125 201.019615 
L 620.1 199.482653 
L 627.075 203.02621 
L 634.05 205.700819 
L 641.025 204.950395 
" style="fill:none;stroke:#dd8452;stroke-linecap:round;stroke-width:2.5;"/>
   </g>
   <g id="line2d_16">
    <path clip-path="url(#p7db59ca45a)" d="M 90 249.781494 
L 96.975 242.460046 
L 103.95 248.013866 
L 110.925 256.136246 
L 117.9 251.033458 
L 124.875 247.228782 
L 131.85 252.108456 
L 138.825 252.300118 
L 145.8 247.135112 
L 152.775 238.167012 
L 159.75 248.019431 
L 166.725 242.56918 
L 173.7 244.881358 
L 180.675 242.485551 
L 187.65 240.63805 
L 194.625 246.178915 
L 201.6 246.308765 
L 208.575 251.613184 
L 215.55 259.418102 
L 222.525 256.679436 
L 229.5 259.30925 
L 236.475 258.455 
L 243.45 253.786804 
L 250.425 252.392089 
L 257.4 262.674016 
L 264.375 266.808088 
L 271.35 256.944295 
L 278.325 253.249726 
L 285.3 260.314225 
L 292.275 263.004672 
L 299.25 254.447187 
L 306.225 254.892666 
L 313.2 246.638187 
L 320.175 240.504289 
L 327.15 245.138808 
L 334.125 237.588244 
L 341.1 240.440138 
L 348.075 242.443558 
L 355.05 227.916651 
L 362.025 228.694774 
L 369 225.401856 
L 375.975 220.624229 
L 382.95 213.373743 
L 389.925 215.454284 
L 396.9 214.71657 
L 403.875 223.747991 
L 410.85 218.691213 
L 417.825 212.825338 
L 424.8 206.801054 
L 431.775 211.826364 
L 438.75 210.609472 
L 445.725 203.34673 
L 452.7 204.970978 
L 459.675 205.557298 
L 466.65 208.460194 
L 473.625 210.906288 
L 480.6 213.152016 
L 487.575 215.751224 
L 494.55 216.582105 
L 501.525 218.177374 
L 508.5 218.043661 
L 515.475 221.544967 
L 522.45 228.440225 
L 529.425 224.567366 
L 536.4 222.869719 
L 543.375 220.424142 
L 550.35 220.869606 
L 557.325 218.274013 
L 564.3 222.216814 
L 571.275 220.199598 
L 578.25 223.560194 
L 585.225 225.62999 
L 592.2 223.454748 
L 599.175 222.773708 
L 606.15 223.679543 
L 613.125 220.567892 
L 620.1 220.06013 
L 627.075 217.686247 
L 634.05 222.1075 
L 641.025 220.933314 
" style="fill:none;stroke:#55a868;stroke-linecap:round;stroke-width:2.5;"/>
   </g>
   <g id="line2d_17"/>
   <g id="line2d_18"/>
   <g id="line2d_19"/>
   <g id="line2d_20"/>
   <g id="line2d_21"/>
   <g id="line2d_22"/>
   <g id="line2d_23">
    <path clip-path="url(#p7db59ca45a)" d="M 90 312.768 
L 648 312.768 
" style="fill:none;stroke:#a0a0a0;stroke-dasharray:9.25,4;stroke-dashoffset:0;stroke-width:2.5;"/>
   </g>
   <g id="line2d_24">
    <path clip-path="url(#p7db59ca45a)" d="M 90 312.768 
L 648 312.768 
" style="fill:none;stroke:#a0a0a0;stroke-dasharray:9.25,4;stroke-dashoffset:0;stroke-width:2.5;"/>
   </g>
   <g id="line2d_25">
    <path clip-path="url(#p7db59ca45a)" d="M 90 204.048 
L 648 204.048 
" style="fill:none;stroke:#4c72b0;stroke-dasharray:9.25,4;stroke-dashoffset:0;stroke-width:2.5;"/>
   </g>
   <g id="line2d_26">
    <path clip-path="url(#p7db59ca45a)" d="M 90 204.048 
L 648 204.048 
" style="fill:none;stroke:#dd8452;stroke-dasharray:9.25,4;stroke-dashoffset:0;stroke-width:2.5;"/>
   </g>
   <g id="line2d_27">
    <path clip-path="url(#p7db59ca45a)" d="M 90 204.048 
L 648 204.048 
" style="fill:none;stroke:#55a868;stroke-dasharray:9.25,4;stroke-dashoffset:0;stroke-width:2.5;"/>
   </g>
   <g id="patch_3">
    <path d="M 90 378 
L 90 51.84 
" style="fill:none;stroke:#262626;stroke-linecap:square;stroke-linejoin:miter;stroke-width:1.25;"/>
   </g>
   <g id="patch_4">
    <path d="M 90 378 
L 648 378 
" style="fill:none;stroke:#262626;stroke-linecap:square;stroke-linejoin:miter;stroke-width:1.25;"/>
   </g>
   <g id="legend_1">
    <g id="patch_5">
     <path d="M 678.3 140.311875 
L 740.053125 140.311875 
Q 742.453125 140.311875 742.453125 137.911875 
L 742.453125 54.24 
Q 742.453125 51.84 740.053125 51.84 
L 678.3 51.84 
Q 675.9 51.84 675.9 54.24 
L 675.9 137.911875 
Q 675.9 140.311875 678.3 140.311875 
z
" style="fill:#ffffff;opacity:0.8;stroke:#000000;stroke-linejoin:miter;"/>
    </g>
    <g id="line2d_28">
     <path d="M 680.7 61.029375 
L 704.7 61.029375 
" style="fill:none;stroke:#a0a0a0;stroke-linecap:round;stroke-width:2.5;"/>
    </g>
    <g id="line2d_29"/>
    <g id="text_14">
     <!-- 0.00 -->
     <g style="fill:#262626;" transform="translate(714.3 65.229375)scale(0.12 -0.12)">
      <use xlink:href="#ArialMT-48"/>
      <use x="55.615234" xlink:href="#ArialMT-46"/>
      <use x="83.398438" xlink:href="#ArialMT-48"/>
      <use x="139.013672" xlink:href="#ArialMT-48"/>
     </g>
    </g>
    <g id="line2d_30">
     <path d="M 680.7 78.00375 
L 704.7 78.00375 
" style="fill:none;stroke:#a0a0a0;stroke-linecap:round;stroke-width:2.5;"/>
    </g>
    <g id="line2d_31"/>
    <g id="text_15">
     <!-- 0.00 -->
     <g style="fill:#262626;" transform="translate(714.3 82.20375)scale(0.12 -0.12)">
      <use xlink:href="#ArialMT-48"/>
      <use x="55.615234" xlink:href="#ArialMT-46"/>
      <use x="83.398438" xlink:href="#ArialMT-48"/>
      <use x="139.013672" xlink:href="#ArialMT-48"/>
     </g>
    </g>
    <g id="line2d_32">
     <path d="M 680.7 94.978125 
L 704.7 94.978125 
" style="fill:none;stroke:#4c72b0;stroke-linecap:round;stroke-width:2.5;"/>
    </g>
    <g id="line2d_33"/>
    <g id="text_16">
     <!-- 0.33 -->
     <defs>
      <path d="M 4.203125 18.890625 
L 12.984375 20.0625 
Q 14.5 12.59375 18.140625 9.296875 
Q 21.78125 6 27 6 
Q 33.203125 6 37.46875 10.296875 
Q 41.75 14.59375 41.75 20.953125 
Q 41.75 27 37.796875 30.921875 
Q 33.84375 34.859375 27.734375 34.859375 
Q 25.25 34.859375 21.53125 33.890625 
L 22.515625 41.609375 
Q 23.390625 41.5 23.921875 41.5 
Q 29.546875 41.5 34.03125 44.421875 
Q 38.53125 47.359375 38.53125 53.46875 
Q 38.53125 58.296875 35.25 61.46875 
Q 31.984375 64.65625 26.8125 64.65625 
Q 21.6875 64.65625 18.265625 61.421875 
Q 14.84375 58.203125 13.875 51.765625 
L 5.078125 53.328125 
Q 6.6875 62.15625 12.390625 67.015625 
Q 18.109375 71.875 26.609375 71.875 
Q 32.46875 71.875 37.390625 69.359375 
Q 42.328125 66.84375 44.9375 62.5 
Q 47.5625 58.15625 47.5625 53.265625 
Q 47.5625 48.640625 45.0625 44.828125 
Q 42.578125 41.015625 37.703125 38.765625 
Q 44.046875 37.3125 47.5625 32.6875 
Q 51.078125 28.078125 51.078125 21.140625 
Q 51.078125 11.765625 44.234375 5.25 
Q 37.40625 -1.265625 26.953125 -1.265625 
Q 17.53125 -1.265625 11.296875 4.34375 
Q 5.078125 9.96875 4.203125 18.890625 
z
" id="ArialMT-51"/>
     </defs>
     <g style="fill:#262626;" transform="translate(714.3 99.178125)scale(0.12 -0.12)">
      <use xlink:href="#ArialMT-48"/>
      <use x="55.615234" xlink:href="#ArialMT-46"/>
      <use x="83.398438" xlink:href="#ArialMT-51"/>
      <use x="139.013672" xlink:href="#ArialMT-51"/>
     </g>
    </g>
    <g id="line2d_34">
     <path d="M 680.7 111.9525 
L 704.7 111.9525 
" style="fill:none;stroke:#dd8452;stroke-linecap:round;stroke-width:2.5;"/>
    </g>
    <g id="line2d_35"/>
    <g id="text_17">
     <!-- 0.33 -->
     <g style="fill:#262626;" transform="translate(714.3 116.1525)scale(0.12 -0.12)">
      <use xlink:href="#ArialMT-48"/>
      <use x="55.615234" xlink:href="#ArialMT-46"/>
      <use x="83.398438" xlink:href="#ArialMT-51"/>
      <use x="139.013672" xlink:href="#ArialMT-51"/>
     </g>
    </g>
    <g id="line2d_36">
     <path d="M 680.7 128.926875 
L 704.7 128.926875 
" style="fill:none;stroke:#55a868;stroke-linecap:round;stroke-width:2.5;"/>
    </g>
    <g id="line2d_37"/>
    <g id="text_18">
     <!-- 0.33 -->
     <g style="fill:#262626;" transform="translate(714.3 133.126875)scale(0.12 -0.12)">
      <use xlink:href="#ArialMT-48"/>
      <use x="55.615234" xlink:href="#ArialMT-46"/>
      <use x="83.398438" xlink:href="#ArialMT-51"/>
      <use x="139.013672" xlink:href="#ArialMT-51"/>
     </g>
    </g>
   </g>
  </g>
 </g>
 <defs>
  <clipPath id="p7db59ca45a">
   <rect height="326.16" width="558" x="90" y="51.84"/>
  </clipPath>
 </defs>
</svg>
