<?xml version="1.0" encoding="utf-8" standalone="no"?>
<!DOCTYPE svg PUBLIC "-//W3C//DTD SVG 1.1//EN"
  "http://www.w3.org/Graphics/SVG/1.1/DTD/svg11.dtd">
<!-- Created with matplotlib (https://matplotlib.org/) -->
<svg height="432pt" version="1.1" viewBox="0 0 720 432" width="720pt" xmlns="http://www.w3.org/2000/svg" xmlns:xlink="http://www.w3.org/1999/xlink">
 <defs>
  <style type="text/css">
*{stroke-linecap:butt;stroke-linejoin:round;}
  </style>
 </defs>
 <g id="figure_1">
  <g id="patch_1">
   <path d="M 0 432 
L 720 432 
L 720 0 
L 0 0 
z
" style="fill:#ffffff;"/>
  </g>
  <g id="axes_1">
   <g id="patch_2">
    <path d="M 90 378 
L 648 378 
L 648 51.84 
L 90 51.84 
z
" style="fill:#ffffff;"/>
   </g>
   <g id="matplotlib.axis_1">
    <g id="xtick_1">
     <g id="line2d_1">
      <defs>
       <path d="M 0 0 
L 0 6 
" id="m57cba7e371" style="stroke:#262626;stroke-width:1.25;"/>
      </defs>
      <g>
       <use style="fill:#262626;stroke:#262626;stroke-width:1.25;" x="90" xlink:href="#m57cba7e371" y="378"/>
      </g>
     </g>
     <g id="text_1">
      <!-- 0 -->
      <defs>
       <path d="M 4.15625 35.296875 
Q 4.15625 48 6.765625 55.734375 
Q 9.375 63.484375 14.515625 67.671875 
Q 19.671875 71.875 27.484375 71.875 
Q 33.25 71.875 37.59375 69.546875 
Q 41.9375 67.234375 44.765625 62.859375 
Q 47.609375 58.5 49.21875 52.21875 
Q 50.828125 45.953125 50.828125 35.296875 
Q 50.828125 22.703125 48.234375 14.96875 
Q 45.65625 7.234375 40.5 3 
Q 35.359375 -1.21875 27.484375 -1.21875 
Q 17.140625 -1.21875 11.234375 6.203125 
Q 4.15625 15.140625 4.15625 35.296875 
z
M 13.1875 35.296875 
Q 13.1875 17.671875 17.3125 11.828125 
Q 21.4375 6 27.484375 6 
Q 33.546875 6 37.671875 11.859375 
Q 41.796875 17.71875 41.796875 35.296875 
Q 41.796875 52.984375 37.671875 58.78125 
Q 33.546875 64.59375 27.390625 64.59375 
Q 21.34375 64.59375 17.71875 59.46875 
Q 13.1875 52.9375 13.1875 35.296875 
z
" id="ArialMT-48"/>
      </defs>
      <g style="fill:#262626;" transform="translate(86.663438 396.089375)scale(0.12 -0.12)">
       <use xlink:href="#ArialMT-48"/>
      </g>
     </g>
    </g>
    <g id="xtick_2">
     <g id="line2d_2">
      <g>
       <use style="fill:#262626;stroke:#262626;stroke-width:1.25;" x="229.5" xlink:href="#m57cba7e371" y="378"/>
      </g>
     </g>
     <g id="text_2">
      <!-- 20 -->
      <defs>
       <path d="M 50.34375 8.453125 
L 50.34375 0 
L 3.03125 0 
Q 2.9375 3.171875 4.046875 6.109375 
Q 5.859375 10.9375 9.828125 15.625 
Q 13.8125 20.3125 21.34375 26.46875 
Q 33.015625 36.03125 37.109375 41.625 
Q 41.21875 47.21875 41.21875 52.203125 
Q 41.21875 57.421875 37.46875 61 
Q 33.734375 64.59375 27.734375 64.59375 
Q 21.390625 64.59375 17.578125 60.78125 
Q 13.765625 56.984375 13.71875 50.25 
L 4.6875 51.171875 
Q 5.609375 61.28125 11.65625 66.578125 
Q 17.71875 71.875 27.9375 71.875 
Q 38.234375 71.875 44.234375 66.15625 
Q 50.25 60.453125 50.25 52 
Q 50.25 47.703125 48.484375 43.546875 
Q 46.734375 39.40625 42.65625 34.8125 
Q 38.578125 30.21875 29.109375 22.21875 
Q 21.1875 15.578125 18.9375 13.203125 
Q 16.703125 10.84375 15.234375 8.453125 
z
" id="ArialMT-50"/>
      </defs>
      <g style="fill:#262626;" transform="translate(222.826875 396.089375)scale(0.12 -0.12)">
       <use xlink:href="#ArialMT-50"/>
       <use x="55.615234" xlink:href="#ArialMT-48"/>
      </g>
     </g>
    </g>
    <g id="xtick_3">
     <g id="line2d_3">
      <g>
       <use style="fill:#262626;stroke:#262626;stroke-width:1.25;" x="369" xlink:href="#m57cba7e371" y="378"/>
      </g>
     </g>
     <g id="text_3">
      <!-- 40 -->
      <defs>
       <path d="M 32.328125 0 
L 32.328125 17.140625 
L 1.265625 17.140625 
L 1.265625 25.203125 
L 33.9375 71.578125 
L 41.109375 71.578125 
L 41.109375 25.203125 
L 50.78125 25.203125 
L 50.78125 17.140625 
L 41.109375 17.140625 
L 41.109375 0 
z
M 32.328125 25.203125 
L 32.328125 57.46875 
L 9.90625 25.203125 
z
" id="ArialMT-52"/>
      </defs>
      <g style="fill:#262626;" transform="translate(362.326875 396.089375)scale(0.12 -0.12)">
       <use xlink:href="#ArialMT-52"/>
       <use x="55.615234" xlink:href="#ArialMT-48"/>
      </g>
     </g>
    </g>
    <g id="xtick_4">
     <g id="line2d_4">
      <g>
       <use style="fill:#262626;stroke:#262626;stroke-width:1.25;" x="508.5" xlink:href="#m57cba7e371" y="378"/>
      </g>
     </g>
     <g id="text_4">
      <!-- 60 -->
      <defs>
       <path d="M 49.75 54.046875 
L 41.015625 53.375 
Q 39.84375 58.546875 37.703125 60.890625 
Q 34.125 64.65625 28.90625 64.65625 
Q 24.703125 64.65625 21.53125 62.3125 
Q 17.390625 59.28125 14.984375 53.46875 
Q 12.59375 47.65625 12.5 36.921875 
Q 15.671875 41.75 20.265625 44.09375 
Q 24.859375 46.4375 29.890625 46.4375 
Q 38.671875 46.4375 44.84375 39.96875 
Q 51.03125 33.5 51.03125 23.25 
Q 51.03125 16.5 48.125 10.71875 
Q 45.21875 4.9375 40.140625 1.859375 
Q 35.0625 -1.21875 28.609375 -1.21875 
Q 17.625 -1.21875 10.6875 6.859375 
Q 3.765625 14.9375 3.765625 33.5 
Q 3.765625 54.25 11.421875 63.671875 
Q 18.109375 71.875 29.4375 71.875 
Q 37.890625 71.875 43.28125 67.140625 
Q 48.6875 62.40625 49.75 54.046875 
z
M 13.875 23.1875 
Q 13.875 18.65625 15.796875 14.5 
Q 17.71875 10.359375 21.1875 8.171875 
Q 24.65625 6 28.46875 6 
Q 34.03125 6 38.03125 10.484375 
Q 42.046875 14.984375 42.046875 22.703125 
Q 42.046875 30.125 38.078125 34.390625 
Q 34.125 38.671875 28.125 38.671875 
Q 22.171875 38.671875 18.015625 34.390625 
Q 13.875 30.125 13.875 23.1875 
z
" id="ArialMT-54"/>
      </defs>
      <g style="fill:#262626;" transform="translate(501.826875 396.089375)scale(0.12 -0.12)">
       <use xlink:href="#ArialMT-54"/>
       <use x="55.615234" xlink:href="#ArialMT-48"/>
      </g>
     </g>
    </g>
    <g id="xtick_5">
     <g id="line2d_5">
      <g>
       <use style="fill:#262626;stroke:#262626;stroke-width:1.25;" x="648" xlink:href="#m57cba7e371" y="378"/>
      </g>
     </g>
     <g id="text_5">
      <!-- 80 -->
      <defs>
       <path d="M 17.671875 38.8125 
Q 12.203125 40.828125 9.5625 44.53125 
Q 6.9375 48.25 6.9375 53.421875 
Q 6.9375 61.234375 12.546875 66.546875 
Q 18.171875 71.875 27.484375 71.875 
Q 36.859375 71.875 42.578125 66.421875 
Q 48.296875 60.984375 48.296875 53.171875 
Q 48.296875 48.1875 45.671875 44.5 
Q 43.0625 40.828125 37.75 38.8125 
Q 44.34375 36.671875 47.78125 31.875 
Q 51.21875 27.09375 51.21875 20.453125 
Q 51.21875 11.28125 44.71875 5.03125 
Q 38.234375 -1.21875 27.640625 -1.21875 
Q 17.046875 -1.21875 10.546875 5.046875 
Q 4.046875 11.328125 4.046875 20.703125 
Q 4.046875 27.6875 7.59375 32.390625 
Q 11.140625 37.109375 17.671875 38.8125 
z
M 15.921875 53.71875 
Q 15.921875 48.640625 19.1875 45.40625 
Q 22.46875 42.1875 27.6875 42.1875 
Q 32.765625 42.1875 36.015625 45.375 
Q 39.265625 48.578125 39.265625 53.21875 
Q 39.265625 58.0625 35.90625 61.359375 
Q 32.5625 64.65625 27.59375 64.65625 
Q 22.5625 64.65625 19.234375 61.421875 
Q 15.921875 58.203125 15.921875 53.71875 
z
M 13.09375 20.65625 
Q 13.09375 16.890625 14.875 13.375 
Q 16.65625 9.859375 20.171875 7.921875 
Q 23.6875 6 27.734375 6 
Q 34.03125 6 38.125 10.046875 
Q 42.234375 14.109375 42.234375 20.359375 
Q 42.234375 26.703125 38.015625 30.859375 
Q 33.796875 35.015625 27.4375 35.015625 
Q 21.234375 35.015625 17.15625 30.90625 
Q 13.09375 26.8125 13.09375 20.65625 
z
" id="ArialMT-56"/>
      </defs>
      <g style="fill:#262626;" transform="translate(641.326875 396.089375)scale(0.12 -0.12)">
       <use xlink:href="#ArialMT-56"/>
       <use x="55.615234" xlink:href="#ArialMT-48"/>
      </g>
     </g>
    </g>
    <g id="text_6">
     <!-- Trial Number -->
     <defs>
      <path d="M 25.921875 0 
L 25.921875 63.140625 
L 2.34375 63.140625 
L 2.34375 71.578125 
L 59.078125 71.578125 
L 59.078125 63.140625 
L 35.40625 63.140625 
L 35.40625 0 
z
" id="ArialMT-84"/>
      <path d="M 6.5 0 
L 6.5 51.859375 
L 14.40625 51.859375 
L 14.40625 44 
Q 17.4375 49.515625 20 51.265625 
Q 22.5625 53.03125 25.640625 53.03125 
Q 30.078125 53.03125 34.671875 50.203125 
L 31.640625 42.046875 
Q 28.421875 43.953125 25.203125 43.953125 
Q 22.3125 43.953125 20.015625 42.21875 
Q 17.71875 40.484375 16.75 37.40625 
Q 15.28125 32.71875 15.28125 27.15625 
L 15.28125 0 
z
" id="ArialMT-114"/>
      <path d="M 6.640625 61.46875 
L 6.640625 71.578125 
L 15.4375 71.578125 
L 15.4375 61.46875 
z
M 6.640625 0 
L 6.640625 51.859375 
L 15.4375 51.859375 
L 15.4375 0 
z
" id="ArialMT-105"/>
      <path d="M 40.4375 6.390625 
Q 35.546875 2.25 31.03125 0.53125 
Q 26.515625 -1.171875 21.34375 -1.171875 
Q 12.796875 -1.171875 8.203125 3 
Q 3.609375 7.171875 3.609375 13.671875 
Q 3.609375 17.484375 5.34375 20.625 
Q 7.078125 23.78125 9.890625 25.6875 
Q 12.703125 27.59375 16.21875 28.5625 
Q 18.796875 29.25 24.03125 29.890625 
Q 34.671875 31.15625 39.703125 32.90625 
Q 39.75 34.71875 39.75 35.203125 
Q 39.75 40.578125 37.25 42.78125 
Q 33.890625 45.75 27.25 45.75 
Q 21.046875 45.75 18.09375 43.578125 
Q 15.140625 41.40625 13.71875 35.890625 
L 5.125 37.0625 
Q 6.296875 42.578125 8.984375 45.96875 
Q 11.671875 49.359375 16.75 51.1875 
Q 21.828125 53.03125 28.515625 53.03125 
Q 35.15625 53.03125 39.296875 51.46875 
Q 43.453125 49.90625 45.40625 47.53125 
Q 47.359375 45.171875 48.140625 41.546875 
Q 48.578125 39.3125 48.578125 33.453125 
L 48.578125 21.734375 
Q 48.578125 9.46875 49.140625 6.21875 
Q 49.703125 2.984375 51.375 0 
L 42.1875 0 
Q 40.828125 2.734375 40.4375 6.390625 
z
M 39.703125 26.03125 
Q 34.90625 24.078125 25.34375 22.703125 
Q 19.921875 21.921875 17.671875 20.9375 
Q 15.4375 19.96875 14.203125 18.09375 
Q 12.984375 16.21875 12.984375 13.921875 
Q 12.984375 10.40625 15.640625 8.0625 
Q 18.3125 5.71875 23.4375 5.71875 
Q 28.515625 5.71875 32.46875 7.9375 
Q 36.421875 10.15625 38.28125 14.015625 
Q 39.703125 17 39.703125 22.796875 
z
" id="ArialMT-97"/>
      <path d="M 6.390625 0 
L 6.390625 71.578125 
L 15.1875 71.578125 
L 15.1875 0 
z
" id="ArialMT-108"/>
      <path id="ArialMT-32"/>
      <path d="M 7.625 0 
L 7.625 71.578125 
L 17.328125 71.578125 
L 54.9375 15.375 
L 54.9375 71.578125 
L 64.015625 71.578125 
L 64.015625 0 
L 54.296875 0 
L 16.703125 56.25 
L 16.703125 0 
z
" id="ArialMT-78"/>
      <path d="M 40.578125 0 
L 40.578125 7.625 
Q 34.515625 -1.171875 24.125 -1.171875 
Q 19.53125 -1.171875 15.546875 0.578125 
Q 11.578125 2.34375 9.640625 5 
Q 7.71875 7.671875 6.9375 11.53125 
Q 6.390625 14.109375 6.390625 19.734375 
L 6.390625 51.859375 
L 15.1875 51.859375 
L 15.1875 23.09375 
Q 15.1875 16.21875 15.71875 13.8125 
Q 16.546875 10.359375 19.234375 8.375 
Q 21.921875 6.390625 25.875 6.390625 
Q 29.828125 6.390625 33.296875 8.421875 
Q 36.765625 10.453125 38.203125 13.9375 
Q 39.65625 17.4375 39.65625 24.078125 
L 39.65625 51.859375 
L 48.4375 51.859375 
L 48.4375 0 
z
" id="ArialMT-117"/>
      <path d="M 6.59375 0 
L 6.59375 51.859375 
L 14.453125 51.859375 
L 14.453125 44.578125 
Q 16.890625 48.390625 20.9375 50.703125 
Q 25 53.03125 30.171875 53.03125 
Q 35.9375 53.03125 39.625 50.640625 
Q 43.3125 48.25 44.828125 43.953125 
Q 50.984375 53.03125 60.84375 53.03125 
Q 68.5625 53.03125 72.703125 48.75 
Q 76.859375 44.484375 76.859375 35.59375 
L 76.859375 0 
L 68.109375 0 
L 68.109375 32.671875 
Q 68.109375 37.9375 67.25 40.25 
Q 66.40625 42.578125 64.15625 43.984375 
Q 61.921875 45.40625 58.890625 45.40625 
Q 53.421875 45.40625 49.796875 41.765625 
Q 46.1875 38.140625 46.1875 30.125 
L 46.1875 0 
L 37.40625 0 
L 37.40625 33.6875 
Q 37.40625 39.546875 35.25 42.46875 
Q 33.109375 45.40625 28.21875 45.40625 
Q 24.515625 45.40625 21.359375 43.453125 
Q 18.21875 41.5 16.796875 37.734375 
Q 15.375 33.984375 15.375 26.90625 
L 15.375 0 
z
" id="ArialMT-109"/>
      <path d="M 14.703125 0 
L 6.546875 0 
L 6.546875 71.578125 
L 15.328125 71.578125 
L 15.328125 46.046875 
Q 20.90625 53.03125 29.546875 53.03125 
Q 34.328125 53.03125 38.59375 51.09375 
Q 42.875 49.171875 45.625 45.671875 
Q 48.390625 42.1875 49.953125 37.25 
Q 51.515625 32.328125 51.515625 26.703125 
Q 51.515625 13.375 44.921875 6.09375 
Q 38.328125 -1.171875 29.109375 -1.171875 
Q 19.921875 -1.171875 14.703125 6.5 
z
M 14.59375 26.3125 
Q 14.59375 17 17.140625 12.84375 
Q 21.296875 6.0625 28.375 6.0625 
Q 34.125 6.0625 38.328125 11.0625 
Q 42.53125 16.0625 42.53125 25.984375 
Q 42.53125 36.140625 38.5 40.96875 
Q 34.46875 45.796875 28.765625 45.796875 
Q 23 45.796875 18.796875 40.796875 
Q 14.59375 35.796875 14.59375 26.3125 
z
" id="ArialMT-98"/>
      <path d="M 42.09375 16.703125 
L 51.171875 15.578125 
Q 49.03125 7.625 43.21875 3.21875 
Q 37.40625 -1.171875 28.375 -1.171875 
Q 17 -1.171875 10.328125 5.828125 
Q 3.65625 12.84375 3.65625 25.484375 
Q 3.65625 38.578125 10.390625 45.796875 
Q 17.140625 53.03125 27.875 53.03125 
Q 38.28125 53.03125 44.875 45.953125 
Q 51.46875 38.875 51.46875 26.03125 
Q 51.46875 25.25 51.421875 23.6875 
L 12.75 23.6875 
Q 13.234375 15.140625 17.578125 10.59375 
Q 21.921875 6.0625 28.421875 6.0625 
Q 33.25 6.0625 36.671875 8.59375 
Q 40.09375 11.140625 42.09375 16.703125 
z
M 13.234375 30.90625 
L 42.1875 30.90625 
Q 41.609375 37.453125 38.875 40.71875 
Q 34.671875 45.796875 27.984375 45.796875 
Q 21.921875 45.796875 17.796875 41.75 
Q 13.671875 37.703125 13.234375 30.90625 
z
" id="ArialMT-101"/>
     </defs>
     <g style="fill:#262626;" transform="translate(322.77625 413.926875)scale(0.16 -0.16)">
      <use xlink:href="#ArialMT-84"/>
      <use x="61.037109" xlink:href="#ArialMT-114"/>
      <use x="94.337891" xlink:href="#ArialMT-105"/>
      <use x="116.554688" xlink:href="#ArialMT-97"/>
      <use x="172.169922" xlink:href="#ArialMT-108"/>
      <use x="194.386719" xlink:href="#ArialMT-32"/>
      <use x="222.169922" xlink:href="#ArialMT-78"/>
      <use x="294.386719" xlink:href="#ArialMT-117"/>
      <use x="350.001953" xlink:href="#ArialMT-109"/>
      <use x="433.302734" xlink:href="#ArialMT-98"/>
      <use x="488.917969" xlink:href="#ArialMT-101"/>
      <use x="544.533203" xlink:href="#ArialMT-114"/>
     </g>
    </g>
   </g>
   <g id="matplotlib.axis_2">
    <g id="ytick_1">
     <g id="line2d_6">
      <defs>
       <path d="M 0 0 
L -6 0 
" id="m78a16bceef" style="stroke:#262626;stroke-width:1.25;"/>
      </defs>
      <g>
       <use style="fill:#262626;stroke:#262626;stroke-width:1.25;" x="90" xlink:href="#m78a16bceef" y="378"/>
      </g>
     </g>
     <g id="text_7">
      <!-- −0.2 -->
      <defs>
       <path d="M 52.828125 31.203125 
L 5.5625 31.203125 
L 5.5625 39.40625 
L 52.828125 39.40625 
z
" id="ArialMT-8722"/>
       <path d="M 9.078125 0 
L 9.078125 10.015625 
L 19.09375 10.015625 
L 19.09375 0 
z
" id="ArialMT-46"/>
      </defs>
      <g style="fill:#262626;" transform="translate(56.81125 382.294688)scale(0.12 -0.12)">
       <use xlink:href="#ArialMT-8722"/>
       <use x="58.398438" xlink:href="#ArialMT-48"/>
       <use x="114.013672" xlink:href="#ArialMT-46"/>
       <use x="141.796875" xlink:href="#ArialMT-50"/>
      </g>
     </g>
    </g>
    <g id="ytick_2">
     <g id="line2d_7">
      <g>
       <use style="fill:#262626;stroke:#262626;stroke-width:1.25;" x="90" xlink:href="#m78a16bceef" y="312.768"/>
      </g>
     </g>
     <g id="text_8">
      <!-- 0.0 -->
      <g style="fill:#262626;" transform="translate(63.82 317.062687)scale(0.12 -0.12)">
       <use xlink:href="#ArialMT-48"/>
       <use x="55.615234" xlink:href="#ArialMT-46"/>
       <use x="83.398438" xlink:href="#ArialMT-48"/>
      </g>
     </g>
    </g>
    <g id="ytick_3">
     <g id="line2d_8">
      <g>
       <use style="fill:#262626;stroke:#262626;stroke-width:1.25;" x="90" xlink:href="#m78a16bceef" y="247.536"/>
      </g>
     </g>
     <g id="text_9">
      <!-- 0.2 -->
      <g style="fill:#262626;" transform="translate(63.82 251.830687)scale(0.12 -0.12)">
       <use xlink:href="#ArialMT-48"/>
       <use x="55.615234" xlink:href="#ArialMT-46"/>
       <use x="83.398438" xlink:href="#ArialMT-50"/>
      </g>
     </g>
    </g>
    <g id="ytick_4">
     <g id="line2d_9">
      <g>
       <use style="fill:#262626;stroke:#262626;stroke-width:1.25;" x="90" xlink:href="#m78a16bceef" y="182.304"/>
      </g>
     </g>
     <g id="text_10">
      <!-- 0.4 -->
      <g style="fill:#262626;" transform="translate(63.82 186.598687)scale(0.12 -0.12)">
       <use xlink:href="#ArialMT-48"/>
       <use x="55.615234" xlink:href="#ArialMT-46"/>
       <use x="83.398438" xlink:href="#ArialMT-52"/>
      </g>
     </g>
    </g>
    <g id="ytick_5">
     <g id="line2d_10">
      <g>
       <use style="fill:#262626;stroke:#262626;stroke-width:1.25;" x="90" xlink:href="#m78a16bceef" y="117.072"/>
      </g>
     </g>
     <g id="text_11">
      <!-- 0.6 -->
      <g style="fill:#262626;" transform="translate(63.82 121.366687)scale(0.12 -0.12)">
       <use xlink:href="#ArialMT-48"/>
       <use x="55.615234" xlink:href="#ArialMT-46"/>
       <use x="83.398438" xlink:href="#ArialMT-54"/>
      </g>
     </g>
    </g>
    <g id="ytick_6">
     <g id="line2d_11">
      <g>
       <use style="fill:#262626;stroke:#262626;stroke-width:1.25;" x="90" xlink:href="#m78a16bceef" y="51.84"/>
      </g>
     </g>
     <g id="text_12">
      <!-- 0.8 -->
      <g style="fill:#262626;" transform="translate(63.82 56.134687)scale(0.12 -0.12)">
       <use xlink:href="#ArialMT-48"/>
       <use x="55.615234" xlink:href="#ArialMT-46"/>
       <use x="83.398438" xlink:href="#ArialMT-56"/>
      </g>
     </g>
    </g>
    <g id="text_13">
     <!-- Weight -->
     <defs>
      <path d="M 20.21875 0 
L 1.21875 71.578125 
L 10.9375 71.578125 
L 21.828125 24.65625 
Q 23.578125 17.28125 24.859375 10.015625 
Q 27.59375 21.484375 28.078125 23.25 
L 41.703125 71.578125 
L 53.125 71.578125 
L 63.375 35.359375 
Q 67.234375 21.875 68.953125 10.015625 
Q 70.3125 16.796875 72.515625 25.59375 
L 83.734375 71.578125 
L 93.265625 71.578125 
L 73.640625 0 
L 64.5 0 
L 49.421875 54.546875 
Q 47.515625 61.375 47.171875 62.9375 
Q 46.046875 58.015625 45.0625 54.546875 
L 29.890625 0 
z
" id="ArialMT-87"/>
      <path d="M 4.984375 -4.296875 
L 13.53125 -5.5625 
Q 14.0625 -9.515625 16.5 -11.328125 
Q 19.78125 -13.765625 25.4375 -13.765625 
Q 31.546875 -13.765625 34.859375 -11.328125 
Q 38.1875 -8.890625 39.359375 -4.5 
Q 40.046875 -1.8125 39.984375 6.78125 
Q 34.234375 0 25.640625 0 
Q 14.9375 0 9.078125 7.71875 
Q 3.21875 15.4375 3.21875 26.21875 
Q 3.21875 33.640625 5.90625 39.90625 
Q 8.59375 46.1875 13.6875 49.609375 
Q 18.796875 53.03125 25.6875 53.03125 
Q 34.859375 53.03125 40.828125 45.609375 
L 40.828125 51.859375 
L 48.921875 51.859375 
L 48.921875 7.03125 
Q 48.921875 -5.078125 46.453125 -10.125 
Q 44 -15.1875 38.640625 -18.109375 
Q 33.296875 -21.046875 25.484375 -21.046875 
Q 16.21875 -21.046875 10.5 -16.875 
Q 4.78125 -12.703125 4.984375 -4.296875 
z
M 12.25 26.859375 
Q 12.25 16.65625 16.296875 11.96875 
Q 20.359375 7.28125 26.46875 7.28125 
Q 32.515625 7.28125 36.609375 11.9375 
Q 40.71875 16.609375 40.71875 26.5625 
Q 40.71875 36.078125 36.5 40.90625 
Q 32.28125 45.75 26.3125 45.75 
Q 20.453125 45.75 16.34375 40.984375 
Q 12.25 36.234375 12.25 26.859375 
z
" id="ArialMT-103"/>
      <path d="M 6.59375 0 
L 6.59375 71.578125 
L 15.375 71.578125 
L 15.375 45.90625 
Q 21.53125 53.03125 30.90625 53.03125 
Q 36.671875 53.03125 40.921875 50.75 
Q 45.171875 48.484375 47 44.484375 
Q 48.828125 40.484375 48.828125 32.859375 
L 48.828125 0 
L 40.046875 0 
L 40.046875 32.859375 
Q 40.046875 39.453125 37.1875 42.453125 
Q 34.328125 45.453125 29.109375 45.453125 
Q 25.203125 45.453125 21.75 43.421875 
Q 18.3125 41.40625 16.84375 37.9375 
Q 15.375 34.46875 15.375 28.375 
L 15.375 0 
z
" id="ArialMT-104"/>
      <path d="M 25.78125 7.859375 
L 27.046875 0.09375 
Q 23.34375 -0.6875 20.40625 -0.6875 
Q 15.625 -0.6875 12.984375 0.828125 
Q 10.359375 2.34375 9.28125 4.8125 
Q 8.203125 7.28125 8.203125 15.1875 
L 8.203125 45.015625 
L 1.765625 45.015625 
L 1.765625 51.859375 
L 8.203125 51.859375 
L 8.203125 64.703125 
L 16.9375 69.96875 
L 16.9375 51.859375 
L 25.78125 51.859375 
L 25.78125 45.015625 
L 16.9375 45.015625 
L 16.9375 14.703125 
Q 16.9375 10.9375 17.40625 9.859375 
Q 17.875 8.796875 18.921875 8.15625 
Q 19.96875 7.515625 21.921875 7.515625 
Q 23.390625 7.515625 25.78125 7.859375 
z
" id="ArialMT-116"/>
     </defs>
     <g style="fill:#262626;" transform="translate(49.44375 239.81625)rotate(-90)scale(0.16 -0.16)">
      <use xlink:href="#ArialMT-87"/>
      <use x="94.369141" xlink:href="#ArialMT-101"/>
      <use x="149.984375" xlink:href="#ArialMT-105"/>
      <use x="172.201172" xlink:href="#ArialMT-103"/>
      <use x="227.816406" xlink:href="#ArialMT-104"/>
      <use x="283.431641" xlink:href="#ArialMT-116"/>
     </g>
    </g>
   </g>
   <g id="PolyCollection_1">
    <defs>
     <path d="M 90 -253.481003 
L 90 -139.838414 
L 96.975 -144.781427 
L 103.95 -145.280593 
L 110.925 -117.149645 
L 117.9 -112.855972 
L 124.875 -107.829687 
L 131.85 -83.9095 
L 138.825 -76.498114 
L 145.8 -86.572781 
L 152.775 -69.669924 
L 159.75 -73.486673 
L 166.725 -105.990233 
L 173.7 -116.0068 
L 180.675 -115.118095 
L 187.65 -114.876802 
L 194.625 -103.827012 
L 201.6 -120.050771 
L 208.575 -106.434673 
L 215.55 -103.3842 
L 222.525 -102.652517 
L 229.5 -99.751659 
L 236.475 -104.306493 
L 243.45 -95.033566 
L 250.425 -103.279946 
L 257.4 -108.168068 
L 264.375 -99.456548 
L 271.35 -102.57405 
L 278.325 -100.467877 
L 285.3 -102.441567 
L 292.275 -95.86352 
L 299.25 -98.746071 
L 306.225 -91.073094 
L 313.2 -89.276429 
L 320.175 -104.843558 
L 327.15 -104.220296 
L 334.125 -111.101585 
L 341.1 -108.301412 
L 348.075 -133.820464 
L 355.05 -137.110761 
L 362.025 -141.992354 
L 369 -149.091418 
L 375.975 -147.749893 
L 382.95 -144.714023 
L 389.925 -135.910562 
L 396.9 -136.122788 
L 403.875 -133.012358 
L 410.85 -124.656307 
L 417.825 -135.607747 
L 424.8 -136.145956 
L 431.775 -130.684968 
L 438.75 -119.754791 
L 445.725 -123.069767 
L 452.7 -121.016524 
L 459.675 -119.786533 
L 466.65 -108.352596 
L 473.625 -116.03588 
L 480.6 -116.819776 
L 487.575 -117.215972 
L 494.55 -116.270012 
L 501.525 -118.865581 
L 508.5 -114.85843 
L 515.475 -114.419789 
L 522.45 -107.340055 
L 529.425 -95.225638 
L 536.4 -104.01868 
L 543.375 -104.149599 
L 550.35 -127.125599 
L 557.325 -117.688068 
L 564.3 -121.110837 
L 571.275 -112.216464 
L 578.25 -115.265573 
L 585.225 -119.175697 
L 592.2 -111.815707 
L 599.175 -106.844172 
L 606.15 -104.115063 
L 613.125 -102.409971 
L 620.1 -110.292249 
L 627.075 -99.591932 
L 634.05 -111.713494 
L 641.025 -105.550523 
L 641.025 -158.487283 
L 641.025 -158.487283 
L 634.05 -167.039676 
L 627.075 -180.354268 
L 620.1 -180.982833 
L 613.125 -184.831081 
L 606.15 -194.167961 
L 599.175 -205.948185 
L 592.2 -208.719318 
L 585.225 -183.691036 
L 578.25 -188.306968 
L 571.275 -190.358825 
L 564.3 -179.076593 
L 557.325 -189.649709 
L 550.35 -208.534385 
L 543.375 -195.461644 
L 536.4 -195.68238 
L 529.425 -187.938056 
L 522.45 -175.138033 
L 515.475 -160.756938 
L 508.5 -146.281935 
L 501.525 -147.238349 
L 494.55 -146.824626 
L 487.575 -162.554849 
L 480.6 -148.474794 
L 473.625 -141.388584 
L 466.65 -139.315443 
L 459.675 -131.935323 
L 452.7 -132.886035 
L 445.725 -140.61068 
L 438.75 -170.428188 
L 431.775 -172.798973 
L 424.8 -169.528468 
L 417.825 -168.187766 
L 410.85 -165.281063 
L 403.875 -174.971665 
L 396.9 -168.112452 
L 389.925 -168.448852 
L 382.95 -177.10841 
L 375.975 -173.424178 
L 369 -179.358879 
L 362.025 -176.693876 
L 355.05 -175.269149 
L 348.075 -186.486061 
L 341.1 -198.605996 
L 334.125 -194.708611 
L 327.15 -191.22295 
L 320.175 -192.407093 
L 313.2 -186.793652 
L 306.225 -190.419403 
L 299.25 -191.644503 
L 292.275 -191.210869 
L 285.3 -186.71995 
L 278.325 -183.111907 
L 271.35 -190.164163 
L 264.375 -194.287169 
L 257.4 -195.233201 
L 250.425 -179.853511 
L 243.45 -177.024144 
L 236.475 -178.425609 
L 229.5 -173.128724 
L 222.525 -181.227151 
L 215.55 -187.629455 
L 208.575 -186.145994 
L 201.6 -187.081211 
L 194.625 -189.299957 
L 187.65 -197.053738 
L 180.675 -190.416222 
L 173.7 -211.963813 
L 166.725 -203.136053 
L 159.75 -194.414812 
L 152.775 -206.628789 
L 145.8 -222.890123 
L 138.825 -220.791402 
L 131.85 -225.225003 
L 124.875 -232.101264 
L 117.9 -228.241188 
L 110.925 -237.548456 
L 103.95 -232.128636 
L 96.975 -225.208384 
L 90 -253.481003 
z
" id="medda5014c3" style="stroke:#a0a0a0;stroke-opacity:0.2;"/>
    </defs>
    <g clip-path="url(#p819bb8586e)">
     <use style="fill:#a0a0a0;fill-opacity:0.2;stroke:#a0a0a0;stroke-opacity:0.2;" x="0" xlink:href="#medda5014c3" y="432"/>
    </g>
   </g>
   <g id="PolyCollection_2">
    <defs>
     <path d="M 90 -178.700617 
L 90 -17.409677 
L 96.975 -32.455536 
L 103.95 -33.430926 
L 110.925 -45.94962 
L 117.9 -54.954829 
L 124.875 -98.163414 
L 131.85 -102.924164 
L 138.825 -101.453682 
L 145.8 -82.654373 
L 152.775 -105.204133 
L 159.75 -103.093518 
L 166.725 -103.010354 
L 173.7 -112.284647 
L 180.675 -100.100332 
L 187.65 -97.974489 
L 194.625 -104.148343 
L 201.6 -127.678954 
L 208.575 -133.366877 
L 215.55 -134.472109 
L 222.525 -132.469375 
L 229.5 -140.442968 
L 236.475 -142.127416 
L 243.45 -143.036748 
L 250.425 -131.224991 
L 257.4 -131.635338 
L 264.375 -114.067384 
L 271.35 -121.739506 
L 278.325 -123.178193 
L 285.3 -131.088762 
L 292.275 -129.328613 
L 299.25 -130.887717 
L 306.225 -133.688046 
L 313.2 -139.601544 
L 320.175 -137.394 
L 327.15 -130.302988 
L 334.125 -133.667391 
L 341.1 -132.676971 
L 348.075 -105.451629 
L 355.05 -111.222762 
L 362.025 -108.155956 
L 369 -103.338983 
L 375.975 -112.115816 
L 382.95 -118.656939 
L 389.925 -106.812948 
L 396.9 -111.774373 
L 403.875 -126.658587 
L 410.85 -132.828915 
L 417.825 -138.941889 
L 424.8 -137.598868 
L 431.775 -143.953569 
L 438.75 -146.83865 
L 445.725 -157.740593 
L 452.7 -152.429333 
L 459.675 -141.095769 
L 466.65 -143.031649 
L 473.625 -148.367559 
L 480.6 -160.642221 
L 487.575 -153.403316 
L 494.55 -164.729936 
L 501.525 -162.380358 
L 508.5 -165.461675 
L 515.475 -162.490965 
L 522.45 -139.247107 
L 529.425 -139.326845 
L 536.4 -132.888554 
L 543.375 -136.319752 
L 550.35 -135.060234 
L 557.325 -146.708426 
L 564.3 -143.773372 
L 571.275 -143.506639 
L 578.25 -134.753022 
L 585.225 -131.369077 
L 592.2 -127.143982 
L 599.175 -133.385811 
L 606.15 -132.336995 
L 613.125 -128.619746 
L 620.1 -137.438797 
L 627.075 -139.114442 
L 634.05 -128.403916 
L 641.025 -143.233109 
L 641.025 -183.054352 
L 641.025 -183.054352 
L 634.05 -179.439644 
L 627.075 -179.383448 
L 620.1 -180.465844 
L 613.125 -178.886352 
L 606.15 -187.842813 
L 599.175 -182.733935 
L 592.2 -175.010913 
L 585.225 -176.801095 
L 578.25 -166.047879 
L 571.275 -171.495985 
L 564.3 -176.977808 
L 557.325 -182.775937 
L 550.35 -178.525429 
L 543.375 -182.045611 
L 536.4 -184.780636 
L 529.425 -191.918174 
L 522.45 -188.626725 
L 515.475 -198.214739 
L 508.5 -205.218275 
L 501.525 -210.697385 
L 494.55 -208.266154 
L 487.575 -199.92701 
L 480.6 -178.201191 
L 473.625 -156.31321 
L 466.65 -161.715035 
L 459.675 -165.561002 
L 452.7 -163.389229 
L 445.725 -164.877704 
L 438.75 -170.104714 
L 431.775 -161.675837 
L 424.8 -168.152346 
L 417.825 -171.635821 
L 410.85 -167.484215 
L 403.875 -154.653827 
L 396.9 -171.247203 
L 389.925 -170.944033 
L 382.95 -165.706107 
L 375.975 -172.231353 
L 369 -168.42239 
L 362.025 -172.295872 
L 355.05 -165.075182 
L 348.075 -161.242642 
L 341.1 -156.565497 
L 334.125 -166.312444 
L 327.15 -158.775503 
L 320.175 -159.080208 
L 313.2 -153.911235 
L 306.225 -161.955865 
L 299.25 -171.147036 
L 292.275 -169.192171 
L 285.3 -181.810464 
L 278.325 -180.740648 
L 271.35 -189.303118 
L 264.375 -191.821564 
L 257.4 -194.116411 
L 250.425 -202.483571 
L 243.45 -202.568926 
L 236.475 -200.762652 
L 229.5 -193.42457 
L 222.525 -183.976926 
L 215.55 -160.109033 
L 208.575 -150.613484 
L 201.6 -155.89521 
L 194.625 -145.921673 
L 187.65 -166.999034 
L 180.675 -160.835774 
L 173.7 -156.2345 
L 166.725 -155.021989 
L 159.75 -158.033956 
L 152.775 -162.343583 
L 145.8 -159.856157 
L 138.825 -163.948506 
L 131.85 -157.433669 
L 124.875 -156.241729 
L 117.9 -157.422991 
L 110.925 -166.948634 
L 103.95 -170.696308 
L 96.975 -171.910104 
L 90 -178.700617 
z
" id="m65327b9687" style="stroke:#a0a0a0;stroke-opacity:0.2;"/>
    </defs>
    <g clip-path="url(#p819bb8586e)">
     <use style="fill:#a0a0a0;fill-opacity:0.2;stroke:#a0a0a0;stroke-opacity:0.2;" x="0" xlink:href="#m65327b9687" y="432"/>
    </g>
   </g>
   <g id="PolyCollection_3">
    <defs>
     <path d="M 90 -297.404326 
L 90 -137.124932 
L 96.975 -111.024359 
L 103.95 -135.270087 
L 110.925 -132.850646 
L 117.9 -122.308271 
L 124.875 -125.460536 
L 131.85 -116.6994 
L 138.825 -111.751638 
L 145.8 -125.646114 
L 152.775 -128.959469 
L 159.75 -132.839344 
L 166.725 -121.171625 
L 173.7 -129.938783 
L 180.675 -134.129224 
L 187.65 -141.660233 
L 194.625 -159.076245 
L 201.6 -156.616078 
L 208.575 -148.835471 
L 215.55 -149.292804 
L 222.525 -151.098543 
L 229.5 -145.210409 
L 236.475 -155.148579 
L 243.45 -155.007854 
L 250.425 -154.9766 
L 257.4 -159.907829 
L 264.375 -159.086768 
L 271.35 -171.896446 
L 278.325 -172.711419 
L 285.3 -171.759373 
L 292.275 -179.271272 
L 299.25 -164.021879 
L 306.225 -175.797611 
L 313.2 -171.64836 
L 320.175 -162.345362 
L 327.15 -159.54763 
L 334.125 -152.444861 
L 341.1 -153.999368 
L 348.075 -144.366942 
L 355.05 -142.807608 
L 362.025 -138.927387 
L 369 -141.952861 
L 375.975 -141.402321 
L 382.95 -146.36173 
L 389.925 -151.732478 
L 396.9 -143.545191 
L 403.875 -150.658409 
L 410.85 -151.309892 
L 417.825 -150.002705 
L 424.8 -160.20608 
L 431.775 -165.218294 
L 438.75 -168.554214 
L 445.725 -144.655191 
L 452.7 -127.070941 
L 459.675 -137.950785 
L 466.65 -126.845031 
L 473.625 -126.626238 
L 480.6 -121.464072 
L 487.575 -143.435311 
L 494.55 -147.888947 
L 501.525 -145.198685 
L 508.5 -146.323259 
L 515.475 -150.2677 
L 522.45 -166.225552 
L 529.425 -160.816898 
L 536.4 -160.150912 
L 543.375 -162.163039 
L 550.35 -165.286634 
L 557.325 -167.6745 
L 564.3 -169.694033 
L 571.275 -156.080179 
L 578.25 -141.367595 
L 585.225 -147.621878 
L 592.2 -139.438604 
L 599.175 -141.302215 
L 606.15 -142.946894 
L 613.125 -143.750061 
L 620.1 -137.633117 
L 627.075 -147.189456 
L 634.05 -143.491562 
L 641.025 -136.904488 
L 641.025 -251.202984 
L 641.025 -251.202984 
L 634.05 -249.783659 
L 627.075 -244.148342 
L 620.1 -242.703767 
L 613.125 -241.622656 
L 606.15 -245.146849 
L 599.175 -239.464314 
L 592.2 -244.109909 
L 585.225 -234.217931 
L 578.25 -238.031728 
L 571.275 -223.62495 
L 564.3 -221.028972 
L 557.325 -212.751818 
L 550.35 -228.595423 
L 543.375 -227.849078 
L 536.4 -234.712286 
L 529.425 -231.523972 
L 522.45 -213.841378 
L 515.475 -217.868943 
L 508.5 -212.825426 
L 501.525 -207.851198 
L 494.55 -205.904149 
L 487.575 -218.151615 
L 480.6 -202.018315 
L 473.625 -194.124288 
L 466.65 -188.171907 
L 459.675 -198.831321 
L 452.7 -192.073483 
L 445.725 -194.817922 
L 438.75 -198.259126 
L 431.775 -222.010418 
L 424.8 -232.632734 
L 417.825 -230.812514 
L 410.85 -232.254057 
L 403.875 -225.969009 
L 396.9 -224.72881 
L 389.925 -223.600019 
L 382.95 -235.110729 
L 375.975 -230.475889 
L 369 -232.133649 
L 362.025 -231.38518 
L 355.05 -230.212134 
L 348.075 -238.22193 
L 341.1 -230.495539 
L 334.125 -216.499525 
L 327.15 -217.534366 
L 320.175 -220.430716 
L 313.2 -216.889359 
L 306.225 -210.460703 
L 299.25 -217.529921 
L 292.275 -222.257784 
L 285.3 -223.107381 
L 278.325 -218.393161 
L 271.35 -227.665626 
L 264.375 -231.916905 
L 257.4 -233.537657 
L 250.425 -231.529022 
L 243.45 -226.854422 
L 236.475 -230.602558 
L 229.5 -228.871632 
L 222.525 -228.04926 
L 215.55 -226.482949 
L 208.575 -225.236275 
L 201.6 -225.662827 
L 194.625 -233.902669 
L 187.65 -236.699171 
L 180.675 -233.514138 
L 173.7 -228.652087 
L 166.725 -237.694965 
L 159.75 -249.155686 
L 152.775 -238.630942 
L 145.8 -233.623404 
L 138.825 -239.727229 
L 131.85 -251.295021 
L 124.875 -262.031726 
L 117.9 -269.050201 
L 110.925 -277.458983 
L 103.95 -279.408519 
L 96.975 -279.469628 
L 90 -297.404326 
z
" id="mb45e6f6871" style="stroke:#4c72b0;stroke-opacity:0.2;"/>
    </defs>
    <g clip-path="url(#p819bb8586e)">
     <use style="fill:#4c72b0;fill-opacity:0.2;stroke:#4c72b0;stroke-opacity:0.2;" x="0" xlink:href="#mb45e6f6871" y="432"/>
    </g>
   </g>
   <g id="PolyCollection_4">
    <defs>
     <path d="M 90 -152.856143 
L 90 -133.127334 
L 96.975 -134.27986 
L 103.95 -139.497617 
L 110.925 -146.773042 
L 117.9 -132.905392 
L 124.875 -149.24411 
L 131.85 -138.598378 
L 138.825 -142.256761 
L 145.8 -147.222445 
L 152.775 -157.441638 
L 159.75 -160.667591 
L 166.725 -167.864467 
L 173.7 -157.629799 
L 180.675 -157.759028 
L 187.65 -161.750029 
L 194.625 -165.441353 
L 201.6 -179.660814 
L 208.575 -176.56339 
L 215.55 -173.94804 
L 222.525 -167.41021 
L 229.5 -160.798286 
L 236.475 -165.677164 
L 243.45 -171.682852 
L 250.425 -164.859532 
L 257.4 -178.798502 
L 264.375 -130.149275 
L 271.35 -114.474863 
L 278.325 -113.942916 
L 285.3 -124.669628 
L 292.275 -126.990486 
L 299.25 -97.401683 
L 306.225 -107.558967 
L 313.2 -94.991634 
L 320.175 -79.003963 
L 327.15 -74.751666 
L 334.125 -96.096781 
L 341.1 -88.68686 
L 348.075 -106.276639 
L 355.05 -114.259561 
L 362.025 -106.837816 
L 369 -112.841563 
L 375.975 -117.198954 
L 382.95 -114.848476 
L 389.925 -106.031698 
L 396.9 -103.640628 
L 403.875 -107.341996 
L 410.85 -119.319789 
L 417.825 -109.626674 
L 424.8 -110.228783 
L 431.775 -102.602324 
L 438.75 -118.022739 
L 445.725 -114.027655 
L 452.7 -107.663357 
L 459.675 -120.736143 
L 466.65 -123.853631 
L 473.625 -121.564374 
L 480.6 -117.22669 
L 487.575 -132.086549 
L 494.55 -129.837552 
L 501.525 -131.999729 
L 508.5 -138.465174 
L 515.475 -128.330102 
L 522.45 -119.75792 
L 529.425 -134.285608 
L 536.4 -140.003115 
L 543.375 -160.899903 
L 550.35 -173.638081 
L 557.325 -172.054819 
L 564.3 -184.558798 
L 571.275 -177.938369 
L 578.25 -164.259688 
L 585.225 -159.650931 
L 592.2 -163.771042 
L 599.175 -174.100289 
L 606.15 -170.67977 
L 613.125 -172.581435 
L 620.1 -165.705185 
L 627.075 -161.720595 
L 634.05 -151.83853 
L 641.025 -152.677134 
L 641.025 -179.975987 
L 641.025 -179.975987 
L 634.05 -178.352718 
L 627.075 -180.787924 
L 620.1 -181.410632 
L 613.125 -181.477892 
L 606.15 -189.592051 
L 599.175 -193.595435 
L 592.2 -204.654316 
L 585.225 -183.111102 
L 578.25 -179.388826 
L 571.275 -189.956239 
L 564.3 -189.341333 
L 557.325 -188.240957 
L 550.35 -188.835895 
L 543.375 -189.266013 
L 536.4 -189.226873 
L 529.425 -189.955741 
L 522.45 -193.422999 
L 515.475 -193.415998 
L 508.5 -196.689791 
L 501.525 -189.911229 
L 494.55 -189.987628 
L 487.575 -183.718613 
L 480.6 -204.498576 
L 473.625 -211.435927 
L 466.65 -200.71918 
L 459.675 -201.66447 
L 452.7 -203.488439 
L 445.725 -207.26108 
L 438.75 -208.052344 
L 431.775 -195.327375 
L 424.8 -184.462461 
L 417.825 -187.333142 
L 410.85 -188.971918 
L 403.875 -178.110258 
L 396.9 -191.927057 
L 389.925 -207.663727 
L 382.95 -199.911365 
L 375.975 -194.070968 
L 369 -201.768267 
L 362.025 -205.464018 
L 355.05 -201.985852 
L 348.075 -199.960101 
L 341.1 -188.108532 
L 334.125 -181.767252 
L 327.15 -183.243054 
L 320.175 -194.174534 
L 313.2 -186.753119 
L 306.225 -187.351942 
L 299.25 -187.868962 
L 292.275 -190.389377 
L 285.3 -198.114418 
L 278.325 -199.497806 
L 271.35 -202.598954 
L 264.375 -200.836082 
L 257.4 -188.706904 
L 250.425 -187.086397 
L 243.45 -190.591827 
L 236.475 -192.73459 
L 229.5 -195.604815 
L 222.525 -193.499645 
L 215.55 -205.36938 
L 208.575 -205.86452 
L 201.6 -211.34407 
L 194.625 -203.260117 
L 187.65 -206.927553 
L 180.675 -200.865137 
L 173.7 -187.704403 
L 166.725 -191.440231 
L 159.75 -187.855515 
L 152.775 -183.93769 
L 145.8 -186.754898 
L 138.825 -178.244027 
L 131.85 -168.880171 
L 124.875 -161.322839 
L 117.9 -160.819993 
L 110.925 -158.120238 
L 103.95 -162.452854 
L 96.975 -160.394864 
L 90 -152.856143 
z
" id="m02b4b51c1b" style="stroke:#dd8452;stroke-opacity:0.2;"/>
    </defs>
    <g clip-path="url(#p819bb8586e)">
     <use style="fill:#dd8452;fill-opacity:0.2;stroke:#dd8452;stroke-opacity:0.2;" x="0" xlink:href="#m02b4b51c1b" y="432"/>
    </g>
   </g>
   <g id="PolyCollection_5">
    <defs>
     <path d="M 90 -186.48818 
L 90 -94.647999 
L 96.975 -114.917876 
L 103.95 -122.417833 
L 110.925 -124.387263 
L 117.9 -126.365466 
L 124.875 -118.139912 
L 131.85 -125.846157 
L 138.825 -113.605545 
L 145.8 -93.077771 
L 152.775 -86.943166 
L 159.75 -96.398651 
L 166.725 -117.765473 
L 173.7 -127.082647 
L 180.675 -119.62787 
L 187.65 -122.243715 
L 194.625 -102.812245 
L 201.6 -109.041872 
L 208.575 -120.919296 
L 215.55 -129.280565 
L 222.525 -122.64582 
L 229.5 -142.502086 
L 236.475 -136.046717 
L 243.45 -137.710128 
L 250.425 -135.010765 
L 257.4 -143.579049 
L 264.375 -132.747806 
L 271.35 -154.654241 
L 278.325 -153.39195 
L 285.3 -158.252704 
L 292.275 -159.989619 
L 299.25 -132.772961 
L 306.225 -122.802255 
L 313.2 -113.728223 
L 320.175 -122.326032 
L 327.15 -115.913506 
L 334.125 -126.814274 
L 341.1 -123.027048 
L 348.075 -109.435623 
L 355.05 -101.500953 
L 362.025 -98.669314 
L 369 -99.229953 
L 375.975 -105.396093 
L 382.95 -112.871079 
L 389.925 -111.067371 
L 396.9 -109.219801 
L 403.875 -116.75472 
L 410.85 -108.227962 
L 417.825 -108.381239 
L 424.8 -117.503279 
L 431.775 -121.983456 
L 438.75 -131.140091 
L 445.725 -121.091816 
L 452.7 -113.246267 
L 459.675 -103.337279 
L 466.65 -126.253893 
L 473.625 -130.081562 
L 480.6 -132.590255 
L 487.575 -120.464643 
L 494.55 -120.646281 
L 501.525 -115.73423 
L 508.5 -117.463487 
L 515.475 -113.727567 
L 522.45 -125.047606 
L 529.425 -131.022808 
L 536.4 -140.123518 
L 543.375 -143.435934 
L 550.35 -131.580286 
L 557.325 -121.028068 
L 564.3 -97.852799 
L 571.275 -111.388418 
L 578.25 -101.224643 
L 585.225 -95.159482 
L 592.2 -101.651879 
L 599.175 -109.359082 
L 606.15 -103.265008 
L 613.125 -114.062776 
L 620.1 -109.027878 
L 627.075 -106.832089 
L 634.05 -94.907261 
L 641.025 -107.470254 
L 641.025 -198.578706 
L 641.025 -198.578706 
L 634.05 -205.066537 
L 627.075 -191.793321 
L 620.1 -185.655509 
L 613.125 -176.961408 
L 606.15 -185.196616 
L 599.175 -174.685453 
L 592.2 -176.746126 
L 585.225 -173.622304 
L 578.25 -173.864409 
L 571.275 -183.092528 
L 564.3 -191.666563 
L 557.325 -200.965383 
L 550.35 -212.238744 
L 543.375 -199.820542 
L 536.4 -191.937931 
L 529.425 -191.913858 
L 522.45 -200.980696 
L 515.475 -215.860699 
L 508.5 -193.092436 
L 501.525 -189.241976 
L 494.55 -184.069372 
L 487.575 -174.546311 
L 480.6 -171.392392 
L 473.625 -168.463934 
L 466.65 -180.239905 
L 459.675 -177.616784 
L 452.7 -179.267536 
L 445.725 -175.738728 
L 438.75 -171.855742 
L 431.775 -159.616677 
L 424.8 -163.70714 
L 417.825 -154.983998 
L 410.85 -152.335509 
L 403.875 -158.694849 
L 396.9 -170.675208 
L 389.925 -172.928511 
L 382.95 -173.868836 
L 375.975 -176.4061 
L 369 -178.89085 
L 362.025 -181.096258 
L 355.05 -184.409594 
L 348.075 -186.751074 
L 341.1 -188.047103 
L 334.125 -191.58459 
L 327.15 -195.979222 
L 320.175 -206.455996 
L 313.2 -202.846918 
L 306.225 -197.886925 
L 299.25 -192.856271 
L 292.275 -194.334419 
L 285.3 -200.064833 
L 278.325 -206.166162 
L 271.35 -202.09709 
L 264.375 -204.974007 
L 257.4 -198.409667 
L 250.425 -195.41799 
L 243.45 -197.205038 
L 236.475 -198.366946 
L 229.5 -200.432592 
L 222.525 -198.290069 
L 215.55 -204.684321 
L 208.575 -221.105448 
L 201.6 -218.24175 
L 194.625 -237.865117 
L 187.65 -219.645532 
L 180.675 -214.238804 
L 173.7 -217.929784 
L 166.725 -221.665664 
L 159.75 -218.951437 
L 152.775 -224.550666 
L 145.8 -216.624344 
L 138.825 -212.805493 
L 131.85 -217.068292 
L 124.875 -200.076582 
L 117.9 -200.985099 
L 110.925 -207.964638 
L 103.95 -188.005997 
L 96.975 -189.297005 
L 90 -186.48818 
z
" id="m5f0f3f3cff" style="stroke:#55a868;stroke-opacity:0.2;"/>
    </defs>
    <g clip-path="url(#p819bb8586e)">
     <use style="fill:#55a868;fill-opacity:0.2;stroke:#55a868;stroke-opacity:0.2;" x="0" xlink:href="#m5f0f3f3cff" y="432"/>
    </g>
   </g>
   <g id="line2d_12">
    <path clip-path="url(#p819bb8586e)" d="M 90 235.340291 
L 96.975 245.706048 
L 103.95 243.295386 
L 110.925 254.65095 
L 117.9 261.45142 
L 124.875 260.234144 
L 131.85 277.432748 
L 138.825 276.520732 
L 145.8 277.268548 
L 152.775 280.688521 
L 159.75 288.053491 
L 166.725 272.875714 
L 173.7 267.149548 
L 180.675 271.928381 
L 187.65 265.277412 
L 194.625 275.18352 
L 201.6 272.994201 
L 208.575 276.137744 
L 215.55 278.777765 
L 222.525 287.891122 
L 229.5 292.632829 
L 236.475 287.462742 
L 243.45 290.471861 
L 250.425 284.573372 
L 257.4 276.904361 
L 264.375 285.753861 
L 271.35 286.581845 
L 278.325 286.915895 
L 285.3 286.503658 
L 292.275 295.493995 
L 299.25 286.938894 
L 306.225 292.431325 
L 313.2 293.067388 
L 320.175 284.588701 
L 327.15 280.477266 
L 334.125 279.04228 
L 341.1 276.548571 
L 348.075 272.644628 
L 355.05 273.713614 
L 362.025 271.58354 
L 369 266.670265 
L 375.975 268.138243 
L 382.95 267.321544 
L 389.925 275.780753 
L 396.9 276.202565 
L 403.875 278.007988 
L 410.85 287.07812 
L 417.825 280.917052 
L 424.8 280.270968 
L 431.775 282.037419 
L 438.75 292.401947 
L 445.725 301.749188 
L 452.7 305.04872 
L 459.675 306.139072 
L 466.65 306.134052 
L 473.625 303.287768 
L 480.6 298.500857 
L 487.575 293.579216 
L 494.55 299.584128 
L 501.525 297.247562 
L 508.5 301.380773 
L 515.475 294.411637 
L 522.45 287.777066 
L 529.425 287.116557 
L 536.4 277.125529 
L 543.375 279.342137 
L 550.35 271.130689 
L 557.325 276.323808 
L 564.3 285.765731 
L 571.275 284.758679 
L 578.25 281.832335 
L 585.225 285.543715 
L 592.2 277.921307 
L 599.175 280.717587 
L 606.15 286.646208 
L 613.125 291.873965 
L 620.1 291.016891 
L 627.075 292.918019 
L 634.05 291.318795 
L 641.025 297.29525 
" style="fill:none;stroke:#a0a0a0;stroke-linecap:round;stroke-width:2.5;"/>
   </g>
   <g id="line2d_13">
    <path clip-path="url(#p819bb8586e)" d="M 90 316.531792 
L 96.975 316.162317 
L 103.95 316.369075 
L 110.925 311.279162 
L 117.9 315.108489 
L 124.875 304.129338 
L 131.85 301.821083 
L 138.825 297.896421 
L 145.8 308.906209 
L 152.775 298.142374 
L 159.75 301.512366 
L 166.725 302.983828 
L 173.7 296.732053 
L 180.675 295.665372 
L 187.65 297.13762 
L 194.625 303.981867 
L 201.6 292.199731 
L 208.575 290.00982 
L 215.55 281.721548 
L 222.525 272.464248 
L 229.5 265.066231 
L 236.475 260.24616 
L 243.45 259.197163 
L 250.425 265.145719 
L 257.4 268.980139 
L 264.375 279.055526 
L 271.35 276.478688 
L 278.325 278.714084 
L 285.3 274.563392 
L 292.275 280.537991 
L 299.25 280.982623 
L 306.225 284.178045 
L 313.2 284.149912 
L 320.175 282.561004 
L 327.15 286.903121 
L 334.125 280.466426 
L 341.1 285.800967 
L 348.075 298.652865 
L 355.05 294.496962 
L 362.025 294.88726 
L 369 295.888818 
L 375.975 289.011293 
L 382.95 289.96774 
L 389.925 292.536818 
L 396.9 291.101332 
L 403.875 291.666752 
L 410.85 285.276406 
L 417.825 280.735103 
L 424.8 279.303406 
L 431.775 279.650861 
L 438.75 274.723884 
L 445.725 269.548823 
L 452.7 274.090719 
L 459.675 277.366512 
L 466.65 279.626658 
L 473.625 278.547758 
L 480.6 260.383735 
L 487.575 252.556918 
L 494.55 244.469226 
L 501.525 244.266558 
L 508.5 245.229089 
L 515.475 250.912149 
L 522.45 265.365459 
L 529.425 262.49138 
L 536.4 272.723264 
L 543.375 272.766379 
L 550.35 275.207169 
L 557.325 267.257818 
L 564.3 272.980511 
L 571.275 277.784018 
L 578.25 281.383196 
L 585.225 281.346932 
L 592.2 280.422627 
L 599.175 274.456178 
L 606.15 268.812487 
L 613.125 275.266411 
L 620.1 273.04768 
L 627.075 270.811707 
L 634.05 278.07822 
L 641.025 268.856269 
" style="fill:none;stroke:#a0a0a0;stroke-linecap:round;stroke-width:2.5;"/>
   </g>
   <g id="line2d_14">
    <path clip-path="url(#p819bb8586e)" d="M 90 214.52457 
L 96.975 231.849958 
L 103.95 223.150455 
L 110.925 222.833938 
L 117.9 231.461815 
L 124.875 237.822928 
L 131.85 251.244101 
L 138.825 255.929127 
L 145.8 254.448113 
L 152.775 255.766455 
L 159.75 248.015742 
L 166.725 254.763023 
L 173.7 253.959563 
L 180.675 248.496183 
L 187.65 244.467057 
L 194.625 238.287414 
L 201.6 242.851874 
L 208.575 247.337176 
L 215.55 249.144121 
L 222.525 253.989139 
L 229.5 247.897821 
L 236.475 239.124431 
L 243.45 241.068862 
L 250.425 238.747189 
L 257.4 235.379237 
L 264.375 242.678826 
L 271.35 236.640247 
L 278.325 237.044771 
L 285.3 240.902141 
L 292.275 232.729658 
L 299.25 240.179719 
L 306.225 238.870843 
L 313.2 237.73114 
L 320.175 240.611961 
L 327.15 243.459002 
L 334.125 247.593727 
L 341.1 239.752547 
L 348.075 245.592341 
L 355.05 249.096839 
L 362.025 249.141047 
L 369 251.406611 
L 375.975 252.183266 
L 382.95 248.981672 
L 389.925 250.947296 
L 396.9 253.983732 
L 403.875 251.170646 
L 410.85 247.162721 
L 417.825 248.599087 
L 424.8 241.051756 
L 431.775 242.184416 
L 438.75 248.84286 
L 445.725 264.116708 
L 452.7 272.427788 
L 459.675 265.496907 
L 466.65 274.455626 
L 473.625 271.624737 
L 480.6 270.258806 
L 487.575 251.206537 
L 494.55 253.055294 
L 501.525 250.24781 
L 508.5 246.737855 
L 515.475 243.512625 
L 522.45 242.195857 
L 529.425 234.406568 
L 536.4 234.568401 
L 543.375 236.993941 
L 550.35 235.058971 
L 557.325 241.786841 
L 564.3 235.923399 
L 571.275 239.78081 
L 578.25 237.485806 
L 585.225 239.541414 
L 592.2 238.479403 
L 599.175 237.779235 
L 606.15 234.78752 
L 613.125 230.208188 
L 620.1 230.828878 
L 627.075 228.261331 
L 634.05 227.831113 
L 641.025 232.230408 
" style="fill:none;stroke:#4c72b0;stroke-linecap:round;stroke-width:2.5;"/>
   </g>
   <g id="line2d_15">
    <path clip-path="url(#p819bb8586e)" d="M 90 288.385449 
L 96.975 286.227764 
L 103.95 279.764724 
L 110.925 279.641066 
L 117.9 284.405335 
L 124.875 278.08298 
L 131.85 276.767346 
L 138.825 271.749606 
L 145.8 267.758262 
L 152.775 259.816115 
L 159.75 255.173522 
L 166.725 252.059978 
L 173.7 256.067318 
L 180.675 248.583189 
L 187.65 241.990214 
L 194.625 247.516777 
L 201.6 238.613667 
L 208.575 241.092994 
L 215.55 243.738877 
L 222.525 249.647611 
L 229.5 253.798449 
L 236.475 252.402626 
L 243.45 250.862661 
L 250.425 254.773104 
L 257.4 248.490096 
L 264.375 260.394485 
L 271.35 262.439055 
L 278.325 264.079254 
L 285.3 261.272203 
L 292.275 268.917243 
L 299.25 279.9058 
L 306.225 277.327178 
L 313.2 278.529471 
L 320.175 281.715647 
L 327.15 288.260481 
L 334.125 281.305888 
L 341.1 282.719232 
L 348.075 270.309234 
L 355.05 263.145903 
L 362.025 265.476608 
L 369 267.764952 
L 375.975 268.551731 
L 382.95 265.39986 
L 389.925 265.124511 
L 396.9 272.133017 
L 403.875 283.104729 
L 410.85 277.467692 
L 417.825 287.819299 
L 424.8 283.806611 
L 431.775 278.638075 
L 438.75 273.116422 
L 445.725 274.730575 
L 452.7 277.192254 
L 459.675 270.799694 
L 466.65 269.713595 
L 473.625 263.6201 
L 480.6 262.951861 
L 487.575 266.130308 
L 494.55 265.069769 
L 501.525 263.557129 
L 508.5 261.301436 
L 515.475 265.134622 
L 522.45 267.663879 
L 529.425 265.424457 
L 536.4 264.570225 
L 543.375 254.303139 
L 550.35 250.2155 
L 557.325 250.85133 
L 564.3 245.049935 
L 571.275 248.056261 
L 578.25 257.986357 
L 585.225 259.422004 
L 592.2 247.50606 
L 599.175 248.918248 
L 606.15 252.666789 
L 613.125 254.288064 
L 620.1 256.668826 
L 627.075 258.694814 
L 634.05 265.651274 
L 641.025 265.689554 
" style="fill:none;stroke:#dd8452;stroke-linecap:round;stroke-width:2.5;"/>
   </g>
   <g id="line2d_16">
    <path clip-path="url(#p819bb8586e)" d="M 90 291.431911 
L 96.975 276.001727 
L 103.95 276.788085 
L 110.925 265.937686 
L 117.9 268.324717 
L 124.875 272.891753 
L 131.85 260.542775 
L 138.825 268.794481 
L 145.8 277.148943 
L 152.775 276.253084 
L 159.75 271.904728 
L 166.725 262.284431 
L 173.7 261.303537 
L 180.675 265.322315 
L 187.65 261.688718 
L 194.625 271.383793 
L 201.6 268.907364 
L 208.575 261.596436 
L 215.55 264.663751 
L 222.525 267.58587 
L 229.5 256.560643 
L 236.475 258.131105 
L 243.45 258.988972 
L 250.425 262.244923 
L 257.4 256.649034 
L 264.375 256.34592 
L 271.35 248.749549 
L 278.325 246.615406 
L 285.3 247.49846 
L 292.275 250.966628 
L 299.25 262.604653 
L 306.225 267.842869 
L 313.2 273.71243 
L 320.175 267.451471 
L 327.15 273.902834 
L 334.125 272.274741 
L 341.1 275.379339 
L 348.075 279.194247 
L 355.05 278.780424 
L 362.025 281.121753 
L 369 282.364616 
L 375.975 281.620166 
L 382.95 279.876773 
L 389.925 284.127693 
L 396.9 287.361782 
L 403.875 292.611901 
L 410.85 300.744447 
L 417.825 300.139835 
L 424.8 289.85524 
L 431.775 287.372603 
L 438.75 280.81809 
L 445.725 287.055399 
L 452.7 289.898266 
L 459.675 293.699176 
L 466.65 285.042788 
L 473.625 287.009418 
L 480.6 280.008677 
L 487.575 283.814321 
L 494.55 278.09426 
L 501.525 275.835407 
L 508.5 275.003847 
L 515.475 269.677362 
L 522.45 271.438661 
L 529.425 270.531667 
L 536.4 265.969275 
L 543.375 260.324193 
L 550.35 260.090485 
L 557.325 269.377123 
L 564.3 278.476413 
L 571.275 277.802608 
L 578.25 287.567005 
L 585.225 290.134194 
L 592.2 287.582812 
L 599.175 287.774061 
L 606.15 288.167669 
L 613.125 286.487908 
L 620.1 286.729109 
L 627.075 286.459296 
L 634.05 289.502059 
L 641.025 287.60375 
" style="fill:none;stroke:#55a868;stroke-linecap:round;stroke-width:2.5;"/>
   </g>
   <g id="line2d_17"/>
   <g id="line2d_18"/>
   <g id="line2d_19"/>
   <g id="line2d_20"/>
   <g id="line2d_21"/>
   <g id="line2d_22"/>
   <g id="line2d_23">
    <path clip-path="url(#p819bb8586e)" d="M 90 312.768 
L 648 312.768 
" style="fill:none;stroke:#a0a0a0;stroke-dasharray:9.25,4;stroke-dashoffset:0;stroke-width:2.5;"/>
   </g>
   <g id="line2d_24">
    <path clip-path="url(#p819bb8586e)" d="M 90 312.768 
L 648 312.768 
" style="fill:none;stroke:#a0a0a0;stroke-dasharray:9.25,4;stroke-dashoffset:0;stroke-width:2.5;"/>
   </g>
   <g id="line2d_25">
    <path clip-path="url(#p819bb8586e)" d="M 90 204.048 
L 648 204.048 
" style="fill:none;stroke:#4c72b0;stroke-dasharray:9.25,4;stroke-dashoffset:0;stroke-width:2.5;"/>
   </g>
   <g id="line2d_26">
    <path clip-path="url(#p819bb8586e)" d="M 90 204.048 
L 648 204.048 
" style="fill:none;stroke:#dd8452;stroke-dasharray:9.25,4;stroke-dashoffset:0;stroke-width:2.5;"/>
   </g>
   <g id="line2d_27">
    <path clip-path="url(#p819bb8586e)" d="M 90 204.048 
L 648 204.048 
" style="fill:none;stroke:#55a868;stroke-dasharray:9.25,4;stroke-dashoffset:0;stroke-width:2.5;"/>
   </g>
   <g id="patch_3">
    <path d="M 90 378 
L 90 51.84 
" style="fill:none;stroke:#262626;stroke-linecap:square;stroke-linejoin:miter;stroke-width:1.25;"/>
   </g>
   <g id="patch_4">
    <path d="M 90 378 
L 648 378 
" style="fill:none;stroke:#262626;stroke-linecap:square;stroke-linejoin:miter;stroke-width:1.25;"/>
   </g>
   <g id="legend_1">
    <g id="patch_5">
     <path d="M 678.3 140.311875 
L 740.053125 140.311875 
Q 742.453125 140.311875 742.453125 137.911875 
L 742.453125 54.24 
Q 742.453125 51.84 740.053125 51.84 
L 678.3 51.84 
Q 675.9 51.84 675.9 54.24 
L 675.9 137.911875 
Q 675.9 140.311875 678.3 140.311875 
z
" style="fill:#ffffff;opacity:0.8;stroke:#000000;stroke-linejoin:miter;"/>
    </g>
    <g id="line2d_28">
     <path d="M 680.7 61.029375 
L 704.7 61.029375 
" style="fill:none;stroke:#a0a0a0;stroke-linecap:round;stroke-width:2.5;"/>
    </g>
    <g id="line2d_29"/>
    <g id="text_14">
     <!-- 0.00 -->
     <g style="fill:#262626;" transform="translate(714.3 65.229375)scale(0.12 -0.12)">
      <use xlink:href="#ArialMT-48"/>
      <use x="55.615234" xlink:href="#ArialMT-46"/>
      <use x="83.398438" xlink:href="#ArialMT-48"/>
      <use x="139.013672" xlink:href="#ArialMT-48"/>
     </g>
    </g>
    <g id="line2d_30">
     <path d="M 680.7 78.00375 
L 704.7 78.00375 
" style="fill:none;stroke:#a0a0a0;stroke-linecap:round;stroke-width:2.5;"/>
    </g>
    <g id="line2d_31"/>
    <g id="text_15">
     <!-- 0.00 -->
     <g style="fill:#262626;" transform="translate(714.3 82.20375)scale(0.12 -0.12)">
      <use xlink:href="#ArialMT-48"/>
      <use x="55.615234" xlink:href="#ArialMT-46"/>
      <use x="83.398438" xlink:href="#ArialMT-48"/>
      <use x="139.013672" xlink:href="#ArialMT-48"/>
     </g>
    </g>
    <g id="line2d_32">
     <path d="M 680.7 94.978125 
L 704.7 94.978125 
" style="fill:none;stroke:#4c72b0;stroke-linecap:round;stroke-width:2.5;"/>
    </g>
    <g id="line2d_33"/>
    <g id="text_16">
     <!-- 0.33 -->
     <defs>
      <path d="M 4.203125 18.890625 
L 12.984375 20.0625 
Q 14.5 12.59375 18.140625 9.296875 
Q 21.78125 6 27 6 
Q 33.203125 6 37.46875 10.296875 
Q 41.75 14.59375 41.75 20.953125 
Q 41.75 27 37.796875 30.921875 
Q 33.84375 34.859375 27.734375 34.859375 
Q 25.25 34.859375 21.53125 33.890625 
L 22.515625 41.609375 
Q 23.390625 41.5 23.921875 41.5 
Q 29.546875 41.5 34.03125 44.421875 
Q 38.53125 47.359375 38.53125 53.46875 
Q 38.53125 58.296875 35.25 61.46875 
Q 31.984375 64.65625 26.8125 64.65625 
Q 21.6875 64.65625 18.265625 61.421875 
Q 14.84375 58.203125 13.875 51.765625 
L 5.078125 53.328125 
Q 6.6875 62.15625 12.390625 67.015625 
Q 18.109375 71.875 26.609375 71.875 
Q 32.46875 71.875 37.390625 69.359375 
Q 42.328125 66.84375 44.9375 62.5 
Q 47.5625 58.15625 47.5625 53.265625 
Q 47.5625 48.640625 45.0625 44.828125 
Q 42.578125 41.015625 37.703125 38.765625 
Q 44.046875 37.3125 47.5625 32.6875 
Q 51.078125 28.078125 51.078125 21.140625 
Q 51.078125 11.765625 44.234375 5.25 
Q 37.40625 -1.265625 26.953125 -1.265625 
Q 17.53125 -1.265625 11.296875 4.34375 
Q 5.078125 9.96875 4.203125 18.890625 
z
" id="ArialMT-51"/>
     </defs>
     <g style="fill:#262626;" transform="translate(714.3 99.178125)scale(0.12 -0.12)">
      <use xlink:href="#ArialMT-48"/>
      <use x="55.615234" xlink:href="#ArialMT-46"/>
      <use x="83.398438" xlink:href="#ArialMT-51"/>
      <use x="139.013672" xlink:href="#ArialMT-51"/>
     </g>
    </g>
    <g id="line2d_34">
     <path d="M 680.7 111.9525 
L 704.7 111.9525 
" style="fill:none;stroke:#dd8452;stroke-linecap:round;stroke-width:2.5;"/>
    </g>
    <g id="line2d_35"/>
    <g id="text_17">
     <!-- 0.33 -->
     <g style="fill:#262626;" transform="translate(714.3 116.1525)scale(0.12 -0.12)">
      <use xlink:href="#ArialMT-48"/>
      <use x="55.615234" xlink:href="#ArialMT-46"/>
      <use x="83.398438" xlink:href="#ArialMT-51"/>
      <use x="139.013672" xlink:href="#ArialMT-51"/>
     </g>
    </g>
    <g id="line2d_36">
     <path d="M 680.7 128.926875 
L 704.7 128.926875 
" style="fill:none;stroke:#55a868;stroke-linecap:round;stroke-width:2.5;"/>
    </g>
    <g id="line2d_37"/>
    <g id="text_18">
     <!-- 0.33 -->
     <g style="fill:#262626;" transform="translate(714.3 133.126875)scale(0.12 -0.12)">
      <use xlink:href="#ArialMT-48"/>
      <use x="55.615234" xlink:href="#ArialMT-46"/>
      <use x="83.398438" xlink:href="#ArialMT-51"/>
      <use x="139.013672" xlink:href="#ArialMT-51"/>
     </g>
    </g>
   </g>
  </g>
 </g>
 <defs>
  <clipPath id="p819bb8586e">
   <rect height="326.16" width="558" x="90" y="51.84"/>
  </clipPath>
 </defs>
</svg>
