<?xml version="1.0" encoding="utf-8" standalone="no"?>
<!DOCTYPE svg PUBLIC "-//W3C//DTD SVG 1.1//EN"
  "http://www.w3.org/Graphics/SVG/1.1/DTD/svg11.dtd">
<!-- Created with matplotlib (https://matplotlib.org/) -->
<svg height="432pt" version="1.1" viewBox="0 0 720 432" width="720pt" xmlns="http://www.w3.org/2000/svg" xmlns:xlink="http://www.w3.org/1999/xlink">
 <defs>
  <style type="text/css">
*{stroke-linecap:butt;stroke-linejoin:round;}
  </style>
 </defs>
 <g id="figure_1">
  <g id="patch_1">
   <path d="M 0 432 
L 720 432 
L 720 0 
L 0 0 
z
" style="fill:#ffffff;"/>
  </g>
  <g id="axes_1">
   <g id="patch_2">
    <path d="M 90 378 
L 648 378 
L 648 51.84 
L 90 51.84 
z
" style="fill:#ffffff;"/>
   </g>
   <g id="matplotlib.axis_1">
    <g id="xtick_1">
     <g id="line2d_1">
      <defs>
       <path d="M 0 0 
L 0 6 
" id="m5f4a6ba3d2" style="stroke:#262626;stroke-width:1.25;"/>
      </defs>
      <g>
       <use style="fill:#262626;stroke:#262626;stroke-width:1.25;" x="90" xlink:href="#m5f4a6ba3d2" y="378"/>
      </g>
     </g>
     <g id="text_1">
      <!-- 0 -->
      <defs>
       <path d="M 4.15625 35.296875 
Q 4.15625 48 6.765625 55.734375 
Q 9.375 63.484375 14.515625 67.671875 
Q 19.671875 71.875 27.484375 71.875 
Q 33.25 71.875 37.59375 69.546875 
Q 41.9375 67.234375 44.765625 62.859375 
Q 47.609375 58.5 49.21875 52.21875 
Q 50.828125 45.953125 50.828125 35.296875 
Q 50.828125 22.703125 48.234375 14.96875 
Q 45.65625 7.234375 40.5 3 
Q 35.359375 -1.21875 27.484375 -1.21875 
Q 17.140625 -1.21875 11.234375 6.203125 
Q 4.15625 15.140625 4.15625 35.296875 
z
M 13.1875 35.296875 
Q 13.1875 17.671875 17.3125 11.828125 
Q 21.4375 6 27.484375 6 
Q 33.546875 6 37.671875 11.859375 
Q 41.796875 17.71875 41.796875 35.296875 
Q 41.796875 52.984375 37.671875 58.78125 
Q 33.546875 64.59375 27.390625 64.59375 
Q 21.34375 64.59375 17.71875 59.46875 
Q 13.1875 52.9375 13.1875 35.296875 
z
" id="ArialMT-48"/>
      </defs>
      <g style="fill:#262626;" transform="translate(86.663438 396.089375)scale(0.12 -0.12)">
       <use xlink:href="#ArialMT-48"/>
      </g>
     </g>
    </g>
    <g id="xtick_2">
     <g id="line2d_2">
      <g>
       <use style="fill:#262626;stroke:#262626;stroke-width:1.25;" x="229.5" xlink:href="#m5f4a6ba3d2" y="378"/>
      </g>
     </g>
     <g id="text_2">
      <!-- 20 -->
      <defs>
       <path d="M 50.34375 8.453125 
L 50.34375 0 
L 3.03125 0 
Q 2.9375 3.171875 4.046875 6.109375 
Q 5.859375 10.9375 9.828125 15.625 
Q 13.8125 20.3125 21.34375 26.46875 
Q 33.015625 36.03125 37.109375 41.625 
Q 41.21875 47.21875 41.21875 52.203125 
Q 41.21875 57.421875 37.46875 61 
Q 33.734375 64.59375 27.734375 64.59375 
Q 21.390625 64.59375 17.578125 60.78125 
Q 13.765625 56.984375 13.71875 50.25 
L 4.6875 51.171875 
Q 5.609375 61.28125 11.65625 66.578125 
Q 17.71875 71.875 27.9375 71.875 
Q 38.234375 71.875 44.234375 66.15625 
Q 50.25 60.453125 50.25 52 
Q 50.25 47.703125 48.484375 43.546875 
Q 46.734375 39.40625 42.65625 34.8125 
Q 38.578125 30.21875 29.109375 22.21875 
Q 21.1875 15.578125 18.9375 13.203125 
Q 16.703125 10.84375 15.234375 8.453125 
z
" id="ArialMT-50"/>
      </defs>
      <g style="fill:#262626;" transform="translate(222.826875 396.089375)scale(0.12 -0.12)">
       <use xlink:href="#ArialMT-50"/>
       <use x="55.615234" xlink:href="#ArialMT-48"/>
      </g>
     </g>
    </g>
    <g id="xtick_3">
     <g id="line2d_3">
      <g>
       <use style="fill:#262626;stroke:#262626;stroke-width:1.25;" x="369" xlink:href="#m5f4a6ba3d2" y="378"/>
      </g>
     </g>
     <g id="text_3">
      <!-- 40 -->
      <defs>
       <path d="M 32.328125 0 
L 32.328125 17.140625 
L 1.265625 17.140625 
L 1.265625 25.203125 
L 33.9375 71.578125 
L 41.109375 71.578125 
L 41.109375 25.203125 
L 50.78125 25.203125 
L 50.78125 17.140625 
L 41.109375 17.140625 
L 41.109375 0 
z
M 32.328125 25.203125 
L 32.328125 57.46875 
L 9.90625 25.203125 
z
" id="ArialMT-52"/>
      </defs>
      <g style="fill:#262626;" transform="translate(362.326875 396.089375)scale(0.12 -0.12)">
       <use xlink:href="#ArialMT-52"/>
       <use x="55.615234" xlink:href="#ArialMT-48"/>
      </g>
     </g>
    </g>
    <g id="xtick_4">
     <g id="line2d_4">
      <g>
       <use style="fill:#262626;stroke:#262626;stroke-width:1.25;" x="508.5" xlink:href="#m5f4a6ba3d2" y="378"/>
      </g>
     </g>
     <g id="text_4">
      <!-- 60 -->
      <defs>
       <path d="M 49.75 54.046875 
L 41.015625 53.375 
Q 39.84375 58.546875 37.703125 60.890625 
Q 34.125 64.65625 28.90625 64.65625 
Q 24.703125 64.65625 21.53125 62.3125 
Q 17.390625 59.28125 14.984375 53.46875 
Q 12.59375 47.65625 12.5 36.921875 
Q 15.671875 41.75 20.265625 44.09375 
Q 24.859375 46.4375 29.890625 46.4375 
Q 38.671875 46.4375 44.84375 39.96875 
Q 51.03125 33.5 51.03125 23.25 
Q 51.03125 16.5 48.125 10.71875 
Q 45.21875 4.9375 40.140625 1.859375 
Q 35.0625 -1.21875 28.609375 -1.21875 
Q 17.625 -1.21875 10.6875 6.859375 
Q 3.765625 14.9375 3.765625 33.5 
Q 3.765625 54.25 11.421875 63.671875 
Q 18.109375 71.875 29.4375 71.875 
Q 37.890625 71.875 43.28125 67.140625 
Q 48.6875 62.40625 49.75 54.046875 
z
M 13.875 23.1875 
Q 13.875 18.65625 15.796875 14.5 
Q 17.71875 10.359375 21.1875 8.171875 
Q 24.65625 6 28.46875 6 
Q 34.03125 6 38.03125 10.484375 
Q 42.046875 14.984375 42.046875 22.703125 
Q 42.046875 30.125 38.078125 34.390625 
Q 34.125 38.671875 28.125 38.671875 
Q 22.171875 38.671875 18.015625 34.390625 
Q 13.875 30.125 13.875 23.1875 
z
" id="ArialMT-54"/>
      </defs>
      <g style="fill:#262626;" transform="translate(501.826875 396.089375)scale(0.12 -0.12)">
       <use xlink:href="#ArialMT-54"/>
       <use x="55.615234" xlink:href="#ArialMT-48"/>
      </g>
     </g>
    </g>
    <g id="xtick_5">
     <g id="line2d_5">
      <g>
       <use style="fill:#262626;stroke:#262626;stroke-width:1.25;" x="648" xlink:href="#m5f4a6ba3d2" y="378"/>
      </g>
     </g>
     <g id="text_5">
      <!-- 80 -->
      <defs>
       <path d="M 17.671875 38.8125 
Q 12.203125 40.828125 9.5625 44.53125 
Q 6.9375 48.25 6.9375 53.421875 
Q 6.9375 61.234375 12.546875 66.546875 
Q 18.171875 71.875 27.484375 71.875 
Q 36.859375 71.875 42.578125 66.421875 
Q 48.296875 60.984375 48.296875 53.171875 
Q 48.296875 48.1875 45.671875 44.5 
Q 43.0625 40.828125 37.75 38.8125 
Q 44.34375 36.671875 47.78125 31.875 
Q 51.21875 27.09375 51.21875 20.453125 
Q 51.21875 11.28125 44.71875 5.03125 
Q 38.234375 -1.21875 27.640625 -1.21875 
Q 17.046875 -1.21875 10.546875 5.046875 
Q 4.046875 11.328125 4.046875 20.703125 
Q 4.046875 27.6875 7.59375 32.390625 
Q 11.140625 37.109375 17.671875 38.8125 
z
M 15.921875 53.71875 
Q 15.921875 48.640625 19.1875 45.40625 
Q 22.46875 42.1875 27.6875 42.1875 
Q 32.765625 42.1875 36.015625 45.375 
Q 39.265625 48.578125 39.265625 53.21875 
Q 39.265625 58.0625 35.90625 61.359375 
Q 32.5625 64.65625 27.59375 64.65625 
Q 22.5625 64.65625 19.234375 61.421875 
Q 15.921875 58.203125 15.921875 53.71875 
z
M 13.09375 20.65625 
Q 13.09375 16.890625 14.875 13.375 
Q 16.65625 9.859375 20.171875 7.921875 
Q 23.6875 6 27.734375 6 
Q 34.03125 6 38.125 10.046875 
Q 42.234375 14.109375 42.234375 20.359375 
Q 42.234375 26.703125 38.015625 30.859375 
Q 33.796875 35.015625 27.4375 35.015625 
Q 21.234375 35.015625 17.15625 30.90625 
Q 13.09375 26.8125 13.09375 20.65625 
z
" id="ArialMT-56"/>
      </defs>
      <g style="fill:#262626;" transform="translate(641.326875 396.089375)scale(0.12 -0.12)">
       <use xlink:href="#ArialMT-56"/>
       <use x="55.615234" xlink:href="#ArialMT-48"/>
      </g>
     </g>
    </g>
    <g id="text_6">
     <!-- Trial Number -->
     <defs>
      <path d="M 25.921875 0 
L 25.921875 63.140625 
L 2.34375 63.140625 
L 2.34375 71.578125 
L 59.078125 71.578125 
L 59.078125 63.140625 
L 35.40625 63.140625 
L 35.40625 0 
z
" id="ArialMT-84"/>
      <path d="M 6.5 0 
L 6.5 51.859375 
L 14.40625 51.859375 
L 14.40625 44 
Q 17.4375 49.515625 20 51.265625 
Q 22.5625 53.03125 25.640625 53.03125 
Q 30.078125 53.03125 34.671875 50.203125 
L 31.640625 42.046875 
Q 28.421875 43.953125 25.203125 43.953125 
Q 22.3125 43.953125 20.015625 42.21875 
Q 17.71875 40.484375 16.75 37.40625 
Q 15.28125 32.71875 15.28125 27.15625 
L 15.28125 0 
z
" id="ArialMT-114"/>
      <path d="M 6.640625 61.46875 
L 6.640625 71.578125 
L 15.4375 71.578125 
L 15.4375 61.46875 
z
M 6.640625 0 
L 6.640625 51.859375 
L 15.4375 51.859375 
L 15.4375 0 
z
" id="ArialMT-105"/>
      <path d="M 40.4375 6.390625 
Q 35.546875 2.25 31.03125 0.53125 
Q 26.515625 -1.171875 21.34375 -1.171875 
Q 12.796875 -1.171875 8.203125 3 
Q 3.609375 7.171875 3.609375 13.671875 
Q 3.609375 17.484375 5.34375 20.625 
Q 7.078125 23.78125 9.890625 25.6875 
Q 12.703125 27.59375 16.21875 28.5625 
Q 18.796875 29.25 24.03125 29.890625 
Q 34.671875 31.15625 39.703125 32.90625 
Q 39.75 34.71875 39.75 35.203125 
Q 39.75 40.578125 37.25 42.78125 
Q 33.890625 45.75 27.25 45.75 
Q 21.046875 45.75 18.09375 43.578125 
Q 15.140625 41.40625 13.71875 35.890625 
L 5.125 37.0625 
Q 6.296875 42.578125 8.984375 45.96875 
Q 11.671875 49.359375 16.75 51.1875 
Q 21.828125 53.03125 28.515625 53.03125 
Q 35.15625 53.03125 39.296875 51.46875 
Q 43.453125 49.90625 45.40625 47.53125 
Q 47.359375 45.171875 48.140625 41.546875 
Q 48.578125 39.3125 48.578125 33.453125 
L 48.578125 21.734375 
Q 48.578125 9.46875 49.140625 6.21875 
Q 49.703125 2.984375 51.375 0 
L 42.1875 0 
Q 40.828125 2.734375 40.4375 6.390625 
z
M 39.703125 26.03125 
Q 34.90625 24.078125 25.34375 22.703125 
Q 19.921875 21.921875 17.671875 20.9375 
Q 15.4375 19.96875 14.203125 18.09375 
Q 12.984375 16.21875 12.984375 13.921875 
Q 12.984375 10.40625 15.640625 8.0625 
Q 18.3125 5.71875 23.4375 5.71875 
Q 28.515625 5.71875 32.46875 7.9375 
Q 36.421875 10.15625 38.28125 14.015625 
Q 39.703125 17 39.703125 22.796875 
z
" id="ArialMT-97"/>
      <path d="M 6.390625 0 
L 6.390625 71.578125 
L 15.1875 71.578125 
L 15.1875 0 
z
" id="ArialMT-108"/>
      <path id="ArialMT-32"/>
      <path d="M 7.625 0 
L 7.625 71.578125 
L 17.328125 71.578125 
L 54.9375 15.375 
L 54.9375 71.578125 
L 64.015625 71.578125 
L 64.015625 0 
L 54.296875 0 
L 16.703125 56.25 
L 16.703125 0 
z
" id="ArialMT-78"/>
      <path d="M 40.578125 0 
L 40.578125 7.625 
Q 34.515625 -1.171875 24.125 -1.171875 
Q 19.53125 -1.171875 15.546875 0.578125 
Q 11.578125 2.34375 9.640625 5 
Q 7.71875 7.671875 6.9375 11.53125 
Q 6.390625 14.109375 6.390625 19.734375 
L 6.390625 51.859375 
L 15.1875 51.859375 
L 15.1875 23.09375 
Q 15.1875 16.21875 15.71875 13.8125 
Q 16.546875 10.359375 19.234375 8.375 
Q 21.921875 6.390625 25.875 6.390625 
Q 29.828125 6.390625 33.296875 8.421875 
Q 36.765625 10.453125 38.203125 13.9375 
Q 39.65625 17.4375 39.65625 24.078125 
L 39.65625 51.859375 
L 48.4375 51.859375 
L 48.4375 0 
z
" id="ArialMT-117"/>
      <path d="M 6.59375 0 
L 6.59375 51.859375 
L 14.453125 51.859375 
L 14.453125 44.578125 
Q 16.890625 48.390625 20.9375 50.703125 
Q 25 53.03125 30.171875 53.03125 
Q 35.9375 53.03125 39.625 50.640625 
Q 43.3125 48.25 44.828125 43.953125 
Q 50.984375 53.03125 60.84375 53.03125 
Q 68.5625 53.03125 72.703125 48.75 
Q 76.859375 44.484375 76.859375 35.59375 
L 76.859375 0 
L 68.109375 0 
L 68.109375 32.671875 
Q 68.109375 37.9375 67.25 40.25 
Q 66.40625 42.578125 64.15625 43.984375 
Q 61.921875 45.40625 58.890625 45.40625 
Q 53.421875 45.40625 49.796875 41.765625 
Q 46.1875 38.140625 46.1875 30.125 
L 46.1875 0 
L 37.40625 0 
L 37.40625 33.6875 
Q 37.40625 39.546875 35.25 42.46875 
Q 33.109375 45.40625 28.21875 45.40625 
Q 24.515625 45.40625 21.359375 43.453125 
Q 18.21875 41.5 16.796875 37.734375 
Q 15.375 33.984375 15.375 26.90625 
L 15.375 0 
z
" id="ArialMT-109"/>
      <path d="M 14.703125 0 
L 6.546875 0 
L 6.546875 71.578125 
L 15.328125 71.578125 
L 15.328125 46.046875 
Q 20.90625 53.03125 29.546875 53.03125 
Q 34.328125 53.03125 38.59375 51.09375 
Q 42.875 49.171875 45.625 45.671875 
Q 48.390625 42.1875 49.953125 37.25 
Q 51.515625 32.328125 51.515625 26.703125 
Q 51.515625 13.375 44.921875 6.09375 
Q 38.328125 -1.171875 29.109375 -1.171875 
Q 19.921875 -1.171875 14.703125 6.5 
z
M 14.59375 26.3125 
Q 14.59375 17 17.140625 12.84375 
Q 21.296875 6.0625 28.375 6.0625 
Q 34.125 6.0625 38.328125 11.0625 
Q 42.53125 16.0625 42.53125 25.984375 
Q 42.53125 36.140625 38.5 40.96875 
Q 34.46875 45.796875 28.765625 45.796875 
Q 23 45.796875 18.796875 40.796875 
Q 14.59375 35.796875 14.59375 26.3125 
z
" id="ArialMT-98"/>
      <path d="M 42.09375 16.703125 
L 51.171875 15.578125 
Q 49.03125 7.625 43.21875 3.21875 
Q 37.40625 -1.171875 28.375 -1.171875 
Q 17 -1.171875 10.328125 5.828125 
Q 3.65625 12.84375 3.65625 25.484375 
Q 3.65625 38.578125 10.390625 45.796875 
Q 17.140625 53.03125 27.875 53.03125 
Q 38.28125 53.03125 44.875 45.953125 
Q 51.46875 38.875 51.46875 26.03125 
Q 51.46875 25.25 51.421875 23.6875 
L 12.75 23.6875 
Q 13.234375 15.140625 17.578125 10.59375 
Q 21.921875 6.0625 28.421875 6.0625 
Q 33.25 6.0625 36.671875 8.59375 
Q 40.09375 11.140625 42.09375 16.703125 
z
M 13.234375 30.90625 
L 42.1875 30.90625 
Q 41.609375 37.453125 38.875 40.71875 
Q 34.671875 45.796875 27.984375 45.796875 
Q 21.921875 45.796875 17.796875 41.75 
Q 13.671875 37.703125 13.234375 30.90625 
z
" id="ArialMT-101"/>
     </defs>
     <g style="fill:#262626;" transform="translate(322.77625 413.926875)scale(0.16 -0.16)">
      <use xlink:href="#ArialMT-84"/>
      <use x="61.037109" xlink:href="#ArialMT-114"/>
      <use x="94.337891" xlink:href="#ArialMT-105"/>
      <use x="116.554688" xlink:href="#ArialMT-97"/>
      <use x="172.169922" xlink:href="#ArialMT-108"/>
      <use x="194.386719" xlink:href="#ArialMT-32"/>
      <use x="222.169922" xlink:href="#ArialMT-78"/>
      <use x="294.386719" xlink:href="#ArialMT-117"/>
      <use x="350.001953" xlink:href="#ArialMT-109"/>
      <use x="433.302734" xlink:href="#ArialMT-98"/>
      <use x="488.917969" xlink:href="#ArialMT-101"/>
      <use x="544.533203" xlink:href="#ArialMT-114"/>
     </g>
    </g>
   </g>
   <g id="matplotlib.axis_2">
    <g id="ytick_1">
     <g id="line2d_6">
      <defs>
       <path d="M 0 0 
L -6 0 
" id="mec0d5a3f50" style="stroke:#262626;stroke-width:1.25;"/>
      </defs>
      <g>
       <use style="fill:#262626;stroke:#262626;stroke-width:1.25;" x="90" xlink:href="#mec0d5a3f50" y="378"/>
      </g>
     </g>
     <g id="text_7">
      <!-- −0.2 -->
      <defs>
       <path d="M 52.828125 31.203125 
L 5.5625 31.203125 
L 5.5625 39.40625 
L 52.828125 39.40625 
z
" id="ArialMT-8722"/>
       <path d="M 9.078125 0 
L 9.078125 10.015625 
L 19.09375 10.015625 
L 19.09375 0 
z
" id="ArialMT-46"/>
      </defs>
      <g style="fill:#262626;" transform="translate(56.81125 382.294688)scale(0.12 -0.12)">
       <use xlink:href="#ArialMT-8722"/>
       <use x="58.398438" xlink:href="#ArialMT-48"/>
       <use x="114.013672" xlink:href="#ArialMT-46"/>
       <use x="141.796875" xlink:href="#ArialMT-50"/>
      </g>
     </g>
    </g>
    <g id="ytick_2">
     <g id="line2d_7">
      <g>
       <use style="fill:#262626;stroke:#262626;stroke-width:1.25;" x="90" xlink:href="#mec0d5a3f50" y="312.768"/>
      </g>
     </g>
     <g id="text_8">
      <!-- 0.0 -->
      <g style="fill:#262626;" transform="translate(63.82 317.062687)scale(0.12 -0.12)">
       <use xlink:href="#ArialMT-48"/>
       <use x="55.615234" xlink:href="#ArialMT-46"/>
       <use x="83.398438" xlink:href="#ArialMT-48"/>
      </g>
     </g>
    </g>
    <g id="ytick_3">
     <g id="line2d_8">
      <g>
       <use style="fill:#262626;stroke:#262626;stroke-width:1.25;" x="90" xlink:href="#mec0d5a3f50" y="247.536"/>
      </g>
     </g>
     <g id="text_9">
      <!-- 0.2 -->
      <g style="fill:#262626;" transform="translate(63.82 251.830687)scale(0.12 -0.12)">
       <use xlink:href="#ArialMT-48"/>
       <use x="55.615234" xlink:href="#ArialMT-46"/>
       <use x="83.398438" xlink:href="#ArialMT-50"/>
      </g>
     </g>
    </g>
    <g id="ytick_4">
     <g id="line2d_9">
      <g>
       <use style="fill:#262626;stroke:#262626;stroke-width:1.25;" x="90" xlink:href="#mec0d5a3f50" y="182.304"/>
      </g>
     </g>
     <g id="text_10">
      <!-- 0.4 -->
      <g style="fill:#262626;" transform="translate(63.82 186.598687)scale(0.12 -0.12)">
       <use xlink:href="#ArialMT-48"/>
       <use x="55.615234" xlink:href="#ArialMT-46"/>
       <use x="83.398438" xlink:href="#ArialMT-52"/>
      </g>
     </g>
    </g>
    <g id="ytick_5">
     <g id="line2d_10">
      <g>
       <use style="fill:#262626;stroke:#262626;stroke-width:1.25;" x="90" xlink:href="#mec0d5a3f50" y="117.072"/>
      </g>
     </g>
     <g id="text_11">
      <!-- 0.6 -->
      <g style="fill:#262626;" transform="translate(63.82 121.366687)scale(0.12 -0.12)">
       <use xlink:href="#ArialMT-48"/>
       <use x="55.615234" xlink:href="#ArialMT-46"/>
       <use x="83.398438" xlink:href="#ArialMT-54"/>
      </g>
     </g>
    </g>
    <g id="ytick_6">
     <g id="line2d_11">
      <g>
       <use style="fill:#262626;stroke:#262626;stroke-width:1.25;" x="90" xlink:href="#mec0d5a3f50" y="51.84"/>
      </g>
     </g>
     <g id="text_12">
      <!-- 0.8 -->
      <g style="fill:#262626;" transform="translate(63.82 56.134687)scale(0.12 -0.12)">
       <use xlink:href="#ArialMT-48"/>
       <use x="55.615234" xlink:href="#ArialMT-46"/>
       <use x="83.398438" xlink:href="#ArialMT-56"/>
      </g>
     </g>
    </g>
    <g id="text_13">
     <!-- Weight -->
     <defs>
      <path d="M 20.21875 0 
L 1.21875 71.578125 
L 10.9375 71.578125 
L 21.828125 24.65625 
Q 23.578125 17.28125 24.859375 10.015625 
Q 27.59375 21.484375 28.078125 23.25 
L 41.703125 71.578125 
L 53.125 71.578125 
L 63.375 35.359375 
Q 67.234375 21.875 68.953125 10.015625 
Q 70.3125 16.796875 72.515625 25.59375 
L 83.734375 71.578125 
L 93.265625 71.578125 
L 73.640625 0 
L 64.5 0 
L 49.421875 54.546875 
Q 47.515625 61.375 47.171875 62.9375 
Q 46.046875 58.015625 45.0625 54.546875 
L 29.890625 0 
z
" id="ArialMT-87"/>
      <path d="M 4.984375 -4.296875 
L 13.53125 -5.5625 
Q 14.0625 -9.515625 16.5 -11.328125 
Q 19.78125 -13.765625 25.4375 -13.765625 
Q 31.546875 -13.765625 34.859375 -11.328125 
Q 38.1875 -8.890625 39.359375 -4.5 
Q 40.046875 -1.8125 39.984375 6.78125 
Q 34.234375 0 25.640625 0 
Q 14.9375 0 9.078125 7.71875 
Q 3.21875 15.4375 3.21875 26.21875 
Q 3.21875 33.640625 5.90625 39.90625 
Q 8.59375 46.1875 13.6875 49.609375 
Q 18.796875 53.03125 25.6875 53.03125 
Q 34.859375 53.03125 40.828125 45.609375 
L 40.828125 51.859375 
L 48.921875 51.859375 
L 48.921875 7.03125 
Q 48.921875 -5.078125 46.453125 -10.125 
Q 44 -15.1875 38.640625 -18.109375 
Q 33.296875 -21.046875 25.484375 -21.046875 
Q 16.21875 -21.046875 10.5 -16.875 
Q 4.78125 -12.703125 4.984375 -4.296875 
z
M 12.25 26.859375 
Q 12.25 16.65625 16.296875 11.96875 
Q 20.359375 7.28125 26.46875 7.28125 
Q 32.515625 7.28125 36.609375 11.9375 
Q 40.71875 16.609375 40.71875 26.5625 
Q 40.71875 36.078125 36.5 40.90625 
Q 32.28125 45.75 26.3125 45.75 
Q 20.453125 45.75 16.34375 40.984375 
Q 12.25 36.234375 12.25 26.859375 
z
" id="ArialMT-103"/>
      <path d="M 6.59375 0 
L 6.59375 71.578125 
L 15.375 71.578125 
L 15.375 45.90625 
Q 21.53125 53.03125 30.90625 53.03125 
Q 36.671875 53.03125 40.921875 50.75 
Q 45.171875 48.484375 47 44.484375 
Q 48.828125 40.484375 48.828125 32.859375 
L 48.828125 0 
L 40.046875 0 
L 40.046875 32.859375 
Q 40.046875 39.453125 37.1875 42.453125 
Q 34.328125 45.453125 29.109375 45.453125 
Q 25.203125 45.453125 21.75 43.421875 
Q 18.3125 41.40625 16.84375 37.9375 
Q 15.375 34.46875 15.375 28.375 
L 15.375 0 
z
" id="ArialMT-104"/>
      <path d="M 25.78125 7.859375 
L 27.046875 0.09375 
Q 23.34375 -0.6875 20.40625 -0.6875 
Q 15.625 -0.6875 12.984375 0.828125 
Q 10.359375 2.34375 9.28125 4.8125 
Q 8.203125 7.28125 8.203125 15.1875 
L 8.203125 45.015625 
L 1.765625 45.015625 
L 1.765625 51.859375 
L 8.203125 51.859375 
L 8.203125 64.703125 
L 16.9375 69.96875 
L 16.9375 51.859375 
L 25.78125 51.859375 
L 25.78125 45.015625 
L 16.9375 45.015625 
L 16.9375 14.703125 
Q 16.9375 10.9375 17.40625 9.859375 
Q 17.875 8.796875 18.921875 8.15625 
Q 19.96875 7.515625 21.921875 7.515625 
Q 23.390625 7.515625 25.78125 7.859375 
z
" id="ArialMT-116"/>
     </defs>
     <g style="fill:#262626;" transform="translate(49.44375 239.81625)rotate(-90)scale(0.16 -0.16)">
      <use xlink:href="#ArialMT-87"/>
      <use x="94.369141" xlink:href="#ArialMT-101"/>
      <use x="149.984375" xlink:href="#ArialMT-105"/>
      <use x="172.201172" xlink:href="#ArialMT-103"/>
      <use x="227.816406" xlink:href="#ArialMT-104"/>
      <use x="283.431641" xlink:href="#ArialMT-116"/>
     </g>
    </g>
   </g>
   <g id="PolyCollection_1">
    <defs>
     <path d="M 90 -218.275657 
L 90 -154.422469 
L 96.975 -157.98824 
L 103.95 -151.065443 
L 110.925 -138.14129 
L 117.9 -130.111727 
L 124.875 -126.210669 
L 131.85 -117.115924 
L 138.825 -117.492466 
L 145.8 -108.27255 
L 152.775 -113.18279 
L 159.75 -104.669471 
L 166.725 -118.608698 
L 173.7 -125.104589 
L 180.675 -127.416602 
L 187.65 -124.406017 
L 194.625 -125.949513 
L 201.6 -128.741801 
L 208.575 -129.767028 
L 215.55 -126.738292 
L 222.525 -124.102354 
L 229.5 -118.861223 
L 236.475 -118.042117 
L 243.45 -120.940414 
L 250.425 -124.10787 
L 257.4 -124.189502 
L 264.375 -126.313727 
L 271.35 -126.468329 
L 278.325 -125.273894 
L 285.3 -123.943085 
L 292.275 -116.104646 
L 299.25 -115.741595 
L 306.225 -110.677944 
L 313.2 -109.650609 
L 320.175 -116.690764 
L 327.15 -119.945685 
L 334.125 -122.060204 
L 341.1 -125.097395 
L 348.075 -125.126391 
L 355.05 -129.652766 
L 362.025 -131.150828 
L 369 -133.513372 
L 375.975 -132.620849 
L 382.95 -130.09331 
L 389.925 -121.303585 
L 396.9 -127.246082 
L 403.875 -123.877932 
L 410.85 -122.339154 
L 417.825 -123.965181 
L 424.8 -121.577516 
L 431.775 -123.623828 
L 438.75 -120.21831 
L 445.725 -117.60294 
L 452.7 -118.595 
L 459.675 -112.750907 
L 466.65 -110.901582 
L 473.625 -109.096354 
L 480.6 -109.98558 
L 487.575 -119.702959 
L 494.55 -117.63281 
L 501.525 -117.725461 
L 508.5 -115.52638 
L 515.475 -116.642348 
L 522.45 -114.201905 
L 529.425 -115.422891 
L 536.4 -116.194202 
L 543.375 -117.525182 
L 550.35 -120.164329 
L 557.325 -123.759757 
L 564.3 -124.500288 
L 571.275 -117.567076 
L 578.25 -120.020751 
L 585.225 -125.522417 
L 592.2 -120.938721 
L 599.175 -119.916074 
L 606.15 -118.276714 
L 613.125 -118.503791 
L 620.1 -116.659461 
L 627.075 -114.267679 
L 634.05 -120.223471 
L 641.025 -118.17868 
L 641.025 -146.070254 
L 641.025 -146.070254 
L 634.05 -150.392912 
L 627.075 -152.559256 
L 620.1 -157.445222 
L 613.125 -159.255946 
L 606.15 -161.810702 
L 599.175 -169.398999 
L 592.2 -169.856261 
L 585.225 -160.024185 
L 578.25 -160.252925 
L 571.275 -158.99984 
L 564.3 -155.219329 
L 557.325 -163.003072 
L 550.35 -173.095166 
L 543.375 -165.788388 
L 536.4 -165.268272 
L 529.425 -159.189791 
L 522.45 -152.929773 
L 515.475 -142.888214 
L 508.5 -134.163806 
L 501.525 -136.616153 
L 494.55 -135.55221 
L 487.575 -145.560448 
L 480.6 -137.827261 
L 473.625 -135.126441 
L 466.65 -134.249705 
L 459.675 -131.239302 
L 452.7 -130.956787 
L 445.725 -133.462621 
L 438.75 -153.33132 
L 431.775 -157.007 
L 424.8 -152.773456 
L 417.825 -150.972591 
L 410.85 -148.529073 
L 403.875 -155.772433 
L 396.9 -153.91866 
L 389.925 -154.48405 
L 382.95 -162.615934 
L 375.975 -159.86102 
L 369 -163.830331 
L 362.025 -159.901174 
L 355.05 -161.463545 
L 348.075 -161.880813 
L 341.1 -173.118936 
L 334.125 -168.002753 
L 327.15 -162.790758 
L 320.175 -167.148079 
L 313.2 -160.853169 
L 306.225 -165.007644 
L 299.25 -167.984696 
L 292.275 -165.900044 
L 285.3 -174.350152 
L 278.325 -173.939822 
L 271.35 -172.88158 
L 264.375 -173.668457 
L 257.4 -169.531402 
L 250.425 -162.280217 
L 243.45 -161.060742 
L 236.475 -162.290809 
L 229.5 -163.632994 
L 222.525 -169.653216 
L 215.55 -173.200199 
L 208.575 -175.846241 
L 201.6 -173.678759 
L 194.625 -175.769182 
L 187.65 -179.898066 
L 180.675 -183.501345 
L 173.7 -185.937709 
L 166.725 -184.936936 
L 159.75 -181.477109 
L 152.775 -184.409433 
L 145.8 -185.743766 
L 138.825 -192.770482 
L 131.85 -190.997423 
L 124.875 -198.244525 
L 117.9 -197.369999 
L 110.925 -206.761868 
L 103.95 -208.720759 
L 96.975 -206.399243 
L 90 -218.275657 
z
" id="m9d7785107d" style="stroke:#a0a0a0;stroke-opacity:0.2;"/>
    </defs>
    <g clip-path="url(#p2087442931)">
     <use style="fill:#a0a0a0;fill-opacity:0.2;stroke:#a0a0a0;stroke-opacity:0.2;" x="0" xlink:href="#m9d7785107d" y="432"/>
    </g>
   </g>
   <g id="PolyCollection_2">
    <defs>
     <path d="M 90 -160.221228 
L 90 -72.835338 
L 96.975 -85.384019 
L 103.95 -89.855161 
L 110.925 -90.783004 
L 117.9 -91.375327 
L 124.875 -106.002432 
L 131.85 -111.559158 
L 138.825 -107.598118 
L 145.8 -95.227209 
L 152.775 -110.759767 
L 159.75 -106.670177 
L 166.725 -108.811653 
L 173.7 -121.953124 
L 180.675 -113.340348 
L 187.65 -121.149381 
L 194.625 -119.069311 
L 201.6 -130.611577 
L 208.575 -133.022182 
L 215.55 -135.034038 
L 222.525 -138.357447 
L 229.5 -141.764718 
L 236.475 -136.000312 
L 243.45 -145.230083 
L 250.425 -139.573374 
L 257.4 -138.662668 
L 264.375 -132.322253 
L 271.35 -133.902625 
L 278.325 -136.250352 
L 285.3 -135.769131 
L 292.275 -137.380444 
L 299.25 -140.023824 
L 306.225 -142.90057 
L 313.2 -144.31889 
L 320.175 -142.067943 
L 327.15 -131.914026 
L 334.125 -130.665979 
L 341.1 -132.86882 
L 348.075 -122.263077 
L 355.05 -127.102865 
L 362.025 -126.547895 
L 369 -121.899575 
L 375.975 -129.134605 
L 382.95 -124.210671 
L 389.925 -119.609121 
L 396.9 -125.525896 
L 403.875 -135.104521 
L 410.85 -136.899258 
L 417.825 -139.364717 
L 424.8 -140.518559 
L 431.775 -137.424351 
L 438.75 -135.999662 
L 445.725 -133.425102 
L 452.7 -135.052059 
L 459.675 -135.058216 
L 466.65 -133.492603 
L 473.625 -133.662106 
L 480.6 -137.759734 
L 487.575 -136.525698 
L 494.55 -133.063694 
L 501.525 -130.644971 
L 508.5 -130.285146 
L 515.475 -132.399523 
L 522.45 -123.897444 
L 529.425 -126.338049 
L 536.4 -128.680141 
L 543.375 -127.889197 
L 550.35 -126.137259 
L 557.325 -124.872318 
L 564.3 -123.955674 
L 571.275 -125.541996 
L 578.25 -123.671286 
L 585.225 -115.315082 
L 592.2 -114.717826 
L 599.175 -115.04966 
L 606.15 -120.039146 
L 613.125 -113.962187 
L 620.1 -116.328449 
L 627.075 -119.942909 
L 634.05 -123.650562 
L 641.025 -128.544601 
L 641.025 -163.909362 
L 641.025 -163.909362 
L 634.05 -159.616287 
L 627.075 -159.915132 
L 620.1 -157.040453 
L 613.125 -155.95047 
L 606.15 -162.779783 
L 599.175 -157.645626 
L 592.2 -152.886864 
L 585.225 -153.273951 
L 578.25 -151.540847 
L 571.275 -153.173598 
L 564.3 -157.175335 
L 557.325 -162.657501 
L 550.35 -160.807145 
L 543.375 -163.229004 
L 536.4 -164.369091 
L 529.425 -170.334114 
L 522.45 -168.450345 
L 515.475 -176.640155 
L 508.5 -181.405235 
L 501.525 -184.334275 
L 494.55 -183.942567 
L 487.575 -179.335495 
L 480.6 -168.186754 
L 473.625 -153.657922 
L 466.65 -154.492245 
L 459.675 -157.596368 
L 452.7 -156.074831 
L 445.725 -158.714022 
L 438.75 -157.336308 
L 431.775 -154.651414 
L 424.8 -159.838998 
L 417.825 -158.567152 
L 410.85 -155.741805 
L 403.875 -150.592182 
L 396.9 -155.400345 
L 389.925 -158.875503 
L 382.95 -159.966955 
L 375.975 -161.417117 
L 369 -160.846999 
L 362.025 -164.117755 
L 355.05 -158.059518 
L 348.075 -156.899889 
L 341.1 -154.434981 
L 334.125 -153.924916 
L 327.15 -152.351184 
L 320.175 -156.02991 
L 313.2 -161.805822 
L 306.225 -171.016986 
L 299.25 -173.600857 
L 292.275 -166.633097 
L 285.3 -170.661468 
L 278.325 -169.543303 
L 271.35 -171.616898 
L 264.375 -176.478307 
L 257.4 -179.571783 
L 250.425 -184.697752 
L 243.45 -185.341032 
L 236.475 -179.754243 
L 229.5 -180.214153 
L 222.525 -172.456627 
L 215.55 -168.078027 
L 208.575 -162.240104 
L 201.6 -162.86802 
L 194.625 -163.334486 
L 187.65 -168.160163 
L 180.675 -158.067714 
L 173.7 -154.829482 
L 166.725 -148.633412 
L 159.75 -147.41857 
L 152.775 -153.089259 
L 145.8 -146.728908 
L 138.825 -146.788587 
L 131.85 -149.170723 
L 124.875 -143.367376 
L 117.9 -142.511296 
L 110.925 -152.457686 
L 103.95 -158.915107 
L 96.975 -154.279634 
L 90 -160.221228 
z
" id="m1a7daff758" style="stroke:#a0a0a0;stroke-opacity:0.2;"/>
    </defs>
    <g clip-path="url(#p2087442931)">
     <use style="fill:#a0a0a0;fill-opacity:0.2;stroke:#a0a0a0;stroke-opacity:0.2;" x="0" xlink:href="#m1a7daff758" y="432"/>
    </g>
   </g>
   <g id="PolyCollection_3">
    <defs>
     <path d="M 90 -244.720911 
L 90 -166.554056 
L 96.975 -157.746983 
L 103.95 -169.249775 
L 110.925 -175.202223 
L 117.9 -166.376742 
L 124.875 -161.984649 
L 131.85 -157.513574 
L 138.825 -158.501428 
L 145.8 -164.352753 
L 152.775 -165.451942 
L 159.75 -170.857549 
L 166.725 -171.165084 
L 173.7 -171.225366 
L 180.675 -167.54558 
L 187.65 -173.977884 
L 194.625 -185.714156 
L 201.6 -184.250995 
L 208.575 -179.453216 
L 215.55 -175.228053 
L 222.525 -173.880351 
L 229.5 -176.311847 
L 236.475 -183.438105 
L 243.45 -182.674137 
L 250.425 -180.171116 
L 257.4 -186.805373 
L 264.375 -184.48528 
L 271.35 -190.94325 
L 278.325 -193.223132 
L 285.3 -188.889399 
L 292.275 -196.425549 
L 299.25 -182.086662 
L 306.225 -187.037241 
L 313.2 -184.563745 
L 320.175 -181.149567 
L 327.15 -183.737924 
L 334.125 -181.751366 
L 341.1 -182.367756 
L 348.075 -178.0935 
L 355.05 -172.863261 
L 362.025 -174.809016 
L 369 -171.857914 
L 375.975 -170.987596 
L 382.95 -172.538972 
L 389.925 -175.686702 
L 396.9 -171.039166 
L 403.875 -170.565079 
L 410.85 -174.102615 
L 417.825 -169.675114 
L 424.8 -179.550245 
L 431.775 -180.697303 
L 438.75 -180.161467 
L 445.725 -166.158317 
L 452.7 -159.353196 
L 459.675 -166.756837 
L 466.65 -157.221105 
L 473.625 -158.80819 
L 480.6 -157.682464 
L 487.575 -171.577431 
L 494.55 -171.425133 
L 501.525 -170.957815 
L 508.5 -174.192082 
L 515.475 -177.281785 
L 522.45 -184.687237 
L 529.425 -189.349901 
L 536.4 -188.937813 
L 543.375 -188.159358 
L 550.35 -188.358232 
L 557.325 -189.046479 
L 564.3 -190.395028 
L 571.275 -181.923698 
L 578.25 -177.402271 
L 585.225 -177.413853 
L 592.2 -170.995187 
L 599.175 -175.983865 
L 606.15 -175.421663 
L 613.125 -179.079929 
L 620.1 -180.574911 
L 627.075 -183.288323 
L 634.05 -186.301229 
L 641.025 -184.12755 
L 641.025 -242.364355 
L 641.025 -242.364355 
L 634.05 -239.582406 
L 627.075 -234.894798 
L 620.1 -233.236143 
L 613.125 -231.670041 
L 606.15 -233.670739 
L 599.175 -230.441713 
L 592.2 -231.103211 
L 585.225 -227.651547 
L 578.25 -228.298853 
L 571.275 -222.19172 
L 564.3 -223.467968 
L 557.325 -226.210611 
L 550.35 -226.897741 
L 543.375 -227.118266 
L 536.4 -230.597336 
L 529.425 -224.30487 
L 522.45 -219.077509 
L 515.475 -219.424869 
L 508.5 -215.139481 
L 501.525 -212.436892 
L 494.55 -214.527236 
L 487.575 -218.916358 
L 480.6 -216.982786 
L 473.625 -215.629194 
L 466.65 -218.684744 
L 459.675 -217.205674 
L 452.7 -222.421769 
L 445.725 -215.358747 
L 438.75 -219.083802 
L 431.775 -221.592682 
L 424.8 -225.636748 
L 417.825 -226.135773 
L 410.85 -223.582765 
L 403.875 -220.532692 
L 396.9 -222.509053 
L 389.925 -226.988261 
L 382.95 -226.177129 
L 375.975 -229.409247 
L 369 -229.442084 
L 362.025 -229.148381 
L 355.05 -228.95963 
L 348.075 -232.566285 
L 341.1 -232.930249 
L 334.125 -221.069534 
L 327.15 -220.007145 
L 320.175 -224.184778 
L 313.2 -220.598614 
L 306.225 -219.042386 
L 299.25 -221.565339 
L 292.275 -226.496589 
L 285.3 -227.468378 
L 278.325 -228.791379 
L 271.35 -231.215305 
L 264.375 -231.802217 
L 257.4 -232.743426 
L 250.425 -227.745815 
L 243.45 -230.318277 
L 236.475 -234.23413 
L 229.5 -230.43013 
L 222.525 -231.054333 
L 215.55 -230.255378 
L 208.575 -230.835051 
L 201.6 -235.921584 
L 194.625 -237.169966 
L 187.65 -236.504774 
L 180.675 -240.405399 
L 173.7 -242.472225 
L 166.725 -248.500265 
L 159.75 -251.788636 
L 152.775 -240.639957 
L 145.8 -239.491012 
L 138.825 -242.967347 
L 131.85 -238.477992 
L 124.875 -246.744417 
L 117.9 -256.533453 
L 110.925 -258.943378 
L 103.95 -253.304267 
L 96.975 -238.250173 
L 90 -244.720911 
z
" id="m918a0378bb" style="stroke:#4c72b0;stroke-opacity:0.2;"/>
    </defs>
    <g clip-path="url(#p2087442931)">
     <use style="fill:#4c72b0;fill-opacity:0.2;stroke:#4c72b0;stroke-opacity:0.2;" x="0" xlink:href="#m918a0378bb" y="432"/>
    </g>
   </g>
   <g id="PolyCollection_4">
    <defs>
     <path d="M 90 -222.276109 
L 90 -150.050653 
L 96.975 -150.812047 
L 103.95 -157.426946 
L 110.925 -163.425302 
L 117.9 -160.504323 
L 124.875 -164.688122 
L 131.85 -167.937047 
L 138.825 -171.863341 
L 145.8 -173.212222 
L 152.775 -179.32462 
L 159.75 -181.264926 
L 166.725 -184.000234 
L 173.7 -175.312352 
L 180.675 -175.404594 
L 187.65 -179.137539 
L 194.625 -183.151021 
L 201.6 -189.157336 
L 208.575 -189.7779 
L 215.55 -188.312614 
L 222.525 -185.961508 
L 229.5 -179.212588 
L 236.475 -181.939594 
L 243.45 -180.560372 
L 250.425 -174.356142 
L 257.4 -168.314458 
L 264.375 -152.621753 
L 271.35 -150.324676 
L 278.325 -147.25642 
L 285.3 -153.379558 
L 292.275 -150.522034 
L 299.25 -139.658435 
L 306.225 -147.100303 
L 313.2 -141.509537 
L 320.175 -133.552237 
L 327.15 -133.762918 
L 334.125 -145.079827 
L 341.1 -136.063336 
L 348.075 -143.231527 
L 355.05 -150.056528 
L 362.025 -147.387363 
L 369 -150.481426 
L 375.975 -155.02811 
L 382.95 -160.577139 
L 389.925 -158.553594 
L 396.9 -153.395099 
L 403.875 -149.363652 
L 410.85 -155.466062 
L 417.825 -147.133435 
L 424.8 -143.701188 
L 431.775 -148.742943 
L 438.75 -150.86038 
L 445.725 -149.451809 
L 452.7 -147.468456 
L 459.675 -154.496971 
L 466.65 -160.01229 
L 473.625 -159.695516 
L 480.6 -160.155589 
L 487.575 -162.818227 
L 494.55 -161.78291 
L 501.525 -163.651259 
L 508.5 -167.068547 
L 515.475 -161.189084 
L 522.45 -160.290177 
L 529.425 -169.478108 
L 536.4 -171.21978 
L 543.375 -181.107072 
L 550.35 -186.745099 
L 557.325 -186.864544 
L 564.3 -192.748201 
L 571.275 -190.61619 
L 578.25 -181.318554 
L 585.225 -181.019604 
L 592.2 -185.461522 
L 599.175 -189.031283 
L 606.15 -186.213876 
L 613.125 -183.007398 
L 620.1 -182.221731 
L 627.075 -176.195961 
L 634.05 -172.418306 
L 641.025 -170.653577 
L 641.025 -226.035724 
L 641.025 -226.035724 
L 634.05 -225.293545 
L 627.075 -228.474275 
L 620.1 -231.330319 
L 613.125 -232.18695 
L 606.15 -233.944349 
L 599.175 -236.119685 
L 592.2 -236.682845 
L 585.225 -230.50836 
L 578.25 -230.239865 
L 571.275 -234.280581 
L 564.3 -238.122258 
L 557.325 -230.231522 
L 550.35 -229.399172 
L 543.375 -227.131342 
L 536.4 -226.815427 
L 529.425 -227.279997 
L 522.45 -227.50865 
L 515.475 -222.309519 
L 508.5 -217.909761 
L 501.525 -217.086471 
L 494.55 -218.495637 
L 487.575 -225.153577 
L 480.6 -222.444381 
L 473.625 -226.636301 
L 466.65 -229.175968 
L 459.675 -225.077463 
L 452.7 -223.420095 
L 445.725 -226.050596 
L 438.75 -230.160619 
L 431.775 -228.450676 
L 424.8 -226.213321 
L 417.825 -225.36876 
L 410.85 -234.764314 
L 403.875 -230.574252 
L 396.9 -225.5942 
L 389.925 -229.428177 
L 382.95 -225.154741 
L 375.975 -222.484135 
L 369 -224.902147 
L 362.025 -229.174335 
L 355.05 -230.197841 
L 348.075 -219.032704 
L 341.1 -213.758394 
L 334.125 -215.012365 
L 327.15 -212.438029 
L 320.175 -220.145572 
L 313.2 -216.033005 
L 306.225 -215.727187 
L 299.25 -211.637438 
L 292.275 -212.258685 
L 285.3 -214.804714 
L 278.325 -210.913876 
L 271.35 -209.668267 
L 264.375 -212.731387 
L 257.4 -216.364687 
L 250.425 -220.252246 
L 243.45 -223.389722 
L 236.475 -231.498844 
L 229.5 -216.429617 
L 222.525 -219.503208 
L 215.55 -230.021113 
L 208.575 -232.514325 
L 201.6 -230.177903 
L 194.625 -229.873387 
L 187.65 -231.587716 
L 180.675 -221.440546 
L 173.7 -220.19007 
L 166.725 -226.964608 
L 159.75 -228.944171 
L 152.775 -229.821827 
L 145.8 -226.447284 
L 138.825 -239.32572 
L 131.85 -234.266823 
L 124.875 -230.096019 
L 117.9 -234.126807 
L 110.925 -234.627825 
L 103.95 -230.253136 
L 96.975 -214.952142 
L 90 -222.276109 
z
" id="md74b8754cb" style="stroke:#dd8452;stroke-opacity:0.2;"/>
    </defs>
    <g clip-path="url(#p2087442931)">
     <use style="fill:#dd8452;fill-opacity:0.2;stroke:#dd8452;stroke-opacity:0.2;" x="0" xlink:href="#md74b8754cb" y="432"/>
    </g>
   </g>
   <g id="PolyCollection_5">
    <defs>
     <path d="M 90 -191.460241 
L 90 -127.674746 
L 96.975 -146.3434 
L 103.95 -146.229967 
L 110.925 -148.614283 
L 117.9 -149.52768 
L 124.875 -146.879518 
L 131.85 -152.681868 
L 138.825 -144.954004 
L 145.8 -138.323962 
L 152.775 -134.767019 
L 159.75 -134.655768 
L 166.725 -148.024202 
L 173.7 -149.286708 
L 180.675 -147.162038 
L 187.65 -147.168415 
L 194.625 -137.225186 
L 201.6 -135.939221 
L 208.575 -140.492771 
L 215.55 -141.935666 
L 222.525 -138.180677 
L 229.5 -147.888792 
L 236.475 -149.024114 
L 243.45 -149.503666 
L 250.425 -150.391728 
L 257.4 -150.623891 
L 264.375 -147.288304 
L 271.35 -156.241867 
L 278.325 -159.568742 
L 285.3 -158.314713 
L 292.275 -156.538674 
L 299.25 -151.781315 
L 306.225 -143.165641 
L 313.2 -140.03536 
L 320.175 -149.27992 
L 327.15 -143.4347 
L 334.125 -152.299297 
L 341.1 -148.987507 
L 348.075 -140.277819 
L 355.05 -143.758163 
L 362.025 -137.169301 
L 369 -142.389549 
L 375.975 -144.454217 
L 382.95 -153.778317 
L 389.925 -144.9054 
L 396.9 -145.086338 
L 403.875 -142.226432 
L 410.85 -137.028715 
L 417.825 -142.829519 
L 424.8 -147.402322 
L 431.775 -150.586863 
L 438.75 -153.073907 
L 445.725 -148.297111 
L 452.7 -144.245617 
L 459.675 -139.919584 
L 466.65 -150.997939 
L 473.625 -148.581012 
L 480.6 -154.868657 
L 487.575 -151.575675 
L 494.55 -151.302686 
L 501.525 -151.361783 
L 508.5 -151.639895 
L 515.475 -153.028177 
L 522.45 -152.40516 
L 529.425 -157.202689 
L 536.4 -163.057211 
L 543.375 -168.330082 
L 550.35 -164.029987 
L 557.325 -153.477625 
L 564.3 -145.05381 
L 571.275 -149.431669 
L 578.25 -142.254072 
L 585.225 -137.425181 
L 592.2 -141.759106 
L 599.175 -143.788249 
L 606.15 -142.567072 
L 613.125 -148.367696 
L 620.1 -147.782379 
L 627.075 -147.538089 
L 634.05 -138.127165 
L 641.025 -141.427638 
L 641.025 -209.221158 
L 641.025 -209.221158 
L 634.05 -210.21066 
L 627.075 -211.985366 
L 620.1 -209.811161 
L 613.125 -209.182632 
L 606.15 -207.792066 
L 599.175 -206.568381 
L 592.2 -208.991802 
L 585.225 -205.943599 
L 578.25 -205.965711 
L 571.275 -209.755951 
L 564.3 -208.392149 
L 557.325 -216.988623 
L 550.35 -217.122372 
L 543.375 -213.791267 
L 536.4 -213.666792 
L 529.425 -209.524014 
L 522.45 -212.776799 
L 515.475 -221.700532 
L 508.5 -219.60807 
L 501.525 -219.33043 
L 494.55 -218.56288 
L 487.575 -215.530685 
L 480.6 -217.921817 
L 473.625 -223.493537 
L 466.65 -223.023412 
L 459.675 -223.112604 
L 452.7 -225.350979 
L 445.725 -227.318168 
L 438.75 -220.179277 
L 431.775 -215.96061 
L 424.8 -218.855524 
L 417.825 -211.990781 
L 410.85 -209.859231 
L 403.875 -208.147708 
L 396.9 -217.031353 
L 389.925 -215.550212 
L 382.95 -219.219362 
L 375.975 -210.57778 
L 369 -207.785325 
L 362.025 -203.837347 
L 355.05 -203.771026 
L 348.075 -196.323936 
L 341.1 -198.382652 
L 334.125 -198.551725 
L 327.15 -195.992617 
L 320.175 -204.094259 
L 313.2 -199.852844 
L 306.225 -193.989372 
L 299.25 -190.863534 
L 292.275 -191.534676 
L 285.3 -196.581568 
L 278.325 -202.859422 
L 271.35 -199.254562 
L 264.375 -192.675403 
L 257.4 -191.551794 
L 250.425 -198.018364 
L 243.45 -200.313782 
L 236.475 -198.248237 
L 229.5 -200.261865 
L 222.525 -198.808167 
L 215.55 -198.745391 
L 208.575 -212.663285 
L 201.6 -210.468446 
L 194.625 -210.445744 
L 187.65 -215.082615 
L 180.675 -207.781052 
L 173.7 -207.985596 
L 166.725 -210.899268 
L 159.75 -206.260036 
L 152.775 -208.870452 
L 145.8 -199.144416 
L 138.825 -196.527926 
L 131.85 -198.06433 
L 124.875 -193.717845 
L 117.9 -192.938694 
L 110.925 -195.953674 
L 103.95 -190.587283 
L 96.975 -196.893474 
L 90 -191.460241 
z
" id="m7abbdd375e" style="stroke:#55a868;stroke-opacity:0.2;"/>
    </defs>
    <g clip-path="url(#p2087442931)">
     <use style="fill:#55a868;fill-opacity:0.2;stroke:#55a868;stroke-opacity:0.2;" x="0" xlink:href="#m7abbdd375e" y="432"/>
    </g>
   </g>
   <g id="line2d_12">
    <path clip-path="url(#p2087442931)" d="M 90 245.21869 
L 96.975 250.930013 
L 103.95 250.664252 
L 110.925 258.614053 
L 117.9 266.997867 
L 124.875 269.852737 
L 131.85 278.596345 
L 138.825 278.353244 
L 145.8 283.239313 
L 152.775 281.292612 
L 159.75 286.999479 
L 166.725 279.189846 
L 173.7 276.069712 
L 180.675 277.530181 
L 187.65 279.360853 
L 194.625 279.529799 
L 201.6 278.033242 
L 208.575 277.513958 
L 215.55 280.240041 
L 222.525 284.635597 
L 229.5 290.063863 
L 236.475 290.464265 
L 243.45 289.492074 
L 250.425 288.250073 
L 257.4 286.36316 
L 264.375 283.345053 
L 271.35 280.135356 
L 278.325 281.257443 
L 285.3 281.84777 
L 292.275 291.441358 
L 299.25 291.474163 
L 306.225 294.790969 
L 313.2 298.520392 
L 320.175 292.063087 
L 327.15 290.920748 
L 334.125 288.49057 
L 341.1 284.323912 
L 348.075 287.958628 
L 355.05 287.45961 
L 362.025 286.215342 
L 369 283.601061 
L 375.975 285.106958 
L 382.95 285.895218 
L 389.925 293.696683 
L 396.9 292.734271 
L 403.875 293.166524 
L 410.85 297.985096 
L 417.825 294.748912 
L 424.8 294.898593 
L 431.775 291.806506 
L 438.75 296.045998 
L 445.725 306.827424 
L 452.7 307.40337 
L 459.675 309.553508 
L 466.65 309.574848 
L 473.625 309.809977 
L 480.6 307.801611 
L 487.575 300.384592 
L 494.55 305.36651 
L 501.525 304.758256 
L 508.5 306.665516 
L 515.475 303.207854 
L 522.45 299.024339 
L 529.425 296.208932 
L 536.4 291.192573 
L 543.375 290.6919 
L 550.35 288.281522 
L 557.325 289.888214 
L 564.3 294.429959 
L 571.275 296.759442 
L 578.25 294.989381 
L 585.225 291.804102 
L 592.2 289.507684 
L 599.175 290.664405 
L 606.15 293.652759 
L 613.125 295.942401 
L 620.1 296.183472 
L 627.075 300.145356 
L 634.05 297.234736 
L 641.025 299.922182 
" style="fill:none;stroke:#a0a0a0;stroke-linecap:round;stroke-width:2.5;"/>
   </g>
   <g id="line2d_13">
    <path clip-path="url(#p2087442931)" d="M 90 309.951331 
L 96.975 306.081691 
L 103.95 300.49311 
L 110.925 304.305047 
L 117.9 310.91306 
L 124.875 306.211309 
L 131.85 302.377691 
L 138.825 304.678174 
L 145.8 310.077263 
L 152.775 299.863081 
L 159.75 305.502262 
L 166.725 304.019225 
L 173.7 293.346773 
L 180.675 293.91281 
L 187.65 285.969837 
L 194.625 291.269513 
L 201.6 287.35268 
L 208.575 284.882293 
L 215.55 281.297667 
L 222.525 276.297781 
L 229.5 271.496408 
L 236.475 272.372023 
L 243.45 266.170924 
L 250.425 270.221414 
L 257.4 272.47971 
L 264.375 277.251739 
L 271.35 279.036095 
L 278.325 278.993331 
L 285.3 276.801167 
L 292.275 279.168487 
L 299.25 275.130415 
L 306.225 276.196201 
L 313.2 279.531686 
L 320.175 282.420839 
L 327.15 290.158881 
L 334.125 289.463115 
L 341.1 288.663325 
L 348.075 291.151465 
L 355.05 289.03664 
L 362.025 286.012519 
L 369 289.269967 
L 375.975 286.379791 
L 382.95 289.790196 
L 389.925 291.929214 
L 396.9 292.197998 
L 403.875 289.402174 
L 410.85 286.891546 
L 417.825 284.440217 
L 424.8 282.564982 
L 431.775 285.895033 
L 438.75 285.70043 
L 445.725 284.539302 
L 452.7 285.772655 
L 459.675 284.615976 
L 466.65 287.532337 
L 473.625 286.175307 
L 480.6 277.593634 
L 487.575 275.144933 
L 494.55 273.809357 
L 501.525 275.206901 
L 508.5 275.341566 
L 515.475 276.774418 
L 522.45 285.857329 
L 529.425 283.538716 
L 536.4 285.306712 
L 543.375 286.579499 
L 550.35 288.946489 
L 557.325 289.488421 
L 564.3 291.841375 
L 571.275 293.282078 
L 578.25 295.044602 
L 585.225 298.0392 
L 592.2 298.735733 
L 599.175 296.792818 
L 606.15 291.000577 
L 613.125 296.762583 
L 620.1 295.534058 
L 627.075 292.769128 
L 634.05 290.39774 
L 641.025 284.857245 
" style="fill:none;stroke:#a0a0a0;stroke-linecap:round;stroke-width:2.5;"/>
   </g>
   <g id="line2d_14">
    <path clip-path="url(#p2087442931)" d="M 90 225.500131 
L 96.975 232.215806 
L 103.95 220.727914 
L 110.925 213.344165 
L 117.9 215.98337 
L 124.875 226.617966 
L 131.85 232.70237 
L 138.825 229.262548 
L 145.8 231.148101 
L 152.775 230.935258 
L 159.75 221.376875 
L 166.725 222.98967 
L 173.7 225.528804 
L 180.675 226.189982 
L 187.65 224.994758 
L 194.625 218.704065 
L 201.6 222.19638 
L 208.575 226.858519 
L 215.55 228.226343 
L 222.525 229.490671 
L 229.5 227.328108 
L 236.475 222.007676 
L 243.45 225.033652 
L 250.425 227.298712 
L 257.4 221.287647 
L 264.375 222.974029 
L 271.35 221.068337 
L 278.325 220.736954 
L 285.3 224.179547 
L 292.275 220.438139 
L 299.25 229.805495 
L 306.225 229.202904 
L 313.2 228.753282 
L 320.175 228.071083 
L 327.15 229.52524 
L 334.125 230.215356 
L 341.1 222.383075 
L 348.075 224.12954 
L 355.05 228.864892 
L 362.025 229.651384 
L 369 230.474565 
L 375.975 230.083256 
L 382.95 231.923627 
L 389.925 229.36586 
L 396.9 235.403519 
L 403.875 236.089297 
L 410.85 233.003719 
L 417.825 234.416924 
L 424.8 229.390518 
L 431.775 229.961948 
L 438.75 233.044746 
L 445.725 239.987654 
L 452.7 240.536341 
L 459.675 238.410956 
L 466.65 243.918192 
L 473.625 242.959009 
L 480.6 242.861952 
L 487.575 234.9857 
L 494.55 237.286193 
L 501.525 237.117733 
L 508.5 234.916175 
L 515.475 231.854434 
L 522.45 227.53269 
L 529.425 223.608307 
L 536.4 220.123179 
L 543.375 222.04538 
L 550.35 222.600291 
L 557.325 223.682838 
L 564.3 223.445324 
L 571.275 225.949623 
L 578.25 225.101598 
L 585.225 226.561945 
L 592.2 227.287692 
L 599.175 226.972138 
L 606.15 224.704744 
L 613.125 221.839057 
L 620.1 220.629349 
L 627.075 218.618344 
L 634.05 215.185755 
L 641.025 214.810807 
" style="fill:none;stroke:#4c72b0;stroke-linecap:round;stroke-width:2.5;"/>
   </g>
   <g id="line2d_15">
    <path clip-path="url(#p2087442931)" d="M 90 248.586551 
L 96.975 251.26781 
L 103.95 239.981318 
L 110.925 235.007691 
L 117.9 235.005718 
L 124.875 236.255277 
L 131.85 233.304774 
L 138.825 226.708238 
L 145.8 233.019916 
L 152.775 228.164196 
L 159.75 228.135146 
L 166.725 228.557108 
L 173.7 237.543538 
L 180.675 234.239283 
L 187.65 228.324529 
L 194.625 228.785828 
L 201.6 225.193014 
L 208.575 222.771222 
L 215.55 224.623878 
L 222.525 229.339151 
L 229.5 234.013154 
L 236.475 229.661002 
L 243.45 234.814622 
L 250.425 239.9409 
L 257.4 241.298867 
L 264.375 249.854021 
L 271.35 251.364165 
L 278.325 250.530642 
L 285.3 247.500828 
L 292.275 252.140603 
L 299.25 255.661173 
L 306.225 253.16252 
L 313.2 251.591485 
L 320.175 250.895925 
L 327.15 256.257909 
L 334.125 249.507419 
L 341.1 251.341023 
L 348.075 247.722597 
L 355.05 241.209526 
L 362.025 244.211803 
L 369 242.857625 
L 375.975 243.819577 
L 382.95 237.904056 
L 389.925 234.79269 
L 396.9 239.789519 
L 403.875 240.640466 
L 410.85 238.202248 
L 417.825 246.207263 
L 424.8 247.296202 
L 431.775 245.763627 
L 438.75 243.026109 
L 445.725 244.488341 
L 452.7 245.56228 
L 459.675 240.579516 
L 466.65 238.626224 
L 473.625 238.253992 
L 480.6 239.778085 
L 487.575 239.983622 
L 494.55 242.5209 
L 501.525 242.335098 
L 508.5 240.271666 
L 515.475 240.350026 
L 522.45 237.657967 
L 529.425 235.242797 
L 536.4 233.072531 
L 543.375 229.412274 
L 550.35 224.648819 
L 557.325 225.053958 
L 564.3 218.200766 
L 571.275 222.955985 
L 578.25 226.802894 
L 585.225 227.517034 
L 592.2 221.181346 
L 599.175 221.498895 
L 606.15 223.066321 
L 613.125 227.653839 
L 620.1 228.075739 
L 627.075 230.860512 
L 634.05 235.676046 
L 641.025 235.319974 
" style="fill:none;stroke:#dd8452;stroke-linecap:round;stroke-width:2.5;"/>
   </g>
   <g id="line2d_16">
    <path clip-path="url(#p2087442931)" d="M 90 270.606702 
L 96.975 259.230886 
L 103.95 262.400976 
L 110.925 261.036966 
L 117.9 259.679088 
L 124.875 260.060267 
L 131.85 256.325616 
L 138.825 260.547299 
L 145.8 262.142027 
L 152.775 257.210048 
L 159.75 259.962079 
L 166.725 252.426806 
L 173.7 253.092447 
L 180.675 253.903933 
L 187.65 251.163384 
L 194.625 258.781354 
L 201.6 257.608064 
L 208.575 256.60481 
L 215.55 262.040926 
L 222.525 262.132653 
L 229.5 257.934946 
L 236.475 258.293053 
L 243.45 256.387888 
L 250.425 257.318506 
L 257.4 259.661525 
L 264.375 261.577004 
L 271.35 252.846922 
L 278.325 249.932566 
L 285.3 253.906342 
L 292.275 256.98565 
L 299.25 258.52592 
L 306.225 261.367768 
L 313.2 260.175308 
L 320.175 253.97788 
L 327.15 259.520821 
L 334.125 254.931492 
L 341.1 257.909738 
L 348.075 260.818902 
L 355.05 253.348538 
L 362.025 254.908263 
L 369 253.883236 
L 375.975 251.122198 
L 382.95 246.625258 
L 389.925 249.790989 
L 396.9 251.039176 
L 403.875 258.179946 
L 410.85 259.71783 
L 417.825 256.482587 
L 424.8 248.328147 
L 431.775 249.599483 
L 438.75 245.713781 
L 445.725 245.201064 
L 452.7 247.434622 
L 459.675 249.628237 
L 466.65 246.751491 
L 473.625 248.957853 
L 480.6 246.580346 
L 487.575 249.782773 
L 494.55 247.338182 
L 501.525 247.006391 
L 508.5 246.523754 
L 515.475 245.611164 
L 522.45 249.939443 
L 529.425 247.549516 
L 536.4 244.419497 
L 543.375 240.374167 
L 550.35 240.480046 
L 557.325 243.825568 
L 564.3 250.346613 
L 571.275 249.001103 
L 578.25 255.5636 
L 585.225 257.882092 
L 592.2 255.51878 
L 599.175 255.273884 
L 606.15 255.923606 
L 613.125 253.5279 
L 620.1 253.394619 
L 627.075 252.072771 
L 634.05 255.80478 
L 641.025 254.268532 
" style="fill:none;stroke:#55a868;stroke-linecap:round;stroke-width:2.5;"/>
   </g>
   <g id="line2d_17"/>
   <g id="line2d_18"/>
   <g id="line2d_19"/>
   <g id="line2d_20"/>
   <g id="line2d_21"/>
   <g id="line2d_22"/>
   <g id="line2d_23">
    <path clip-path="url(#p2087442931)" d="M 90 312.768 
L 648 312.768 
" style="fill:none;stroke:#a0a0a0;stroke-dasharray:9.25,4;stroke-dashoffset:0;stroke-width:2.5;"/>
   </g>
   <g id="line2d_24">
    <path clip-path="url(#p2087442931)" d="M 90 312.768 
L 648 312.768 
" style="fill:none;stroke:#a0a0a0;stroke-dasharray:9.25,4;stroke-dashoffset:0;stroke-width:2.5;"/>
   </g>
   <g id="line2d_25">
    <path clip-path="url(#p2087442931)" d="M 90 204.048 
L 648 204.048 
" style="fill:none;stroke:#4c72b0;stroke-dasharray:9.25,4;stroke-dashoffset:0;stroke-width:2.5;"/>
   </g>
   <g id="line2d_26">
    <path clip-path="url(#p2087442931)" d="M 90 204.048 
L 648 204.048 
" style="fill:none;stroke:#dd8452;stroke-dasharray:9.25,4;stroke-dashoffset:0;stroke-width:2.5;"/>
   </g>
   <g id="line2d_27">
    <path clip-path="url(#p2087442931)" d="M 90 204.048 
L 648 204.048 
" style="fill:none;stroke:#55a868;stroke-dasharray:9.25,4;stroke-dashoffset:0;stroke-width:2.5;"/>
   </g>
   <g id="patch_3">
    <path d="M 90 378 
L 90 51.84 
" style="fill:none;stroke:#262626;stroke-linecap:square;stroke-linejoin:miter;stroke-width:1.25;"/>
   </g>
   <g id="patch_4">
    <path d="M 90 378 
L 648 378 
" style="fill:none;stroke:#262626;stroke-linecap:square;stroke-linejoin:miter;stroke-width:1.25;"/>
   </g>
   <g id="legend_1">
    <g id="patch_5">
     <path d="M 678.3 140.311875 
L 740.053125 140.311875 
Q 742.453125 140.311875 742.453125 137.911875 
L 742.453125 54.24 
Q 742.453125 51.84 740.053125 51.84 
L 678.3 51.84 
Q 675.9 51.84 675.9 54.24 
L 675.9 137.911875 
Q 675.9 140.311875 678.3 140.311875 
z
" style="fill:#ffffff;opacity:0.8;stroke:#000000;stroke-linejoin:miter;"/>
    </g>
    <g id="line2d_28">
     <path d="M 680.7 61.029375 
L 704.7 61.029375 
" style="fill:none;stroke:#a0a0a0;stroke-linecap:round;stroke-width:2.5;"/>
    </g>
    <g id="line2d_29"/>
    <g id="text_14">
     <!-- 0.00 -->
     <g style="fill:#262626;" transform="translate(714.3 65.229375)scale(0.12 -0.12)">
      <use xlink:href="#ArialMT-48"/>
      <use x="55.615234" xlink:href="#ArialMT-46"/>
      <use x="83.398438" xlink:href="#ArialMT-48"/>
      <use x="139.013672" xlink:href="#ArialMT-48"/>
     </g>
    </g>
    <g id="line2d_30">
     <path d="M 680.7 78.00375 
L 704.7 78.00375 
" style="fill:none;stroke:#a0a0a0;stroke-linecap:round;stroke-width:2.5;"/>
    </g>
    <g id="line2d_31"/>
    <g id="text_15">
     <!-- 0.00 -->
     <g style="fill:#262626;" transform="translate(714.3 82.20375)scale(0.12 -0.12)">
      <use xlink:href="#ArialMT-48"/>
      <use x="55.615234" xlink:href="#ArialMT-46"/>
      <use x="83.398438" xlink:href="#ArialMT-48"/>
      <use x="139.013672" xlink:href="#ArialMT-48"/>
     </g>
    </g>
    <g id="line2d_32">
     <path d="M 680.7 94.978125 
L 704.7 94.978125 
" style="fill:none;stroke:#4c72b0;stroke-linecap:round;stroke-width:2.5;"/>
    </g>
    <g id="line2d_33"/>
    <g id="text_16">
     <!-- 0.33 -->
     <defs>
      <path d="M 4.203125 18.890625 
L 12.984375 20.0625 
Q 14.5 12.59375 18.140625 9.296875 
Q 21.78125 6 27 6 
Q 33.203125 6 37.46875 10.296875 
Q 41.75 14.59375 41.75 20.953125 
Q 41.75 27 37.796875 30.921875 
Q 33.84375 34.859375 27.734375 34.859375 
Q 25.25 34.859375 21.53125 33.890625 
L 22.515625 41.609375 
Q 23.390625 41.5 23.921875 41.5 
Q 29.546875 41.5 34.03125 44.421875 
Q 38.53125 47.359375 38.53125 53.46875 
Q 38.53125 58.296875 35.25 61.46875 
Q 31.984375 64.65625 26.8125 64.65625 
Q 21.6875 64.65625 18.265625 61.421875 
Q 14.84375 58.203125 13.875 51.765625 
L 5.078125 53.328125 
Q 6.6875 62.15625 12.390625 67.015625 
Q 18.109375 71.875 26.609375 71.875 
Q 32.46875 71.875 37.390625 69.359375 
Q 42.328125 66.84375 44.9375 62.5 
Q 47.5625 58.15625 47.5625 53.265625 
Q 47.5625 48.640625 45.0625 44.828125 
Q 42.578125 41.015625 37.703125 38.765625 
Q 44.046875 37.3125 47.5625 32.6875 
Q 51.078125 28.078125 51.078125 21.140625 
Q 51.078125 11.765625 44.234375 5.25 
Q 37.40625 -1.265625 26.953125 -1.265625 
Q 17.53125 -1.265625 11.296875 4.34375 
Q 5.078125 9.96875 4.203125 18.890625 
z
" id="ArialMT-51"/>
     </defs>
     <g style="fill:#262626;" transform="translate(714.3 99.178125)scale(0.12 -0.12)">
      <use xlink:href="#ArialMT-48"/>
      <use x="55.615234" xlink:href="#ArialMT-46"/>
      <use x="83.398438" xlink:href="#ArialMT-51"/>
      <use x="139.013672" xlink:href="#ArialMT-51"/>
     </g>
    </g>
    <g id="line2d_34">
     <path d="M 680.7 111.9525 
L 704.7 111.9525 
" style="fill:none;stroke:#dd8452;stroke-linecap:round;stroke-width:2.5;"/>
    </g>
    <g id="line2d_35"/>
    <g id="text_17">
     <!-- 0.33 -->
     <g style="fill:#262626;" transform="translate(714.3 116.1525)scale(0.12 -0.12)">
      <use xlink:href="#ArialMT-48"/>
      <use x="55.615234" xlink:href="#ArialMT-46"/>
      <use x="83.398438" xlink:href="#ArialMT-51"/>
      <use x="139.013672" xlink:href="#ArialMT-51"/>
     </g>
    </g>
    <g id="line2d_36">
     <path d="M 680.7 128.926875 
L 704.7 128.926875 
" style="fill:none;stroke:#55a868;stroke-linecap:round;stroke-width:2.5;"/>
    </g>
    <g id="line2d_37"/>
    <g id="text_18">
     <!-- 0.33 -->
     <g style="fill:#262626;" transform="translate(714.3 133.126875)scale(0.12 -0.12)">
      <use xlink:href="#ArialMT-48"/>
      <use x="55.615234" xlink:href="#ArialMT-46"/>
      <use x="83.398438" xlink:href="#ArialMT-51"/>
      <use x="139.013672" xlink:href="#ArialMT-51"/>
     </g>
    </g>
   </g>
  </g>
 </g>
 <defs>
  <clipPath id="p2087442931">
   <rect height="326.16" width="558" x="90" y="51.84"/>
  </clipPath>
 </defs>
</svg>
